<svg width="400" height="260" viewBox="0 0 400 260" fill="none" xmlns="http://www.w3.org/2000/svg">
<path d="M200 0C89.54 0 0 89.54 0 200V260H60V220C60 203.43 73.43 190 90 190C98.28 190 105.78 193.36 111.21 198.79C116.64 204.22 120 211.72 120 220V260H180V240C180 195.82 215.82 160 260 160C304.18 160 340 195.82 340 240V260H400V200C400 89.54 310.46 0 200 0ZM90 160C73.43 160 60 146.57 60 130C60 113.43 73.43 100 90 100C106.57 100 120 113.43 120 130C120 146.57 106.57 160 90 160Z" fill="#23232D"/>
</svg>
