<svg width="1034" height="247" viewBox="0 0 1034 247" fill="none" xmlns="http://www.w3.org/2000/svg">
  <path d="M1030 160C1011.48 68.72 930.76 0 834 0C737.24 0 656.52 68.72 638 160C635.38 172.92 634 186.3 634 200V240H674V200C674 186.18 675.76 172.78 679.04 160C696.8 91 759.46 40 834 40C908.54 40 971.2 91 988.96 160C992.24 172.78 994 186.18 994 200H952C952 155.82 916.18 120 872 120C827.82 120 792 155.82 792 200H755V163H715V240H832V200C832 177.9 849.9 160 872 160C894.1 160 912 177.9 912 200V240H1034V200C1034 186.3 1032.62 172.92 1030 160Z" fill="#23232D"/>
  <path d="M301.929 238.044C314.766 232.727 320.863 218.009 315.545 205.171C310.228 192.333 295.51 186.237 282.672 191.555C269.834 196.872 263.738 211.59 269.056 224.428C274.373 237.266 289.091 243.362 301.929 238.044Z" fill="#23232D"/>
  <path d="M361.14 49.5C347.24 49.5 335.98 60.76 335.98 74.66C335.98 88.56 347.24 99.82 361.14 99.82C375.04 99.82 386.3 88.56 386.3 74.66C386.3 60.76 375.04 49.5 361.14 49.5Z" fill="#23232D"/>
  <path d="M141.18 60.26C125.24 52.12 107.02 48.06 86.5 48.06C54.98 48.06 32.74 56.32 19.78 72.82C11.64 83.36 7.06 96.84 6.02 113.24H53.32C54.46 106.02 56.76 100.28 60.2 96.04C65.02 90.3 73.22 87.44 84.8 87.44C95.12 87.44 102.94 88.9 108.28 91.82C113.62 94.74 116.28 100.04 116.28 107.72C116.28 114.02 112.78 118.66 105.78 121.64C101.88 123.36 95.4 124.8 86.34 125.94L69.66 128C50.74 130.4 36.42 134.42 26.66 140.04C8.88 150.36 0 167.04 0 190.08C0 207.86 5.52 221.58 16.6 231.26C27.66 240.94 41.68 245.8 58.64 245.8C71.94 245.8 83.86 242.76 94.4 236.68C103.22 231.52 111.02 225.28 117.78 217.94V239.96H165.08V106.34C165.08 83.76 157.12 68.4 141.18 60.26ZM116.08 167.06C115.74 183.46 111.12 194.74 102.24 200.94C93.36 207.14 83.64 210.22 73.1 210.22C66.44 210.22 60.84 208.32 56.24 204.54C51.54 200.88 49.18 194.86 49.18 186.48C49.18 177.08 52.96 170.14 60.52 165.68C65 163.04 72.38 160.8 82.7 158.98L93.7 156.92C99.2 155.88 103.52 154.78 106.68 153.56C109.84 152.36 112.96 150.78 116.06 148.84V167.06H116.08Z" fill="#23232D"/>
  <path d="M284.04 97.92C286.44 98.04 289.2 98.26 292.3 98.6V48.38C290.12 48.26 288.72 48.18 288.08 48.12C287.44 48.06 286.68 48.04 285.76 48.04C271.08 48.04 259.16 51.88 250 59.56C244.38 64.14 237.8 72.68 230.22 85.18V52.5H183.44V239.94H232.8V150.34C232.8 135.32 234.7 124.2 238.48 116.98C245.24 104.14 258.48 97.72 278.2 97.72C279.68 97.72 281.64 97.78 284.04 97.9V97.92Z" fill="#23232D"/>
  <path d="M385.98 120.38H336.28V239.96H385.98V120.38Z" fill="#23232D"/>
  <path d="M571.78 76.26C555.96 56.42 531.94 46.5 499.72 46.5C467.5 46.5 443.48 56.42 427.66 76.26C411.84 96.1 403.92 119.54 403.92 146.6C403.92 173.66 411.84 197.64 427.66 217.2C443.48 236.74 467.5 246.52 499.72 246.52C531.94 246.52 555.96 236.74 571.78 217.2C587.6 197.66 595.52 174.12 595.52 146.6C595.52 119.08 587.6 96.1 571.78 76.26ZM532.58 190.1C524.9 200.3 513.9 205.4 499.56 205.4C485.22 205.4 474.2 200.3 466.46 190.1C458.72 179.9 454.86 165.4 454.86 146.6C454.86 127.8 458.72 113.32 466.46 103.18C474.2 93.04 485.24 87.96 499.56 87.96C513.88 87.96 524.9 93.04 532.58 103.18C540.26 113.32 544.1 127.8 544.1 146.6C544.1 165.4 540.26 179.9 532.58 190.1Z" fill="#23232D"/>
  <circle cx="735" cy="127.5" r="20" fill="#23232D"/>
</svg>


