<svg width="1000" height="1000" viewBox="0 0 1000 1000" fill="none" xmlns="http://www.w3.org/2000/svg">
<rect width="1000" height="1000" rx="20" fill="#121212"/>
<path fill-rule="evenodd" clip-rule="evenodd" d="M882.124 376.513H864.918C850.687 376.513 839.108 365.313 839.108 351.551V334.174H682.964C677.894 334.174 673.779 338.152 673.779 343.058C673.779 347.964 677.894 351.941 682.964 351.941H792.59C818.418 400.805 832.985 456.163 832.985 514.806C832.985 712.689 667.123 873.107 462.526 873.107C257.929 873.107 92.0674 712.689 92.0674 514.806C92.0674 317.909 256.275 158.107 459.464 156.516L462.526 156.504H839.108V151.855C839.108 138.092 850.687 126.893 864.918 126.893H882.124C896.355 126.893 907.934 138.092 907.934 151.855V351.551C907.934 365.313 896.367 376.513 882.124 376.513ZM864.918 143.534C860.166 143.534 856.314 147.261 856.314 151.855V351.551C856.314 356.143 860.166 359.871 864.918 359.871H882.124C886.87 359.871 890.727 356.143 890.727 351.551V151.855C890.727 147.261 886.87 143.534 882.124 143.534H864.918ZM462.526 636.214C531.854 636.214 588.053 581.859 588.053 514.806C588.053 447.753 531.854 393.398 462.526 393.398C393.198 393.398 336.999 447.753 336.999 514.806C336.999 581.859 393.198 636.214 462.526 636.214Z" fill="#F5F5F5"/>
</svg>
