<svg xmlns="http://www.w3.org/2000/svg" width="1000" height="1001" fill="none"><path fill="#121212" d="M0 .398h1000v1000H0z"/><path fill="#FAFAFA" d="M503.117 305.299c2.613 1.665 5.117 3.632 7.566 5.674a6681.179 6681.179 0 0 0 69.016 56.44c27.922 22.546 55.681 45.319 83.657 67.637 44.632 35.634 88.937 72.101 133.46 108.037 15.403 12.484 30.86 24.816 46.318 37.223.598.455 1.58.757 1.58 1.589.053 1.211-1.036 1.362-1.689 1.892-17.308 13.467-34.616 26.934-51.87 40.4a177.318 177.318 0 0 0-6.967 5.675c-1.96 1.74-4.028 2.042-6.259 1.362a2510.59 2510.59 0 0 0-22.425-6.734c-7.892-2.27-15.839-4.464-23.785-6.658-2.722-.756-5.389-.227-7.838 1.589-1.525 1.135-2.939 2.572-4.3 4.085-1.579 1.74-2.232 3.934-1.96 6.658.218 2.043.49 4.086.708 6.052 1.088 9.533.272 18.763-1.959 27.918-1.525 6.355-3.701 12.256-6.26 17.93-5.933 13.316-13.498 24.589-22.152 34.499-6.641 7.491-13.662 14.149-21.064 20.201-.544.454-1.089.832-1.524 1.362-3.429 3.783-7.24 6.657-11.103 9.457-8.655 6.204-17.309 12.332-26.29 17.628-15.24 8.928-30.97 15.964-46.972 21.713-10.123 3.631-20.302 6.809-30.588 9.306-6.75 1.664-13.553 2.951-20.412 4.01-9.361 1.438-18.723 2.269-28.139 2.95-7.131.53-14.26.833-21.391.908-6.15.076-12.355-.378-18.506-.756-4.245-.227-8.545-.681-12.79-1.135-5.008-.529-10.07-1.21-15.077-1.967a402.91 402.91 0 0 1-13.226-2.27c-7.348-1.286-14.587-3.102-21.881-5.069-13.498-3.707-26.778-8.322-40.005-13.618-17.308-6.961-34.073-16.039-50.346-26.706-8.546-5.599-17.145-11.198-25.31-17.932-27.785-22.795-52.388-49.489-68.852-81.633-6.804-13.391-12.356-27.766-15.948-43.427-5.59-24.322-3.834-49.882 4.191-73.462 17.108-50.436 61.223-87.746 107.66-111.29 34.837-17.648 72.379-23.84 111.253-23.454 4.027.075 8.001.378 11.974 1.134 2.395.455 4.681-.075 6.913-1.361 2.068-1.286 3.973-3.027 5.769-4.993 1.306-1.363 1.742-3.253 1.524-5.448-.163-1.588-.653-3.026-1.252-4.388-2.013-4.691-4.027-9.381-5.987-14.072l-7.021-17.022c-.381-.984-.654-1.968-1.035-2.876.545-1.134 1.415-1.513 2.178-2.042 10.885-8.171 21.88-15.888 32.929-23.454 8.437-5.75 16.764-11.802 25.146-17.628 2.014-1.437 4.082-2.648 6.096-4.009 1.47-.984 2.83-.833 4.245.075ZM457.048 502.64c-8.889 0-18.671 1.765-27.26 4.175-7.611 2.087-15.168 4.473-22.563 7.827-11.606 5.367-22.618 12.374-32.658 22.065-5.344 5.07-10.256 10.884-14.359 17.891-4.265 7.305-7.665 15.208-9.338 24.451-.864 4.696-1.566 9.318-1.242 14.164.54 8.274 2.267 16.101 4.858 23.556.756 2.162 1.673 4.174 2.699 6.113 1.404 2.608 2.969 4.919 4.426 7.454 3.078 5.218 6.586 9.765 10.365 13.94 8.475 9.244 17.489 16.996 27.422 22.811 1.565.894 3.238 1.64 4.75 2.684 2.645 1.863 5.344 3.279 8.15 4.547 11.282 5.069 22.726 8.722 34.494 10.883 8.312 1.491 16.626 2.088 24.237 2.386 8.043 0 17.543-1.044 26.18-2.46 8.259-1.342 16.356-3.578 24.345-6.56 4.427-1.64 8.637-4.025 12.955-6.113 10.635-5.218 20.567-12.15 29.581-21.618 2.214-2.311 4.319-4.696 6.316-7.38 1.457-1.938 2.807-3.876 4.426-5.516.54-.597 1.08-1.342 1.296-2.162.486-1.863 1.457-3.131 2.321-4.622.701-1.193 1.35-2.534 1.943-3.801 2.321-4.995 3.833-10.362 5.128-15.954 2.16-9.243 2.268-18.561.594-27.879-2.321-12.673-7.126-23.407-13.927-32.427-8.313-10.959-17.813-19.531-28.177-26.315-9.501-6.262-19.433-11.033-29.689-14.387-6.478-2.087-12.956-4.1-19.541-5.218-12.733-2.11-24.821-2.535-37.732-2.535Z"/><path fill="#1F1F1F" fill-rule="evenodd" d="M498.872 305.224c-.837.565-1.683 1.105-2.531 1.646-1.192.761-2.388 1.523-3.565 2.363a1448.009 1448.009 0 0 0-10.331 7.271c-4.923 3.485-9.85 6.974-14.815 10.357-11.049 7.566-22.044 15.283-32.929 23.454-.142.098-.288.192-.434.286-.641.411-1.301.833-1.744 1.756.211.502.389 1.027.569 1.562.146.433.295.873.466 1.314l7.021 17.022c1.96 4.691 3.974 9.381 5.987 14.072.599 1.362 1.089 2.8 1.252 4.388.218 2.195-.218 4.085-1.524 5.448-1.796 1.966-3.701 3.707-5.769 4.993-2.232 1.286-4.518 1.816-6.913 1.361-3.973-.756-7.947-1.059-11.974-1.134-38.874-.386-76.416 5.806-111.253 23.454-46.437 23.544-90.552 60.854-107.66 111.29-8.025 23.58-9.781 49.14-4.191 73.462 3.592 15.661 9.144 30.036 15.948 43.427 16.464 32.144 41.067 58.838 68.852 81.633 7.964 6.569 16.343 12.058 24.681 17.52l.629.412c16.273 10.667 33.038 19.745 50.346 26.706 13.227 5.296 26.507 9.911 40.005 13.618 7.294 1.967 14.533 3.783 21.881 5.069a402.91 402.91 0 0 0 13.226 2.27c5.007.757 10.069 1.438 15.077 1.967 4.245.454 8.545.908 12.79 1.135.742.045 1.485.092 2.228.139 5.419.341 10.87.684 16.278.617 7.131-.075 14.26-.378 21.391-.908 9.416-.681 18.778-1.512 28.139-2.95 6.859-1.059 13.662-2.346 20.412-4.01 10.286-2.497 20.465-5.675 30.588-9.306 16.002-5.749 31.732-12.785 46.972-21.713 8.981-5.296 17.635-11.424 26.29-17.628 3.863-2.8 7.674-5.674 11.103-9.457.33-.402.724-.717 1.132-1.044.13-.104.261-.208.392-.318 7.402-6.052 14.423-12.71 21.064-20.201 8.654-9.91 16.219-21.183 22.152-34.499 2.559-5.674 4.735-11.575 6.26-17.93 2.231-9.155 3.047-18.385 1.959-27.918-.099-.892-.209-1.801-.32-2.719a230.44 230.44 0 0 1-.388-3.333c-.272-2.724.381-4.918 1.96-6.658 1.361-1.513 2.775-2.95 4.3-4.085 2.449-1.816 5.116-2.345 7.838-1.589 7.946 2.194 15.893 4.388 23.785 6.658a2510.59 2510.59 0 0 1 22.425 6.734c2.231.68 4.299.378 6.259-1.362a177.318 177.318 0 0 1 6.967-5.675 33501.831 33501.831 0 0 1 38.049-29.645c2.203-1.716 4.409-3.431 6.613-5.147l.994-.773 6.214-4.835a4.06 4.06 0 0 1 .589-.372c.566-.315 1.138-.634 1.1-1.52 0-.621-.546-.947-1.072-1.26-.179-.108-.356-.213-.508-.329-2.517-2.02-5.034-4.038-7.55-6.055l-.901-.722-4.51-3.614-.787-.631-.332-.266c-10.761-8.623-21.513-17.242-32.238-25.935-17.435-14.073-34.838-28.227-52.238-42.38-27.035-21.989-54.068-43.977-81.222-65.657-17.819-14.215-35.549-28.614-53.289-43.022a13872.874 13872.874 0 0 0-30.368-24.615 6681.179 6681.179 0 0 1-69.016-56.44c-2.449-2.042-4.953-4.009-7.566-5.674-1.415-.908-2.775-1.059-4.245-.075Zm15.167-16.957c-2.678-1.714-6.839-3.706-12.203-3.923-5.667-.229-10.542 1.604-14.241 4.08l-.08.054c-.594.401-1.174.771-2.006 1.303l-.607.387a92.76 92.76 0 0 0-3.791 2.532c-3.765 2.617-7.26 5.093-10.674 7.512-4.73 3.35-9.304 6.591-14.226 9.945l-.036.025c-10.993 7.528-22.078 15.302-33.12 23.573-.368.239-1.197.783-2.133 1.527a23.666 23.666 0 0 0-6.666 8.34l-.413 16.552a6.449 6.449 0 0 1-.102-.256s.032.09.112.326l.034.102c.064.19.167.494.267.781.131.376.304.861.513 1.402l.163.405 7.02 17.023.036.084c.156.376.314.752.472 1.128l-.339-.007-.18-.002c-41.152-.409-82.121 6.139-120.617 25.64l-.007.004c-48.825 24.755-98.171 65.363-117.667 122.816m330.491-241.353c3.672 2.342 6.93 4.934 9.606 7.166a6690.12 6690.12 0 0 0 68.78 56.247l.01.007c10.236 8.265 20.394 16.515 30.523 24.741 17.684 14.362 35.279 28.651 53.041 42.821l.006.006c27.196 21.713 54.388 43.83 81.498 65.88 17.39 14.144 34.744 28.26 52.045 42.224l.032.025c11.052 8.957 22.111 17.819 33.229 26.728 4.036 3.234 8.08 6.475 12.131 9.727.331.213.763.503 1.249.861 2.228 1.646 8.608 7.062 8.777 16.808a21.527 21.527 0 0 1-2.606 10.781 21.635 21.635 0 0 1-6.212 7.096 25.03 25.03 0 0 1-1.566 1.055 39782.638 39782.638 0 0 0-50.953 39.686l-.047.036a157.6 157.6 0 0 0-6.093 4.956c-3.249 2.843-7.386 5.174-12.353 6.167-4.981.996-9.507.388-13.126-.716a2477.018 2477.018 0 0 0-22.169-6.657 1426.588 1426.588 0 0 0-10.855-3.072c.39 9.699-.735 19.034-2.927 28.044-1.88 7.827-4.521 14.921-7.463 21.45-6.83 15.317-15.535 28.26-25.371 39.525l-.101.115c-7.381 8.324-15.171 15.71-23.338 22.393l-.048.04c-4.767 5.101-9.79 8.806-13.578 11.55l-.081.059c-8.616 6.176-17.945 12.801-27.802 18.613l-.051.03c-16.488 9.659-33.383 17.198-50.363 23.299l-.01.004c-10.63 3.813-21.496 7.215-32.615 9.915-7.45 1.836-14.849 3.228-22.137 4.354l-.017.002c-10.156 1.56-20.143 2.437-29.728 3.131-7.553.561-15.109.881-22.665.962-6.22.074-12.476-.321-17.811-.659l-2.075-.13c-4.832-.261-9.617-.771-13.768-1.215-5.382-.569-10.75-1.294-15.965-2.081l-.066-.01a423.489 423.489 0 0 1-13.761-2.36c-8.212-1.444-16.106-3.439-23.532-5.441l-.089-.024c-14.365-3.945-28.376-8.823-42.172-14.347l-.029-.012c-18.756-7.543-36.706-17.292-53.895-28.559l-.912-.598c-8.136-5.329-17.331-11.35-26.165-18.635-29.16-23.927-55.893-52.676-74.002-88.029l-.031-.06c-7.445-14.654-13.618-30.581-17.627-48.061-6.483-28.217-4.395-57.595 4.757-84.485m496.971 221.928.506-.585c-.174.211-.343.406-.506.585ZM855.79 599.491c-.087.071-.175.14-.256.207l.256-.207Zm-2.187 1.524c-.196.113-.27.147-.162.088l.067-.036.095-.052Zm.473-37.711Zm-20.391 2.486c.221-.129.269-.149.018-.01l-.018.01Zm-.463 32.192c.14.086.169.1.017.01l-.017-.01Zm-397.956-71.697-.114.032c-7.137 1.957-13.51 4.005-19.483 6.708-9.861 4.568-18.879 10.361-27.025 18.223l-.127.122c-4.201 3.985-7.833 8.33-10.815 13.421-3.385 5.801-5.746 11.476-6.901 17.856l-.01.055c-.825 4.483-1.098 6.998-.953 9.164l.002.032c.409 6.271 1.72 12.305 3.775 18.223.353 1.005.818 2.058 1.445 3.25.407.751.89 1.56 1.589 2.7l.323.526c.604.981 1.389 2.256 2.141 3.559 2.236 3.777 4.845 7.19 7.846 10.511 7.43 8.096 14.861 14.377 22.58 18.913.203.114.344.188.608.326.244.128.594.31 1.195.631.997.532 2.605 1.41 4.326 2.599l.157.11c1.262.888 2.731 1.7 4.797 2.634 9.894 4.444 19.765 7.578 29.796 9.424 6.847 1.225 13.95 1.771 20.991 2.057 6.479-.032 14.631-.898 22.517-2.191l.03-.005c6.802-1.105 13.613-2.969 20.507-5.542l.045-.017c2.037-.755 3.573-1.538 5.913-2.731 1.372-.699 3.018-1.539 5.204-2.596 8.648-4.249 16.571-9.8 23.786-17.379l.041-.042c1.831-1.913 3.344-3.648 4.697-5.465l.06-.081c.111-.147.253-.34.424-.573.714-.971 1.924-2.617 3.375-4.345a32 32 0 0 1 1.454-2.925 48.31 48.31 0 0 1 1.069-1.808l.004-.007c.282-.457.334-.542.381-.624l.069-.118c.178-.303.478-.885 1.045-2.092 1.438-3.102 2.574-6.872 3.757-11.977l.008-.035c1.488-6.368 1.604-12.887.389-19.678-1.775-9.67-5.338-17.446-10.162-23.849-6.848-9.023-14.612-16.02-23.116-21.587l-.054-.035c-8.004-5.276-16.294-9.248-24.796-12.033-6.494-2.092-11.68-3.662-16.634-4.507-11.097-1.835-21.885-2.254-34.374-2.254-6.479 0-14.343 1.334-21.782 3.42Zm59.514-21.11c6.585 1.118 13.063 3.131 19.541 5.218 10.256 3.354 20.188 8.125 29.689 14.387 10.364 6.784 19.864 15.356 28.177 26.315 6.801 9.02 11.606 19.754 13.927 32.427 1.674 9.318 1.566 18.636-.594 27.879-1.295 5.592-2.807 10.959-5.128 15.954-.593 1.267-1.242 2.608-1.943 3.801-.193.334-.392.656-.589.976-.685 1.112-1.355 2.199-1.732 3.646-.216.82-.756 1.565-1.296 2.162-1.327 1.344-2.474 2.889-3.646 4.47-.258.347-.518.697-.78 1.046-1.997 2.684-4.102 5.069-6.316 7.38-9.014 9.468-18.946 16.4-29.581 21.618-1.262.61-2.514 1.246-3.765 1.88-3.032 1.538-6.057 3.072-9.19 4.233-7.989 2.982-16.086 5.218-24.345 6.56-8.637 1.416-18.137 2.46-26.18 2.46-7.611-.298-15.925-.895-24.237-2.386-11.768-2.161-23.212-5.814-34.494-10.883-2.806-1.268-5.505-2.684-8.15-4.547-.984-.679-2.036-1.232-3.081-1.782-.562-.295-1.123-.589-1.669-.902-9.933-5.815-18.947-13.567-27.422-22.811-3.779-4.175-7.287-8.722-10.365-13.94a118.432 118.432 0 0 0-1.853-3.081c-.877-1.425-1.753-2.849-2.573-4.373-1.026-1.939-1.943-3.951-2.699-6.113-2.591-7.455-4.318-15.282-4.858-23.556-.324-4.846.378-9.468 1.242-14.164 1.673-9.243 5.073-17.146 9.338-24.451 4.103-7.007 9.015-12.821 14.359-17.891 10.04-9.691 21.052-16.698 32.658-22.065 7.395-3.354 14.952-5.74 22.563-7.827 8.589-2.41 18.371-4.175 27.26-4.175 12.911 0 24.999.425 37.732 2.535Z" clip-rule="evenodd"/><path fill="#FAFAFA" d="M503.117 278.333c2.613 1.665 5.117 3.632 7.566 5.675a6694.134 6694.134 0 0 0 69.016 56.439c27.922 22.546 55.681 45.319 83.657 67.637 44.632 35.634 88.937 72.101 133.46 108.037 15.403 12.484 30.86 24.816 46.318 37.223.598.455 1.58.757 1.58 1.589.053 1.211-1.036 1.362-1.689 1.892-17.308 13.467-34.616 26.934-51.87 40.4a177.318 177.318 0 0 0-6.967 5.675c-1.96 1.74-4.028 2.042-6.259 1.362a2510.59 2510.59 0 0 0-22.425-6.734c-7.892-2.27-15.839-4.464-23.785-6.658-2.722-.756-5.389-.227-7.838 1.589-1.525 1.135-2.939 2.572-4.3 4.086-1.579 1.74-2.232 3.933-1.96 6.657.218 2.043.49 4.086.708 6.052 1.088 9.533.272 18.763-1.959 27.918-1.525 6.355-3.701 12.256-6.26 17.93-5.933 13.316-13.498 24.589-22.152 34.499-6.641 7.491-13.662 14.149-21.064 20.201-.544.454-1.089.832-1.524 1.362-3.429 3.783-7.24 6.657-11.103 9.457-8.655 6.204-17.309 12.332-26.29 17.628-15.24 8.928-30.97 15.964-46.972 21.713-10.123 3.631-20.302 6.809-30.588 9.306-6.75 1.664-13.553 2.951-20.412 4.01-9.361 1.438-18.723 2.269-28.139 2.95-7.131.53-14.26.833-21.391.908-6.15.076-12.355-.378-18.506-.756-4.245-.227-8.545-.681-12.79-1.135-5.008-.529-10.07-1.21-15.077-1.967a402.91 402.91 0 0 1-13.226-2.27c-7.348-1.286-14.587-3.102-21.881-5.069-13.498-3.707-26.778-8.322-40.005-13.618-17.308-6.961-34.073-16.039-50.346-26.706-8.546-5.599-17.145-11.198-25.31-17.932-27.785-22.795-52.388-49.489-68.852-81.633-6.804-13.391-12.356-27.765-15.948-43.427-5.59-24.322-3.834-49.882 4.191-73.462 17.108-50.436 61.223-87.746 107.66-111.29 34.837-17.648 72.379-23.84 111.253-23.454 4.027.075 8.001.378 11.974 1.135 2.395.454 4.681-.076 6.913-1.362 2.068-1.286 3.973-3.027 5.769-4.993 1.306-1.362 1.742-3.253 1.524-5.448-.163-1.588-.653-3.026-1.252-4.388-2.013-4.691-4.027-9.381-5.987-14.072l-7.021-17.022c-.381-.984-.654-1.968-1.035-2.876.545-1.134 1.415-1.513 2.178-2.042 10.885-8.171 21.88-15.888 32.929-23.454 8.437-5.75 16.764-11.802 25.146-17.628 2.014-1.437 4.082-2.648 6.096-4.009 1.47-.984 2.83-.833 4.245.075Zm-46.069 197.341c-8.889 0-18.671 1.765-27.26 4.175-7.611 2.087-15.168 4.473-22.563 7.827-11.606 5.367-22.618 12.374-32.658 22.065-5.344 5.07-10.256 10.884-14.359 17.891-4.265 7.305-7.665 15.208-9.338 24.451-.864 4.696-1.566 9.318-1.242 14.164.54 8.274 2.267 16.101 4.858 23.556.756 2.162 1.673 4.174 2.699 6.113 1.404 2.608 2.969 4.919 4.426 7.454 3.078 5.218 6.586 9.765 10.365 13.94 8.475 9.244 17.489 16.996 27.422 22.811 1.565.894 3.238 1.64 4.75 2.684 2.645 1.863 5.344 3.279 8.15 4.547 11.282 5.069 22.726 8.722 34.494 10.883 8.312 1.491 16.626 2.088 24.237 2.386 8.043 0 17.543-1.044 26.18-2.46 8.259-1.342 16.356-3.578 24.345-6.56 4.427-1.64 8.637-4.025 12.955-6.113 10.635-5.218 20.567-12.15 29.581-21.617 2.214-2.311 4.319-4.697 6.316-7.381 1.457-1.938 2.807-3.876 4.426-5.516.54-.597 1.08-1.342 1.296-2.162.486-1.863 1.457-3.131 2.321-4.622.701-1.192 1.35-2.534 1.943-3.801 2.321-4.995 3.833-10.362 5.128-15.954 2.16-9.243 2.268-18.561.594-27.879-2.321-12.673-7.126-23.407-13.927-32.427-8.313-10.959-17.813-19.531-28.177-26.315-9.501-6.262-19.433-11.033-29.689-14.387-6.478-2.087-12.956-4.1-19.541-5.218-12.733-2.11-24.821-2.535-37.732-2.535Z"/><path fill="#FAFAFA" fill-rule="evenodd" d="M498.872 278.258c-.837.565-1.683 1.105-2.531 1.646-1.192.761-2.388 1.523-3.565 2.363a1448.009 1448.009 0 0 0-10.331 7.271c-4.923 3.485-9.85 6.974-14.815 10.357-11.049 7.566-22.044 15.283-32.929 23.454-.142.098-.288.192-.434.286-.641.411-1.301.833-1.744 1.756.211.502.389 1.027.569 1.562.146.433.295.873.466 1.314l7.021 17.022c1.96 4.691 3.974 9.381 5.987 14.072.599 1.362 1.089 2.8 1.252 4.388.218 2.195-.218 4.086-1.524 5.448-1.796 1.966-3.701 3.707-5.769 4.993-2.232 1.286-4.518 1.816-6.913 1.362-3.973-.757-7.947-1.06-11.974-1.135-38.874-.386-76.416 5.806-111.253 23.454-46.437 23.544-90.552 60.854-107.66 111.29-8.025 23.58-9.781 49.14-4.191 73.462 3.592 15.662 9.144 30.036 15.948 43.427 16.464 32.144 41.067 58.838 68.852 81.633 7.964 6.569 16.343 12.058 24.681 17.52l.629.412c16.273 10.667 33.038 19.745 50.346 26.706 13.227 5.296 26.507 9.911 40.005 13.618 7.294 1.967 14.533 3.783 21.881 5.069a402.91 402.91 0 0 0 13.226 2.27c5.007.757 10.069 1.438 15.077 1.967 4.245.454 8.545.908 12.79 1.135.742.045 1.485.092 2.228.139 5.419.341 10.87.684 16.278.617 7.131-.075 14.26-.378 21.391-.908 9.416-.681 18.778-1.512 28.139-2.95 6.859-1.059 13.662-2.346 20.412-4.01 10.286-2.497 20.465-5.675 30.588-9.306 16.002-5.749 31.732-12.785 46.972-21.713 8.981-5.296 17.635-11.424 26.29-17.628 3.863-2.8 7.674-5.674 11.103-9.457.33-.402.724-.717 1.132-1.044.13-.104.261-.208.392-.318 7.402-6.052 14.423-12.71 21.064-20.201 8.654-9.91 16.219-21.183 22.152-34.499 2.559-5.674 4.735-11.575 6.26-17.93 2.231-9.155 3.047-18.385 1.959-27.918-.099-.892-.209-1.801-.32-2.719a228.816 228.816 0 0 1-.388-3.333c-.272-2.724.381-4.917 1.96-6.657 1.361-1.514 2.775-2.951 4.3-4.086 2.449-1.816 5.116-2.345 7.838-1.589 7.946 2.194 15.893 4.388 23.785 6.658a2510.59 2510.59 0 0 1 22.425 6.734c2.231.68 4.299.378 6.259-1.362a177.318 177.318 0 0 1 6.967-5.675 33501.831 33501.831 0 0 1 38.049-29.645c2.203-1.716 4.409-3.431 6.613-5.147l.994-.773 6.214-4.835a4.06 4.06 0 0 1 .589-.372c.566-.315 1.138-.634 1.1-1.52 0-.621-.546-.947-1.072-1.26-.179-.108-.356-.213-.508-.329-2.517-2.02-5.034-4.038-7.55-6.055l-.901-.722-4.51-3.614-.787-.631-.332-.266c-10.761-8.623-21.513-17.242-32.238-25.935-17.435-14.073-34.838-28.226-52.238-42.38-27.035-21.989-54.068-43.977-81.222-65.657-17.819-14.215-35.549-28.614-53.289-43.022a13872.874 13872.874 0 0 0-30.368-24.615 6694.134 6694.134 0 0 1-69.016-56.439c-2.449-2.043-4.953-4.01-7.566-5.675-1.415-.908-2.775-1.059-4.245-.075Zm15.167-16.957c-2.678-1.714-6.839-3.706-12.203-3.923-5.667-.229-10.542 1.604-14.241 4.08l-.08.054c-.594.401-1.174.771-2.006 1.303l-.607.387a92.76 92.76 0 0 0-3.791 2.532c-3.765 2.617-7.26 5.093-10.674 7.512-4.73 3.35-9.304 6.591-14.226 9.945l-.036.025c-10.993 7.528-22.078 15.302-33.12 23.573-.368.239-1.197.783-2.133 1.527a23.666 23.666 0 0 0-6.666 8.34l-.413 16.552c-.062-.147-.102-.256-.102-.256s.032.09.112.326l.034.102c.064.19.167.494.267.781.131.376.304.861.513 1.402l.163.405 7.02 17.023.036.084c.156.376.314.752.472 1.128l-.339-.007-.18-.002c-41.152-.409-82.121 6.139-120.617 25.64l-.007.004c-48.825 24.755-98.171 65.363-117.667 122.816m330.491-241.353c3.672 2.342 6.93 4.934 9.606 7.166a6690.12 6690.12 0 0 0 68.78 56.247l.01.007c10.236 8.265 20.394 16.515 30.523 24.741 17.684 14.362 35.279 28.651 53.041 42.821l.006.006c27.196 21.713 54.388 43.83 81.498 65.88 17.39 14.144 34.744 28.26 52.045 42.224l.032.025c11.052 8.957 22.111 17.819 33.229 26.728 4.036 3.234 8.08 6.475 12.131 9.728.331.212.763.502 1.249.86 2.228 1.646 8.608 7.062 8.777 16.808a21.527 21.527 0 0 1-2.606 10.781 21.635 21.635 0 0 1-6.212 7.096 25.03 25.03 0 0 1-1.566 1.055 39782.638 39782.638 0 0 0-50.953 39.686l-.047.036a157.6 157.6 0 0 0-6.093 4.956c-3.249 2.843-7.386 5.174-12.353 6.167-4.981.996-9.507.388-13.126-.716a2477.018 2477.018 0 0 0-22.169-6.657 1426.588 1426.588 0 0 0-10.855-3.072c.39 9.699-.735 19.034-2.927 28.044-1.88 7.827-4.521 14.921-7.463 21.45-6.83 15.317-15.535 28.26-25.371 39.525l-.101.115c-7.381 8.324-15.171 15.71-23.338 22.393l-.048.04c-4.767 5.101-9.79 8.806-13.578 11.551l-.081.058c-8.616 6.176-17.945 12.801-27.802 18.613l-.051.03c-16.488 9.659-33.383 17.198-50.363 23.299l-.01.004c-10.63 3.813-21.496 7.215-32.615 9.915-7.45 1.836-14.849 3.228-22.137 4.354l-.017.002c-10.156 1.56-20.143 2.438-29.728 3.131-7.553.561-15.109.881-22.665.962-6.22.074-12.476-.321-17.811-.659l-2.075-.13c-4.832-.261-9.617-.771-13.768-1.215-5.382-.569-10.75-1.294-15.965-2.081l-.066-.01a420.786 420.786 0 0 1-13.761-2.36c-8.212-1.444-16.106-3.439-23.532-5.441l-.089-.024c-14.365-3.945-28.376-8.823-42.172-14.347l-.029-.012c-18.756-7.543-36.706-17.292-53.895-28.559l-.912-.598c-8.136-5.329-17.331-11.35-26.165-18.635-29.16-23.927-55.893-52.676-74.002-88.029l-.031-.06c-7.445-14.654-13.618-30.58-17.627-48.061-6.483-28.217-4.395-57.595 4.757-84.485m496.971 221.928.506-.585c-.174.211-.343.406-.506.585ZM855.79 572.525c-.087.071-.175.14-.256.207l.256-.207Zm-2.187 1.524c-.196.113-.27.147-.162.088l.067-.036.095-.052Zm.473-37.711Zm-20.391 2.486c.221-.129.269-.149.018-.01l-.018.01Zm-.463 32.192c.14.086.169.1.017.01l-.017-.01Zm-397.956-71.697-.114.032c-7.137 1.957-13.51 4.005-19.483 6.708-9.861 4.568-18.879 10.361-27.025 18.223l-.127.122c-4.201 3.985-7.833 8.33-10.815 13.421-3.385 5.801-5.746 11.476-6.901 17.856l-.01.055c-.825 4.483-1.098 6.998-.953 9.164l.002.032c.409 6.271 1.72 12.305 3.775 18.223.353 1.005.818 2.058 1.445 3.25.407.751.89 1.56 1.589 2.7l.323.526c.604.981 1.389 2.256 2.141 3.559 2.236 3.777 4.845 7.19 7.846 10.511 7.43 8.096 14.861 14.377 22.58 18.913.203.115.344.188.608.326.244.128.594.31 1.195.631.997.532 2.605 1.41 4.326 2.599l.157.11c1.262.888 2.731 1.7 4.797 2.634 9.894 4.445 19.765 7.578 29.796 9.424 6.847 1.225 13.95 1.771 20.991 2.057 6.479-.032 14.631-.898 22.517-2.191l.03-.005c6.802-1.105 13.613-2.969 20.507-5.542l.045-.017c2.037-.755 3.573-1.538 5.913-2.731 1.372-.699 3.018-1.539 5.204-2.596 8.648-4.249 16.571-9.8 23.786-17.379l.041-.042c1.831-1.913 3.344-3.648 4.697-5.465l.06-.081c.111-.146.253-.34.424-.573.714-.971 1.924-2.617 3.375-4.344a31.9 31.9 0 0 1 1.454-2.926 48.31 48.31 0 0 1 1.069-1.808l.004-.007c.282-.457.334-.542.381-.624l.069-.118c.178-.303.478-.885 1.045-2.092 1.438-3.102 2.574-6.872 3.757-11.977l.008-.035c1.488-6.368 1.604-12.887.389-19.678-1.775-9.67-5.338-17.446-10.162-23.849-6.848-9.023-14.612-16.02-23.116-21.587l-.054-.035c-8.004-5.276-16.294-9.248-24.796-12.033-6.494-2.092-11.68-3.662-16.634-4.507-11.097-1.835-21.885-2.254-34.374-2.254-6.479 0-14.343 1.334-21.782 3.42Zm59.514-21.11c6.585 1.118 13.063 3.131 19.541 5.218 10.256 3.354 20.188 8.125 29.689 14.387 10.364 6.784 19.864 15.356 28.177 26.315 6.801 9.02 11.606 19.754 13.927 32.427 1.674 9.318 1.566 18.636-.594 27.879-1.295 5.592-2.807 10.959-5.128 15.954-.593 1.267-1.242 2.609-1.943 3.801-.193.334-.392.656-.589.976-.685 1.112-1.355 2.199-1.732 3.646-.216.82-.756 1.565-1.296 2.162-1.327 1.344-2.474 2.889-3.646 4.47-.258.348-.518.697-.78 1.046-1.997 2.684-4.102 5.07-6.316 7.381-9.014 9.467-18.946 16.399-29.581 21.617-1.262.61-2.514 1.246-3.765 1.88-3.032 1.538-6.057 3.072-9.19 4.233-7.989 2.982-16.086 5.218-24.345 6.56-8.637 1.416-18.137 2.46-26.18 2.46-7.611-.298-15.925-.895-24.237-2.386-11.768-2.161-23.212-5.814-34.494-10.883-2.806-1.268-5.505-2.684-8.15-4.547-.984-.679-2.036-1.232-3.081-1.782-.562-.295-1.123-.589-1.669-.902-9.933-5.815-18.947-13.567-27.422-22.811-3.779-4.175-7.287-8.722-10.365-13.94a118.432 118.432 0 0 0-1.853-3.081c-.877-1.425-1.753-2.849-2.573-4.373-1.026-1.939-1.943-3.951-2.699-6.113-2.591-7.455-4.318-15.282-4.858-23.556-.324-4.846.378-9.468 1.242-14.164 1.673-9.243 5.073-17.146 9.338-24.451 4.103-7.007 9.015-12.821 14.359-17.891 10.04-9.691 21.052-16.698 32.658-22.065 7.395-3.354 14.952-5.74 22.563-7.827 8.589-2.41 18.371-4.175 27.26-4.175 12.911 0 24.999.425 37.732 2.535Z" clip-rule="evenodd"/><path fill="#FAFAFA" d="M503.117 264.85c2.613 1.665 5.117 3.632 7.566 5.675a6694.134 6694.134 0 0 0 69.016 56.439c27.922 22.546 55.681 45.319 83.657 67.637 44.632 35.634 88.937 72.101 133.46 108.037 15.403 12.484 30.86 24.816 46.318 37.223.598.455 1.58.757 1.58 1.589.053 1.211-1.036 1.362-1.689 1.892-17.308 13.467-34.616 26.934-51.87 40.4a177.318 177.318 0 0 0-6.967 5.675c-1.96 1.74-4.028 2.042-6.259 1.362a2510.59 2510.59 0 0 0-22.425-6.734c-7.892-2.27-15.839-4.464-23.785-6.658-2.722-.756-5.389-.227-7.838 1.589-1.525 1.135-2.939 2.572-4.3 4.086-1.579 1.74-2.232 3.933-1.96 6.657.218 2.043.49 4.086.708 6.052 1.088 9.533.272 18.763-1.959 27.918-1.525 6.355-3.701 12.256-6.26 17.931-5.933 13.315-13.498 24.588-22.152 34.498-6.641 7.491-13.662 14.149-21.064 20.201-.544.454-1.089.832-1.524 1.362-3.429 3.783-7.24 6.657-11.103 9.457-8.655 6.204-17.309 12.332-26.29 17.628-15.24 8.928-30.97 15.964-46.972 21.713-10.123 3.631-20.302 6.809-30.588 9.306-6.75 1.664-13.553 2.951-20.412 4.01-9.361 1.438-18.723 2.269-28.139 2.95-7.131.53-14.26.833-21.391.908-6.15.076-12.355-.378-18.506-.756-4.245-.227-8.545-.681-12.79-1.135-5.008-.529-10.07-1.21-15.077-1.967a402.91 402.91 0 0 1-13.226-2.27c-7.348-1.286-14.587-3.102-21.881-5.069-13.498-3.707-26.778-8.322-40.005-13.618-17.308-6.961-34.073-16.039-50.346-26.706-8.546-5.599-17.145-11.198-25.31-17.932-27.785-22.795-52.388-49.489-68.852-81.633-6.804-13.391-12.356-27.765-15.948-43.427-5.59-24.322-3.834-49.882 4.191-73.462 17.108-50.436 61.223-87.746 107.66-111.29 34.837-17.648 72.379-23.84 111.253-23.454 4.027.075 8.001.378 11.974 1.135 2.395.454 4.681-.076 6.913-1.362 2.068-1.286 3.973-3.027 5.769-4.993 1.306-1.362 1.742-3.253 1.524-5.448-.163-1.588-.653-3.026-1.252-4.388-2.013-4.691-4.027-9.381-5.987-14.072l-7.021-17.022c-.381-.984-.654-1.968-1.035-2.876.545-1.134 1.415-1.513 2.178-2.042 10.885-8.171 21.88-15.888 32.929-23.454 8.437-5.75 16.764-11.802 25.146-17.628 2.014-1.437 4.082-2.648 6.096-4.009 1.47-.984 2.83-.833 4.245.075Zm-46.069 197.341c-8.889 0-18.671 1.765-27.26 4.175-7.611 2.087-15.168 4.473-22.563 7.827-11.606 5.367-22.618 12.374-32.658 22.065-5.344 5.07-10.256 10.884-14.359 17.891-4.265 7.305-7.665 15.208-9.338 24.451-.864 4.696-1.566 9.318-1.242 14.164.54 8.274 2.267 16.101 4.858 23.556.756 2.162 1.673 4.174 2.699 6.113 1.404 2.609 2.969 4.919 4.426 7.454 3.078 5.218 6.586 9.765 10.365 13.94 8.475 9.244 17.489 16.996 27.422 22.811 1.565.894 3.238 1.64 4.75 2.684 2.645 1.863 5.344 3.279 8.15 4.547 11.282 5.069 22.726 8.722 34.494 10.883 8.312 1.491 16.626 2.088 24.237 2.386 8.043 0 17.543-1.044 26.18-2.46 8.259-1.342 16.356-3.578 24.345-6.56 4.427-1.64 8.637-4.025 12.955-6.113 10.635-5.218 20.567-12.15 29.581-21.617 2.214-2.311 4.319-4.697 6.316-7.381 1.457-1.938 2.807-3.876 4.426-5.516.54-.597 1.08-1.342 1.296-2.162.486-1.863 1.457-3.131 2.321-4.622.701-1.192 1.35-2.534 1.943-3.801 2.321-4.995 3.833-10.362 5.128-15.954 2.16-9.243 2.268-18.561.594-27.879-2.321-12.673-7.126-23.407-13.927-32.427-8.313-10.959-17.813-19.531-28.177-26.315-9.501-6.262-19.433-11.033-29.689-14.387-6.478-2.087-12.956-4.1-19.541-5.218-12.733-2.11-24.821-2.535-37.732-2.535Z"/><path fill="#1F1F1F" fill-rule="evenodd" d="M498.872 264.775c-.837.565-1.683 1.105-2.531 1.646-1.192.761-2.388 1.523-3.565 2.363a1448.009 1448.009 0 0 0-10.331 7.271c-4.923 3.485-9.85 6.974-14.815 10.357-11.049 7.566-22.044 15.283-32.929 23.454-.142.098-.288.192-.434.286-.641.411-1.301.833-1.744 1.756.211.502.389 1.027.569 1.562.146.433.295.873.466 1.314l7.021 17.022c1.96 4.691 3.974 9.381 5.987 14.072.599 1.362 1.089 2.8 1.252 4.388.218 2.195-.218 4.086-1.524 5.448-1.796 1.966-3.701 3.707-5.769 4.993-2.232 1.286-4.518 1.816-6.913 1.362-3.973-.757-7.947-1.06-11.974-1.135-38.874-.386-76.416 5.806-111.253 23.454-46.437 23.544-90.552 60.854-107.66 111.29-8.025 23.58-9.781 49.14-4.191 73.462 3.592 15.662 9.144 30.036 15.948 43.427 16.464 32.144 41.067 58.838 68.852 81.633 7.964 6.569 16.343 12.058 24.681 17.52l.629.412c16.273 10.667 33.038 19.745 50.346 26.706 13.227 5.296 26.507 9.911 40.005 13.618 7.294 1.967 14.533 3.783 21.881 5.069a402.91 402.91 0 0 0 13.226 2.27c5.007.757 10.069 1.438 15.077 1.967 4.245.454 8.545.908 12.79 1.135.742.045 1.485.092 2.228.139 5.419.341 10.87.684 16.278.617 7.131-.075 14.26-.378 21.391-.908 9.416-.681 18.778-1.512 28.139-2.95 6.859-1.059 13.662-2.346 20.412-4.01 10.286-2.497 20.465-5.675 30.588-9.306 16.002-5.749 31.732-12.785 46.972-21.713 8.981-5.296 17.635-11.424 26.29-17.628 3.863-2.8 7.674-5.674 11.103-9.457.33-.402.724-.717 1.132-1.044.13-.104.261-.208.392-.318 7.402-6.052 14.423-12.71 21.064-20.201 8.654-9.91 16.219-21.183 22.152-34.498 2.559-5.675 4.735-11.576 6.26-17.931 2.231-9.155 3.047-18.385 1.959-27.918-.099-.892-.209-1.801-.32-2.719a228.816 228.816 0 0 1-.388-3.333c-.272-2.724.381-4.917 1.96-6.657 1.361-1.514 2.775-2.951 4.3-4.086 2.449-1.816 5.116-2.345 7.838-1.589 7.946 2.194 15.893 4.388 23.785 6.658a2510.59 2510.59 0 0 1 22.425 6.734c2.231.68 4.299.378 6.259-1.362a177.318 177.318 0 0 1 6.967-5.675 33501.831 33501.831 0 0 1 38.049-29.645c2.203-1.716 4.409-3.431 6.613-5.147l.994-.773 6.214-4.835c.175-.142.382-.257.589-.372.566-.315 1.138-.634 1.1-1.52 0-.621-.546-.947-1.072-1.26-.179-.108-.356-.213-.508-.329-2.517-2.02-5.034-4.038-7.55-6.055l-.901-.722-4.51-3.614-.787-.631-.332-.266c-10.761-8.623-21.513-17.242-32.238-25.935-17.435-14.073-34.838-28.226-52.238-42.38-27.035-21.989-54.068-43.977-81.222-65.657-17.819-14.215-35.549-28.614-53.289-43.022a13872.874 13872.874 0 0 0-30.368-24.615 6694.134 6694.134 0 0 1-69.016-56.439c-2.449-2.043-4.953-4.01-7.566-5.675-1.415-.908-2.775-1.059-4.245-.075Zm15.167-16.957c-2.678-1.714-6.839-3.706-12.203-3.923-5.667-.229-10.542 1.604-14.241 4.08l-.08.054c-.594.401-1.174.771-2.006 1.303l-.607.387a92.76 92.76 0 0 0-3.791 2.532c-3.765 2.617-7.26 5.093-10.674 7.512-4.73 3.35-9.304 6.591-14.226 9.945l-.036.025c-10.993 7.528-22.078 15.302-33.12 23.573-.368.239-1.197.783-2.133 1.527a23.666 23.666 0 0 0-6.666 8.34l-.413 16.552c-.062-.147-.102-.256-.102-.256s.032.09.112.326l.034.102c.064.19.167.494.267.781.131.376.304.861.513 1.402l.163.405 7.02 17.023.036.084c.156.376.314.752.472 1.128l-.339-.007-.18-.002c-41.152-.409-82.121 6.139-120.617 25.64l-.007.004c-48.825 24.755-98.171 65.363-117.667 122.816m330.491-241.353c3.672 2.342 6.93 4.935 9.606 7.166a6690.12 6690.12 0 0 0 68.78 56.247l.01.007c10.236 8.265 20.394 16.515 30.523 24.741 17.684 14.362 35.279 28.651 53.041 42.821l.006.006c27.196 21.713 54.388 43.83 81.498 65.88 17.39 14.144 34.744 28.26 52.045 42.224l.032.025c11.052 8.957 22.111 17.819 33.229 26.728 4.036 3.234 8.08 6.475 12.131 9.728.331.212.763.502 1.249.86 2.228 1.646 8.608 7.062 8.777 16.808a21.527 21.527 0 0 1-2.606 10.781 21.635 21.635 0 0 1-6.212 7.096 25.03 25.03 0 0 1-1.566 1.055 39782.638 39782.638 0 0 0-50.953 39.686l-.047.036a157.6 157.6 0 0 0-6.093 4.956c-3.249 2.843-7.386 5.174-12.353 6.167-4.981.996-9.507.388-13.126-.716a2477.018 2477.018 0 0 0-22.169-6.657 1426.588 1426.588 0 0 0-10.855-3.072c.39 9.699-.735 19.034-2.927 28.044-1.88 7.827-4.521 14.921-7.463 21.45-6.83 15.317-15.535 28.26-25.371 39.525l-.101.115c-7.381 8.324-15.171 15.71-23.338 22.393l-.048.04c-4.767 5.101-9.79 8.806-13.578 11.551l-.081.058c-8.616 6.176-17.945 12.801-27.802 18.613l-.051.03c-16.488 9.659-33.383 17.198-50.363 23.299l-.01.004c-10.63 3.813-21.496 7.215-32.615 9.915-7.45 1.836-14.849 3.228-22.137 4.354l-.017.002c-10.156 1.56-20.143 2.438-29.728 3.131-7.553.561-15.109.881-22.665.962-6.22.074-12.476-.321-17.811-.659l-2.075-.13c-4.832-.261-9.617-.771-13.768-1.215-5.382-.569-10.75-1.294-15.965-2.081l-.066-.01a420.786 420.786 0 0 1-13.761-2.36c-8.212-1.444-16.106-3.439-23.532-5.441l-.089-.024c-14.365-3.945-28.376-8.823-42.172-14.347l-.029-.012c-18.756-7.543-36.706-17.292-53.895-28.559l-.912-.598c-8.136-5.329-17.331-11.35-26.165-18.635-29.16-23.927-55.893-52.676-74.002-88.029l-.031-.06c-7.445-14.654-13.618-30.58-17.627-48.061-6.483-28.217-4.395-57.595 4.757-84.485m496.971 221.928.506-.585c-.174.211-.343.406-.506.585ZM855.79 559.042c-.087.071-.175.14-.256.207l.256-.207Zm-2.187 1.524c-.196.113-.27.147-.162.088l.067-.036.095-.052Zm.473-37.711Zm-20.391 2.487c.221-.13.269-.15.018-.011l-.018.011Zm-.463 32.191c.14.086.169.1.017.01l-.017-.01Zm-397.956-71.697-.114.032c-7.137 1.957-13.51 4.005-19.483 6.708-9.861 4.568-18.879 10.361-27.025 18.223l-.127.122c-4.201 3.985-7.833 8.33-10.815 13.421-3.385 5.801-5.746 11.476-6.901 17.856l-.01.055c-.825 4.483-1.098 6.998-.953 9.164l.002.032c.409 6.271 1.72 12.305 3.775 18.223.353 1.005.818 2.058 1.445 3.25.407.751.89 1.56 1.589 2.7l.323.526c.604.981 1.389 2.256 2.141 3.559 2.236 3.777 4.845 7.19 7.846 10.511 7.43 8.096 14.861 14.377 22.58 18.913.203.115.344.188.608.326.244.128.594.31 1.195.631.997.532 2.605 1.41 4.326 2.599l.157.11c1.262.888 2.731 1.7 4.797 2.634 9.894 4.445 19.765 7.578 29.796 9.424 6.847 1.225 13.95 1.771 20.991 2.057 6.479-.032 14.631-.898 22.517-2.191l.03-.005c6.802-1.105 13.613-2.969 20.507-5.542l.045-.017c2.037-.755 3.573-1.538 5.913-2.731 1.372-.699 3.018-1.539 5.204-2.596 8.648-4.249 16.571-9.8 23.786-17.379l.041-.042c1.831-1.913 3.344-3.648 4.697-5.465l.06-.081c.111-.146.253-.34.424-.573.714-.971 1.924-2.617 3.375-4.344a31.9 31.9 0 0 1 1.454-2.926 48.31 48.31 0 0 1 1.069-1.808l.004-.007c.282-.457.334-.542.381-.624l.069-.118c.178-.303.478-.885 1.045-2.092 1.438-3.102 2.574-6.872 3.757-11.977l.008-.035c1.488-6.368 1.604-12.887.389-19.678-1.775-9.67-5.338-17.446-10.162-23.849-6.848-9.023-14.612-16.02-23.116-21.587l-.054-.035c-8.004-5.276-16.294-9.248-24.796-12.033-6.494-2.092-11.68-3.662-16.634-4.507-11.097-1.835-21.885-2.254-34.374-2.254-6.479 0-14.343 1.334-21.782 3.42Zm59.514-21.11c6.585 1.118 13.063 3.131 19.541 5.218 10.256 3.354 20.188 8.125 29.689 14.387 10.364 6.784 19.864 15.356 28.177 26.315 6.801 9.02 11.606 19.754 13.927 32.427 1.674 9.318 1.566 18.636-.594 27.879-1.295 5.592-2.807 10.959-5.128 15.954-.593 1.267-1.242 2.609-1.943 3.801-.193.334-.392.656-.589.976-.685 1.112-1.355 2.199-1.732 3.646-.216.82-.756 1.565-1.296 2.162-1.327 1.344-2.474 2.889-3.646 4.47-.258.348-.518.697-.78 1.046-1.997 2.684-4.102 5.07-6.316 7.381-9.014 9.467-18.946 16.399-29.581 21.617-1.262.61-2.514 1.246-3.765 1.88-3.032 1.538-6.057 3.072-9.19 4.233-7.989 2.982-16.086 5.218-24.345 6.56-8.637 1.416-18.137 2.46-26.18 2.46-7.611-.298-15.925-.895-24.237-2.386-11.768-2.161-23.212-5.814-34.494-10.883-2.806-1.268-5.505-2.684-8.15-4.547-.984-.679-2.036-1.232-3.081-1.782-.562-.295-1.123-.589-1.669-.902-9.933-5.815-18.947-13.567-27.422-22.811-3.779-4.175-7.287-8.722-10.365-13.94-.605-1.053-1.229-2.067-1.853-3.081-.877-1.425-1.753-2.849-2.573-4.373-1.026-1.939-1.943-3.951-2.699-6.113-2.591-7.455-4.318-15.282-4.858-23.556-.324-4.846.378-9.468 1.242-14.164 1.673-9.243 5.073-17.146 9.338-24.451 4.103-7.007 9.015-12.821 14.359-17.891 10.04-9.691 21.052-16.698 32.658-22.065 7.395-3.354 14.952-5.74 22.563-7.827 8.589-2.41 18.371-4.175 27.26-4.175 12.911 0 24.999.425 37.732 2.535Z" clip-rule="evenodd"/><path fill="#FAFAFA" d="M503.117 237.884c2.613 1.665 5.117 3.632 7.566 5.675a6694.134 6694.134 0 0 0 69.016 56.439c27.922 22.546 55.681 45.319 83.657 67.637 44.632 35.634 88.937 72.101 133.46 108.037 15.403 12.484 30.86 24.816 46.318 37.223.598.455 1.58.757 1.58 1.589.053 1.211-1.036 1.362-1.689 1.892-17.308 13.467-34.616 26.934-51.87 40.4a177.318 177.318 0 0 0-6.967 5.675c-1.96 1.74-4.028 2.042-6.259 1.362a2510.59 2510.59 0 0 0-22.425-6.734c-7.892-2.27-15.839-4.464-23.785-6.658-2.722-.756-5.389-.227-7.838 1.589-1.525 1.135-2.939 2.572-4.3 4.086-1.579 1.74-2.232 3.933-1.96 6.657.218 2.043.49 4.086.708 6.052 1.088 9.533.272 18.763-1.959 27.918-1.525 6.355-3.701 12.256-6.26 17.931-5.933 13.315-13.498 24.588-22.152 34.498-6.641 7.491-13.662 14.149-21.064 20.201-.544.454-1.089.832-1.524 1.362-3.429 3.783-7.24 6.657-11.103 9.457-8.655 6.204-17.309 12.332-26.29 17.628-15.24 8.928-30.97 15.964-46.972 21.713-10.123 3.631-20.302 6.809-30.588 9.306-6.75 1.664-13.553 2.951-20.412 4.01-9.361 1.438-18.723 2.269-28.139 2.95-7.131.53-14.26.833-21.391.908-6.15.076-12.355-.378-18.506-.756-4.245-.227-8.545-.681-12.79-1.135-5.008-.529-10.07-1.21-15.077-1.967a402.91 402.91 0 0 1-13.226-2.27c-7.348-1.286-14.587-3.102-21.881-5.069-13.498-3.707-26.778-8.322-40.005-13.618-17.308-6.961-34.073-16.039-50.346-26.706-8.546-5.599-17.145-11.198-25.31-17.932-27.785-22.795-52.388-49.489-68.852-81.633-6.804-13.391-12.356-27.765-15.948-43.427-5.59-24.322-3.834-49.882 4.191-73.462 17.108-50.436 61.223-87.746 107.66-111.29 34.837-17.648 72.379-23.84 111.253-23.454 4.027.075 8.001.378 11.974 1.135 2.395.454 4.681-.076 6.913-1.362 2.068-1.286 3.973-3.027 5.769-4.993 1.306-1.362 1.742-3.253 1.524-5.448-.163-1.588-.653-3.026-1.252-4.388-2.013-4.691-4.027-9.381-5.987-14.072l-7.021-17.022c-.381-.984-.654-1.968-1.035-2.876.545-1.134 1.415-1.513 2.178-2.042 10.885-8.171 21.88-15.888 32.929-23.454 8.437-5.75 16.764-11.802 25.146-17.628 2.014-1.437 4.082-2.648 6.096-4.009 1.47-.984 2.83-.833 4.245.075Zm-46.069 197.341c-8.889 0-18.671 1.765-27.26 4.175-7.611 2.087-15.168 4.473-22.563 7.827-11.606 5.367-22.618 12.374-32.658 22.065-5.344 5.07-10.256 10.884-14.359 17.891-4.265 7.305-7.665 15.208-9.338 24.451-.864 4.696-1.566 9.318-1.242 14.164.54 8.274 2.267 16.101 4.858 23.556.756 2.162 1.673 4.174 2.699 6.113 1.404 2.609 2.969 4.92 4.426 7.454 3.078 5.218 6.586 9.765 10.365 13.94 8.475 9.244 17.489 16.996 27.422 22.811 1.565.894 3.238 1.64 4.75 2.684 2.645 1.863 5.344 3.279 8.15 4.547 11.282 5.069 22.726 8.722 34.494 10.883 8.312 1.491 16.626 2.088 24.237 2.386 8.043 0 17.543-1.044 26.18-2.46 8.259-1.342 16.356-3.578 24.345-6.56 4.427-1.64 8.637-4.025 12.955-6.113 10.635-5.218 20.567-12.15 29.581-21.617 2.214-2.311 4.319-4.697 6.316-7.381 1.457-1.938 2.807-3.876 4.426-5.516.54-.597 1.08-1.342 1.296-2.162.486-1.863 1.457-3.131 2.321-4.622.701-1.192 1.35-2.534 1.943-3.801 2.321-4.995 3.833-10.362 5.128-15.954 2.16-9.243 2.268-18.561.594-27.879-2.321-12.673-7.126-23.407-13.927-32.427-8.313-10.959-17.813-19.531-28.177-26.315-9.501-6.262-19.433-11.033-29.689-14.387-6.478-2.087-12.956-4.1-19.541-5.218-12.733-2.11-24.821-2.535-37.732-2.535Z"/><path fill="#FAFAFA" fill-rule="evenodd" d="M498.872 237.809c-.837.565-1.683 1.105-2.531 1.646-1.192.761-2.388 1.523-3.565 2.363a1448.009 1448.009 0 0 0-10.331 7.271c-4.923 3.485-9.85 6.974-14.815 10.357-11.049 7.566-22.044 15.283-32.929 23.454-.142.099-.288.192-.434.286-.641.411-1.301.833-1.744 1.756.211.502.389 1.027.569 1.562.146.433.295.873.466 1.314l7.021 17.022c1.96 4.691 3.974 9.381 5.987 14.072.599 1.362 1.089 2.8 1.252 4.388.218 2.195-.218 4.086-1.524 5.448-1.796 1.966-3.701 3.707-5.769 4.993-2.232 1.286-4.518 1.816-6.913 1.362-3.973-.757-7.947-1.06-11.974-1.135-38.874-.386-76.416 5.806-111.253 23.454-46.437 23.544-90.552 60.854-107.66 111.29-8.025 23.58-9.781 49.14-4.191 73.462 3.592 15.662 9.144 30.036 15.948 43.427 16.464 32.144 41.067 58.838 68.852 81.633 7.964 6.569 16.343 12.058 24.681 17.52l.629.412c16.273 10.667 33.038 19.745 50.346 26.706 13.227 5.296 26.507 9.911 40.005 13.618 7.294 1.967 14.533 3.783 21.881 5.069a402.91 402.91 0 0 0 13.226 2.27c5.007.757 10.069 1.438 15.077 1.967 4.245.454 8.545.908 12.79 1.135.742.045 1.485.092 2.228.139 5.419.341 10.87.684 16.278.617 7.131-.075 14.26-.378 21.391-.908 9.416-.681 18.778-1.512 28.139-2.95 6.859-1.059 13.662-2.346 20.412-4.01 10.286-2.497 20.465-5.675 30.588-9.306 16.002-5.749 31.732-12.785 46.972-21.713 8.981-5.296 17.635-11.424 26.29-17.628 3.863-2.8 7.674-5.674 11.103-9.457.33-.402.724-.717 1.132-1.044.13-.104.261-.208.392-.318 7.402-6.052 14.423-12.71 21.064-20.201 8.654-9.91 16.219-21.183 22.152-34.498 2.559-5.675 4.735-11.576 6.26-17.931 2.231-9.155 3.047-18.385 1.959-27.918-.099-.892-.209-1.801-.32-2.719a228.816 228.816 0 0 1-.388-3.333c-.272-2.724.381-4.917 1.96-6.657 1.361-1.514 2.775-2.951 4.3-4.086 2.449-1.816 5.116-2.345 7.838-1.589 7.946 2.194 15.893 4.388 23.785 6.658a2510.59 2510.59 0 0 1 22.425 6.734c2.231.68 4.299.378 6.259-1.362a177.318 177.318 0 0 1 6.967-5.675 33501.831 33501.831 0 0 1 38.049-29.645c2.203-1.716 4.409-3.431 6.613-5.147l.994-.773 6.214-4.835c.175-.142.382-.257.589-.372.566-.315 1.138-.634 1.1-1.52 0-.621-.546-.947-1.072-1.26-.179-.108-.356-.213-.508-.329-2.517-2.02-5.034-4.038-7.55-6.055l-.901-.722-4.51-3.614-.787-.631-.332-.266c-10.761-8.623-21.513-17.242-32.238-25.935-17.435-14.073-34.838-28.226-52.238-42.38-27.035-21.989-54.068-43.977-81.222-65.657-17.819-14.215-35.549-28.614-53.289-43.022a13872.874 13872.874 0 0 0-30.368-24.615 6694.134 6694.134 0 0 1-69.016-56.439c-2.449-2.043-4.953-4.01-7.566-5.675-1.415-.908-2.775-1.059-4.245-.075Zm15.167-16.957c-2.678-1.714-6.839-3.706-12.203-3.923-5.667-.229-10.542 1.604-14.241 4.08l-.08.054c-.594.401-1.174.771-2.006 1.303l-.607.387a92.76 92.76 0 0 0-3.791 2.532c-3.765 2.617-7.26 5.093-10.674 7.512-4.73 3.35-9.304 6.591-14.226 9.945l-.036.025c-10.993 7.528-22.078 15.302-33.12 23.573-.368.239-1.197.783-2.133 1.527a23.666 23.666 0 0 0-6.666 8.34l-.413 16.552a6.449 6.449 0 0 1-.102-.256s.032.09.112.326l.034.102c.064.19.167.494.267.781.131.376.304.861.513 1.402l.163.405 7.02 17.023.036.084c.156.376.314.752.472 1.128a36.81 36.81 0 0 1-.339-.007l-.18-.002c-41.152-.409-82.121 6.139-120.617 25.64l-.007.004c-48.825 24.755-98.171 65.363-117.667 122.816m330.491-241.353c3.672 2.342 6.93 4.935 9.606 7.166a6690.12 6690.12 0 0 0 68.78 56.247l.01.007c10.236 8.265 20.394 16.515 30.523 24.741 17.684 14.362 35.279 28.651 53.041 42.821l.006.006c27.196 21.713 54.388 43.83 81.498 65.88 17.39 14.144 34.744 28.26 52.045 42.224l.032.025c11.052 8.957 22.111 17.819 33.229 26.728 4.036 3.234 8.08 6.475 12.131 9.728.331.212.763.502 1.249.86 2.228 1.646 8.608 7.062 8.777 16.808a21.527 21.527 0 0 1-2.606 10.781 21.635 21.635 0 0 1-6.212 7.096 25.03 25.03 0 0 1-1.566 1.055 40701.403 40701.403 0 0 0-50.953 39.686l-.047.036a157.6 157.6 0 0 0-6.093 4.956c-3.249 2.843-7.386 5.175-12.353 6.168-4.981.995-9.507.387-13.126-.717a2477.018 2477.018 0 0 0-22.169-6.657 1426.588 1426.588 0 0 0-10.855-3.072c.39 9.699-.735 19.034-2.927 28.044-1.88 7.827-4.521 14.921-7.463 21.45-6.83 15.317-15.535 28.26-25.371 39.525l-.101.115c-7.381 8.324-15.171 15.71-23.338 22.393l-.048.04c-4.767 5.101-9.79 8.806-13.578 11.551l-.081.058c-8.616 6.176-17.945 12.801-27.802 18.613l-.051.03c-16.488 9.659-33.383 17.198-50.363 23.299l-.01.004c-10.63 3.813-21.496 7.215-32.615 9.915-7.45 1.836-14.849 3.228-22.137 4.354l-.017.002c-10.156 1.56-20.143 2.438-29.728 3.131-7.553.561-15.109.881-22.665.962-6.22.074-12.476-.321-17.811-.659l-2.075-.13c-4.832-.261-9.617-.771-13.768-1.215-5.382-.569-10.75-1.294-15.965-2.081l-.066-.01a420.786 420.786 0 0 1-13.761-2.36c-8.212-1.444-16.106-3.439-23.532-5.441l-.089-.024c-14.365-3.945-28.376-8.823-42.172-14.347l-.029-.012c-18.756-7.543-36.706-17.292-53.895-28.559l-.912-.598c-8.136-5.329-17.331-11.35-26.165-18.635-29.16-23.926-55.893-52.676-74.002-88.029l-.031-.06c-7.445-14.654-13.618-30.58-17.627-48.061-6.483-28.217-4.395-57.595 4.757-84.485m496.971 221.928.506-.585c-.174.211-.343.406-.506.585ZM855.79 532.076c-.087.071-.175.14-.256.207l.256-.207Zm-2.187 1.524c-.196.113-.27.147-.162.088l.067-.036.095-.052Zm.473-37.711Zm-20.391 2.487c.221-.13.269-.15.018-.011l-.018.011Zm-.463 32.191c.14.086.169.1.017.01l-.017-.01ZM435.266 458.87l-.114.032c-7.137 1.957-13.51 4.005-19.483 6.708-9.861 4.568-18.879 10.361-27.025 18.223l-.127.122c-4.201 3.985-7.833 8.33-10.815 13.421-3.385 5.801-5.746 11.476-6.901 17.856l-.01.055c-.825 4.483-1.098 6.998-.953 9.164l.002.032c.409 6.271 1.72 12.305 3.775 18.223.353 1.005.818 2.058 1.445 3.25.407.751.89 1.56 1.589 2.7l.323.526c.604.981 1.389 2.256 2.141 3.559 2.236 3.777 4.845 7.19 7.846 10.511 7.43 8.096 14.861 14.377 22.58 18.913.203.115.344.188.608.326.244.128.594.31 1.195.631.997.532 2.605 1.411 4.326 2.599l.157.11c1.262.888 2.731 1.7 4.797 2.634 9.894 4.445 19.765 7.578 29.796 9.424 6.847 1.225 13.95 1.771 20.991 2.057 6.479-.032 14.631-.898 22.517-2.191l.03-.005c6.802-1.105 13.613-2.969 20.507-5.542l.045-.017c2.037-.754 3.573-1.538 5.913-2.731 1.372-.699 3.018-1.539 5.204-2.596 8.648-4.249 16.571-9.8 23.786-17.379l.041-.042c1.831-1.913 3.344-3.648 4.697-5.465l.06-.081c.111-.146.253-.34.424-.573.714-.971 1.924-2.617 3.375-4.344a32.03 32.03 0 0 1 1.454-2.926 48.31 48.31 0 0 1 1.069-1.808l.004-.007c.282-.457.334-.542.381-.624l.069-.118c.178-.303.478-.885 1.045-2.092 1.438-3.102 2.574-6.872 3.757-11.977l.008-.035c1.488-6.368 1.604-12.887.389-19.678-1.775-9.67-5.338-17.446-10.162-23.849-6.848-9.022-14.612-16.02-23.116-21.587l-.054-.035c-8.004-5.276-16.294-9.248-24.796-12.033-6.494-2.092-11.68-3.662-16.634-4.507-11.097-1.835-21.885-2.254-34.374-2.254-6.479 0-14.343 1.334-21.782 3.42Zm59.514-21.11c6.585 1.118 13.063 3.131 19.541 5.218 10.256 3.354 20.188 8.125 29.689 14.387 10.364 6.784 19.864 15.356 28.177 26.315 6.801 9.02 11.606 19.754 13.927 32.427 1.674 9.318 1.566 18.636-.594 27.879-1.295 5.592-2.807 10.959-5.128 15.954-.593 1.267-1.242 2.609-1.943 3.801-.193.334-.392.656-.589.976-.685 1.112-1.355 2.199-1.732 3.646-.216.82-.756 1.565-1.296 2.162-1.327 1.344-2.474 2.889-3.646 4.47-.258.348-.518.697-.78 1.046-1.997 2.684-4.102 5.07-6.316 7.381-9.014 9.467-18.946 16.399-29.581 21.617-1.262.61-2.514 1.246-3.765 1.88-3.032 1.538-6.057 3.072-9.19 4.233-7.989 2.982-16.086 5.218-24.345 6.56-8.637 1.416-18.137 2.46-26.18 2.46-7.611-.298-15.925-.895-24.237-2.386-11.768-2.161-23.212-5.814-34.494-10.883-2.806-1.268-5.505-2.684-8.15-4.547-.984-.679-2.036-1.232-3.081-1.782-.562-.295-1.123-.589-1.669-.902-9.933-5.815-18.947-13.567-27.422-22.811-3.779-4.175-7.287-8.722-10.365-13.94a118.432 118.432 0 0 0-1.853-3.081c-.877-1.425-1.753-2.849-2.573-4.373-1.026-1.939-1.943-3.951-2.699-6.113-2.591-7.455-4.318-15.282-4.858-23.556-.324-4.846.378-9.468 1.242-14.164 1.673-9.243 5.073-17.146 9.338-24.451 4.103-7.007 9.015-12.821 14.359-17.891 10.04-9.691 21.052-16.698 32.658-22.065 7.395-3.354 14.952-5.74 22.563-7.827 8.589-2.41 18.371-4.175 27.26-4.175 12.911 0 24.999.425 37.732 2.535Z" clip-rule="evenodd"/><path fill="#FAFAFA" d="M503.117 224.401c2.613 1.665 5.117 3.632 7.566 5.675a6694.134 6694.134 0 0 0 69.016 56.439c27.922 22.546 55.681 45.319 83.657 67.637 44.632 35.634 88.937 72.101 133.46 108.037 15.403 12.484 30.86 24.816 46.318 37.223.598.455 1.58.757 1.58 1.589.053 1.211-1.036 1.362-1.689 1.892-17.308 13.467-34.616 26.934-51.87 40.4a177.318 177.318 0 0 0-6.967 5.675c-1.96 1.74-4.028 2.042-6.259 1.362a2510.59 2510.59 0 0 0-22.425-6.734c-7.892-2.27-15.839-4.464-23.785-6.658-2.722-.756-5.389-.227-7.838 1.589-1.525 1.135-2.939 2.572-4.3 4.086-1.579 1.74-2.232 3.933-1.96 6.657.218 2.043.49 4.086.708 6.052 1.088 9.533.272 18.763-1.959 27.918-1.525 6.355-3.701 12.256-6.26 17.931-5.933 13.315-13.498 24.588-22.152 34.498-6.641 7.491-13.662 14.149-21.064 20.201-.544.454-1.089.832-1.524 1.362-3.429 3.783-7.24 6.657-11.103 9.457-8.655 6.204-17.309 12.332-26.29 17.628-15.24 8.928-30.97 15.964-46.972 21.714-10.123 3.63-20.302 6.808-30.588 9.305-6.75 1.664-13.553 2.951-20.412 4.01-9.361 1.438-18.723 2.269-28.139 2.95-7.131.53-14.26.833-21.391.908-6.15.076-12.355-.378-18.506-.756-4.245-.227-8.545-.681-12.79-1.135-5.008-.529-10.07-1.21-15.077-1.967a402.91 402.91 0 0 1-13.226-2.27c-7.348-1.286-14.587-3.102-21.881-5.068-13.498-3.708-26.778-8.323-40.005-13.619-17.308-6.961-34.073-16.039-50.346-26.706-8.546-5.599-17.145-11.198-25.31-17.932-27.785-22.795-52.388-49.489-68.852-81.633-6.804-13.391-12.356-27.765-15.948-43.427-5.59-24.322-3.834-49.882 4.191-73.462 17.108-50.436 61.223-87.746 107.66-111.29 34.837-17.648 72.379-23.84 111.253-23.454 4.027.075 8.001.378 11.974 1.135 2.395.454 4.681-.076 6.913-1.362 2.068-1.286 3.973-3.027 5.769-4.993 1.306-1.362 1.742-3.253 1.524-5.448-.163-1.588-.653-3.026-1.252-4.388-2.013-4.691-4.027-9.381-5.987-14.072l-7.021-17.022c-.381-.984-.654-1.968-1.035-2.876.545-1.134 1.415-1.513 2.178-2.042 10.885-8.171 21.88-15.888 32.929-23.454 8.437-5.75 16.764-11.802 25.146-17.628 2.014-1.437 4.082-2.648 6.096-4.009 1.47-.984 2.83-.833 4.245.075Zm-46.069 197.341c-8.889 0-18.671 1.765-27.26 4.175-7.611 2.087-15.168 4.473-22.563 7.827-11.606 5.367-22.618 12.374-32.658 22.065-5.344 5.07-10.256 10.884-14.359 17.891-4.265 7.305-7.665 15.208-9.338 24.451-.864 4.696-1.566 9.318-1.242 14.164.54 8.274 2.267 16.101 4.858 23.556.756 2.162 1.673 4.174 2.699 6.113 1.404 2.609 2.969 4.92 4.426 7.454 3.078 5.218 6.586 9.765 10.365 13.94 8.475 9.244 17.489 16.996 27.422 22.811 1.565.894 3.238 1.64 4.75 2.684 2.645 1.863 5.344 3.279 8.15 4.547 11.282 5.069 22.726 8.722 34.494 10.883 8.312 1.492 16.626 2.088 24.237 2.386 8.043 0 17.543-1.043 26.18-2.46 8.259-1.342 16.356-3.578 24.345-6.56 4.427-1.64 8.637-4.025 12.955-6.112 10.635-5.219 20.567-12.151 29.581-21.618 2.214-2.311 4.319-4.697 6.316-7.381 1.457-1.938 2.807-3.876 4.426-5.516.54-.597 1.08-1.342 1.296-2.162.486-1.863 1.457-3.131 2.321-4.622.701-1.192 1.35-2.534 1.943-3.801 2.321-4.995 3.833-10.362 5.128-15.954 2.16-9.243 2.268-18.561.594-27.879-2.321-12.673-7.126-23.407-13.927-32.427-8.313-10.959-17.813-19.531-28.177-26.315-9.501-6.262-19.433-11.032-29.689-14.387-6.478-2.087-12.956-4.1-19.541-5.218-12.733-2.11-24.821-2.535-37.732-2.535Z"/><path fill="#1F1F1F" fill-rule="evenodd" d="M498.872 224.326c-.837.565-1.683 1.105-2.531 1.646-1.192.761-2.388 1.523-3.565 2.363a1448.009 1448.009 0 0 0-10.331 7.271c-4.923 3.485-9.85 6.974-14.815 10.357-11.049 7.566-22.044 15.283-32.929 23.454-.142.099-.288.192-.434.286-.641.411-1.301.833-1.744 1.756.211.502.389 1.027.569 1.562.146.433.295.873.466 1.314l7.021 17.022c1.96 4.691 3.974 9.381 5.987 14.072.599 1.362 1.089 2.8 1.252 4.388.218 2.195-.218 4.086-1.524 5.448-1.796 1.966-3.701 3.707-5.769 4.993-2.232 1.286-4.518 1.816-6.913 1.362-3.973-.757-7.947-1.06-11.974-1.135-38.874-.386-76.416 5.806-111.253 23.454-46.437 23.544-90.552 60.854-107.66 111.29-8.025 23.58-9.781 49.14-4.191 73.462 3.592 15.662 9.144 30.036 15.948 43.427 16.464 32.144 41.067 58.838 68.852 81.633 7.964 6.569 16.343 12.058 24.681 17.52l.629.412c16.273 10.667 33.038 19.745 50.346 26.706 13.227 5.296 26.507 9.911 40.005 13.619 7.294 1.966 14.533 3.782 21.881 5.068a402.91 402.91 0 0 0 13.226 2.27c5.007.757 10.069 1.438 15.077 1.967 4.245.454 8.545.908 12.79 1.135.742.045 1.485.092 2.228.139 5.419.341 10.87.684 16.278.617 7.131-.075 14.26-.378 21.391-.908 9.416-.681 18.778-1.512 28.139-2.95 6.859-1.059 13.662-2.346 20.412-4.01 10.286-2.497 20.465-5.675 30.588-9.305 16.002-5.75 31.732-12.786 46.972-21.714 8.981-5.296 17.635-11.424 26.29-17.628 3.863-2.8 7.674-5.674 11.103-9.457.33-.402.724-.717 1.132-1.044.13-.104.261-.208.392-.318 7.402-6.052 14.423-12.71 21.064-20.201 8.654-9.91 16.219-21.183 22.152-34.498 2.559-5.675 4.735-11.576 6.26-17.931 2.231-9.155 3.047-18.385 1.959-27.918-.099-.892-.209-1.801-.32-2.719a228.816 228.816 0 0 1-.388-3.333c-.272-2.724.381-4.917 1.96-6.657 1.361-1.514 2.775-2.951 4.3-4.086 2.449-1.816 5.116-2.345 7.838-1.589 7.946 2.194 15.893 4.388 23.785 6.658a2510.59 2510.59 0 0 1 22.425 6.734c2.231.68 4.299.378 6.259-1.362a177.318 177.318 0 0 1 6.967-5.675 33501.831 33501.831 0 0 1 38.049-29.645c2.203-1.716 4.409-3.431 6.613-5.147l.994-.773 6.214-4.835c.175-.142.382-.257.589-.372.566-.315 1.138-.634 1.1-1.52 0-.621-.546-.947-1.072-1.26-.179-.108-.356-.213-.508-.329-2.517-2.02-5.034-4.038-7.55-6.055l-.901-.722-4.51-3.614-.787-.631-.332-.266c-10.761-8.623-21.513-17.242-32.238-25.935-17.435-14.073-34.838-28.226-52.238-42.38-27.035-21.989-54.068-43.977-81.222-65.657-17.819-14.215-35.549-28.614-53.289-43.022a13872.874 13872.874 0 0 0-30.368-24.615 6694.134 6694.134 0 0 1-69.016-56.439c-2.449-2.043-4.953-4.01-7.566-5.675-1.415-.908-2.775-1.059-4.245-.075Zm15.167-16.957c-2.678-1.714-6.839-3.706-12.203-3.923-5.667-.229-10.542 1.604-14.241 4.08l-.08.054c-.594.401-1.174.771-2.006 1.303l-.607.387a92.76 92.76 0 0 0-3.791 2.532c-3.765 2.617-7.26 5.093-10.674 7.512-4.73 3.35-9.304 6.591-14.226 9.945l-.036.025c-10.993 7.528-22.078 15.302-33.12 23.573-.368.239-1.197.783-2.133 1.527a23.666 23.666 0 0 0-6.666 8.34l-.413 16.552a6.449 6.449 0 0 1-.102-.256s.032.09.112.326l.034.102c.064.19.167.494.267.781.131.376.304.861.513 1.402l.163.405 7.02 17.023.036.084c.156.376.314.752.472 1.128a36.81 36.81 0 0 1-.339-.007l-.18-.002c-41.152-.409-82.121 6.139-120.617 25.64l-.007.004c-48.825 24.755-98.171 65.363-117.667 122.816m330.491-241.353c3.672 2.342 6.93 4.935 9.606 7.166a6690.12 6690.12 0 0 0 68.78 56.247l.01.007c10.236 8.265 20.394 16.515 30.523 24.741 17.684 14.362 35.279 28.651 53.041 42.821l.006.006c27.196 21.713 54.388 43.83 81.498 65.88 17.39 14.144 34.744 28.26 52.045 42.224l.032.025c11.052 8.957 22.111 17.819 33.229 26.728 4.036 3.234 8.08 6.475 12.131 9.728.331.212.763.502 1.249.86 2.228 1.646 8.608 7.062 8.777 16.808a21.527 21.527 0 0 1-2.606 10.781 21.635 21.635 0 0 1-6.212 7.096 25.03 25.03 0 0 1-1.566 1.055 40701.403 40701.403 0 0 0-50.953 39.686l-.047.036a157.6 157.6 0 0 0-6.093 4.956c-3.249 2.843-7.386 5.175-12.353 6.168-4.981.995-9.507.387-13.126-.717a2477.018 2477.018 0 0 0-22.169-6.657 1426.588 1426.588 0 0 0-10.855-3.072c.39 9.699-.735 19.034-2.927 28.044-1.88 7.827-4.521 14.921-7.463 21.45-6.83 15.317-15.535 28.26-25.371 39.525l-.101.115c-7.381 8.324-15.171 15.71-23.338 22.393a1.694 1.694 0 0 0-.048.04c-4.767 5.101-9.79 8.806-13.578 11.551l-.081.058c-8.616 6.176-17.945 12.801-27.802 18.613l-.051.03c-16.488 9.659-33.383 17.198-50.363 23.299l-.01.004c-10.63 3.813-21.496 7.215-32.615 9.915-7.45 1.836-14.849 3.228-22.137 4.354l-.017.002c-10.156 1.56-20.143 2.438-29.728 3.131-7.553.561-15.109.881-22.665.962-6.22.074-12.476-.321-17.811-.659l-2.075-.13c-4.832-.261-9.617-.771-13.768-1.215-5.382-.569-10.75-1.294-15.965-2.081l-.066-.01a420.786 420.786 0 0 1-13.761-2.36c-8.212-1.444-16.106-3.439-23.532-5.441l-.089-.024c-14.365-3.945-28.376-8.823-42.172-14.347l-.029-.012c-18.756-7.543-36.706-17.292-53.895-28.559l-.912-.598c-8.136-5.329-17.331-11.35-26.165-18.635-29.16-23.926-55.893-52.676-74.002-88.029l-.031-.06c-7.445-14.654-13.618-30.58-17.627-48.061-6.483-28.217-4.395-57.595 4.757-84.485M680.519 670.65l.506-.585c-.174.211-.343.406-.506.585ZM855.79 518.593c-.087.071-.175.14-.256.207l.256-.207Zm-2.187 1.524c-.196.113-.27.147-.162.088l.067-.036.095-.052Zm.473-37.711Zm-20.391 2.487c.221-.13.269-.15.018-.011l-.018.011Zm-.463 32.191c.14.086.169.1.017.01l-.017-.01Zm-397.956-71.697-.114.032c-7.137 1.957-13.51 4.005-19.483 6.708-9.861 4.568-18.879 10.361-27.025 18.223l-.127.122c-4.201 3.985-7.833 8.33-10.815 13.421-3.385 5.801-5.746 11.476-6.901 17.856l-.01.055c-.825 4.483-1.098 6.998-.953 9.164l.002.032c.409 6.271 1.72 12.305 3.775 18.223.353 1.005.818 2.058 1.445 3.25.407.751.89 1.56 1.589 2.7l.323.526c.604.981 1.389 2.256 2.141 3.559 2.236 3.777 4.845 7.19 7.846 10.511 7.43 8.096 14.861 14.377 22.58 18.913.203.115.344.188.608.326.244.128.594.31 1.195.631.997.532 2.605 1.411 4.326 2.599l.157.11c1.262.888 2.731 1.7 4.797 2.634 9.894 4.445 19.765 7.578 29.796 9.424 6.847 1.225 13.95 1.771 20.991 2.057 6.479-.032 14.631-.898 22.517-2.191l.03-.005c6.802-1.105 13.613-2.969 20.507-5.542l.045-.017c2.037-.754 3.573-1.538 5.913-2.731 1.372-.699 3.018-1.539 5.204-2.596 8.648-4.249 16.571-9.8 23.786-17.379l.041-.042c1.831-1.913 3.344-3.648 4.697-5.465l.06-.081c.111-.146.253-.34.424-.573.714-.971 1.924-2.617 3.375-4.344a32.03 32.03 0 0 1 1.454-2.926 48.31 48.31 0 0 1 1.069-1.808l.004-.007c.282-.457.334-.542.381-.624l.069-.118c.178-.303.478-.885 1.045-2.092 1.438-3.102 2.574-6.872 3.757-11.977l.008-.035c1.488-6.368 1.604-12.887.389-19.678-1.775-9.67-5.338-17.446-10.162-23.849-6.848-9.022-14.612-16.02-23.116-21.587l-.054-.035c-8.004-5.276-16.294-9.248-24.796-12.033-6.494-2.092-11.68-3.662-16.634-4.507-11.097-1.835-21.885-2.254-34.374-2.254-6.479 0-14.343 1.334-21.782 3.42Zm59.514-21.11c6.585 1.118 13.063 3.131 19.541 5.218 10.256 3.355 20.188 8.125 29.689 14.387 10.364 6.784 19.864 15.356 28.177 26.315 6.801 9.02 11.606 19.754 13.927 32.427 1.674 9.318 1.566 18.636-.594 27.879-1.295 5.592-2.807 10.959-5.128 15.954-.593 1.267-1.242 2.609-1.943 3.801-.193.334-.392.656-.589.976-.685 1.112-1.355 2.199-1.732 3.646-.216.82-.756 1.565-1.296 2.162-1.327 1.344-2.474 2.889-3.646 4.47-.258.348-.518.697-.78 1.046-1.997 2.684-4.102 5.07-6.316 7.381-9.014 9.467-18.946 16.399-29.581 21.618-1.262.609-2.514 1.245-3.765 1.879-3.032 1.538-6.057 3.072-9.19 4.233-7.989 2.982-16.086 5.218-24.345 6.56-8.637 1.417-18.137 2.46-26.18 2.46-7.611-.298-15.925-.894-24.237-2.386-11.768-2.161-23.212-5.814-34.494-10.883-2.806-1.268-5.505-2.684-8.15-4.547-.984-.679-2.036-1.232-3.081-1.782-.562-.295-1.123-.589-1.669-.902-9.933-5.815-18.947-13.567-27.422-22.811-3.779-4.175-7.287-8.722-10.365-13.94a118.432 118.432 0 0 0-1.853-3.081c-.877-1.425-1.753-2.849-2.573-4.373-1.026-1.939-1.943-3.951-2.699-6.113-2.591-7.455-4.318-15.282-4.858-23.556-.324-4.846.378-9.468 1.242-14.164 1.673-9.243 5.073-17.146 9.338-24.451 4.103-7.007 9.015-12.821 14.359-17.891 10.04-9.691 21.052-16.698 32.658-22.065 7.395-3.354 14.952-5.74 22.563-7.827 8.589-2.41 18.371-4.175 27.26-4.175 12.911 0 24.999.425 37.732 2.535Z" clip-rule="evenodd"/><path fill="#fff" d="M573.368 489.941c0 42.817-48.364 77.527-108.025 77.527-59.66 0-108.024-34.71-108.024-77.527 0-42.818 48.364-77.528 108.024-77.528 59.661 0 108.025 34.71 108.025 77.528Z"/><path fill="#1F1F1F" d="M562.03 533.207c6.373 46.103-33.197 89.643-88.383 97.248-55.185 7.606-105.088-23.602-111.461-69.705-6.373-46.103 31.807-84.432 86.993-92.038 55.185-7.606 106.478 18.392 112.851 64.495Z"/><path fill="#FE0230" d="M503.117 197.435c2.613 1.665 5.117 3.632 7.566 5.675a6694.134 6694.134 0 0 0 69.016 56.439c27.922 22.546 55.681 45.319 83.657 67.637 44.632 35.634 88.937 72.101 133.46 108.037 15.403 12.484 30.86 24.816 46.318 37.223.598.455 1.58.757 1.58 1.589.053 1.211-1.036 1.362-1.689 1.892-17.308 13.467-34.616 26.934-51.87 40.4a177.318 177.318 0 0 0-6.967 5.675c-1.96 1.74-4.028 2.042-6.259 1.362a2510.59 2510.59 0 0 0-22.425-6.734c-7.892-2.27-15.839-4.464-23.785-6.658-2.722-.756-5.389-.227-7.838 1.589-1.525 1.135-2.939 2.572-4.3 4.086-1.579 1.74-2.232 3.933-1.96 6.657.218 2.043.49 4.086.708 6.052 1.088 9.533.272 18.763-1.959 27.918-1.525 6.355-3.701 12.256-6.26 17.931-5.933 13.315-13.498 24.588-22.152 34.498-6.641 7.491-13.662 14.149-21.064 20.201-.544.454-1.089.832-1.524 1.362-3.429 3.783-7.24 6.657-11.103 9.457-8.655 6.204-17.309 12.332-26.29 17.628-15.24 8.928-30.97 15.964-46.972 21.714-10.123 3.63-20.302 6.808-30.588 9.305-6.75 1.664-13.553 2.951-20.412 4.01-9.361 1.438-18.723 2.269-28.139 2.95-7.131.53-14.26.833-21.391.908-6.15.076-12.355-.378-18.506-.756-4.245-.227-8.545-.681-12.79-1.135-5.008-.529-10.07-1.21-15.077-1.967a402.91 402.91 0 0 1-13.226-2.27c-7.348-1.286-14.587-3.102-21.881-5.068-13.498-3.708-26.778-8.323-40.005-13.619-17.308-6.961-34.073-16.039-50.346-26.706-8.546-5.599-17.145-11.198-25.31-17.931-27.785-22.796-52.388-49.49-68.852-81.634-6.804-13.391-12.356-27.765-15.948-43.427-5.59-24.322-3.834-49.882 4.191-73.462 17.108-50.436 61.223-87.746 107.66-111.29 34.837-17.648 72.379-23.84 111.253-23.454 4.027.075 8.001.378 11.974 1.135 2.395.454 4.681-.076 6.913-1.362 2.068-1.286 3.973-3.027 5.769-4.993 1.306-1.362 1.742-3.253 1.524-5.448-.163-1.588-.653-3.026-1.252-4.388-2.013-4.691-4.027-9.381-5.987-14.072l-7.021-17.022c-.381-.984-.654-1.967-1.035-2.876.545-1.134 1.415-1.512 2.178-2.042 10.885-8.171 21.88-15.888 32.929-23.454 8.437-5.75 16.764-11.802 25.146-17.628 2.014-1.437 4.082-2.648 6.096-4.009 1.47-.984 2.83-.833 4.245.075Zm-46.069 197.341c-8.889 0-18.671 1.765-27.26 4.175-7.611 2.087-15.168 4.473-22.563 7.827-11.606 5.367-22.618 12.374-32.658 22.065-5.344 5.07-10.256 10.884-14.359 17.891-4.265 7.305-7.665 15.208-9.338 24.451-.864 4.696-1.566 9.318-1.242 14.164.54 8.274 2.267 16.101 4.858 23.556.756 2.162 1.673 4.174 2.699 6.113 1.404 2.609 2.969 4.92 4.426 7.454 3.078 5.218 6.586 9.765 10.365 13.94 8.475 9.244 17.489 16.996 27.422 22.811 1.565.894 3.238 1.64 4.75 2.684 2.645 1.863 5.344 3.279 8.15 4.547 11.282 5.069 22.726 8.722 34.494 10.883 8.312 1.492 16.626 2.088 24.237 2.386 8.043 0 17.543-1.043 26.18-2.46 8.259-1.342 16.356-3.578 24.345-6.56 4.427-1.64 8.637-4.025 12.955-6.112 10.635-5.219 20.567-12.151 29.581-21.618 2.214-2.311 4.319-4.697 6.316-7.381 1.457-1.938 2.807-3.876 4.426-5.516.54-.597 1.08-1.342 1.296-2.162.486-1.863 1.457-3.131 2.321-4.622.701-1.192 1.35-2.534 1.943-3.801 2.321-4.995 3.833-10.362 5.128-15.954 2.16-9.243 2.268-18.561.594-27.879-2.321-12.673-7.126-23.407-13.927-32.427-8.313-10.959-17.813-19.531-28.177-26.315-9.501-6.262-19.433-11.032-29.689-14.387-6.478-2.087-12.956-4.1-19.541-5.218-12.733-2.11-24.821-2.535-37.732-2.535Z"/><path fill="#FAFAFA" fill-rule="evenodd" d="M498.872 197.36c-.837.565-1.683 1.105-2.531 1.646-1.192.761-2.388 1.523-3.565 2.363a1448.009 1448.009 0 0 0-10.331 7.271c-4.923 3.485-9.85 6.974-14.815 10.357-11.049 7.566-22.044 15.283-32.929 23.454-.142.099-.288.192-.434.286-.641.411-1.301.833-1.744 1.756.211.502.389 1.027.569 1.562.146.433.295.873.466 1.314l7.021 17.022c1.96 4.691 3.974 9.381 5.987 14.072.599 1.362 1.089 2.8 1.252 4.388.218 2.195-.218 4.086-1.524 5.448-1.796 1.966-3.701 3.707-5.769 4.993-2.232 1.286-4.518 1.816-6.913 1.362-3.973-.757-7.947-1.06-11.974-1.135-38.874-.386-76.416 5.806-111.253 23.454-46.437 23.544-90.552 60.854-107.66 111.29-8.025 23.58-9.781 49.14-4.191 73.462 3.592 15.662 9.144 30.036 15.948 43.427 16.464 32.144 41.067 58.838 68.852 81.634 7.964 6.568 16.343 12.057 24.681 17.519l.629.412c16.273 10.667 33.038 19.745 50.346 26.706 13.227 5.296 26.507 9.911 40.005 13.619 7.294 1.966 14.533 3.782 21.881 5.068a402.91 402.91 0 0 0 13.226 2.27c5.007.757 10.069 1.438 15.077 1.967 4.245.454 8.545.908 12.79 1.135.742.045 1.485.092 2.228.139 5.419.341 10.87.684 16.278.617 7.131-.075 14.26-.378 21.391-.908 9.416-.681 18.778-1.512 28.139-2.95 6.859-1.059 13.662-2.346 20.412-4.01 10.286-2.497 20.465-5.675 30.588-9.305 16.002-5.75 31.732-12.786 46.972-21.714 8.981-5.296 17.635-11.424 26.29-17.628 3.863-2.8 7.674-5.674 11.103-9.457.33-.402.724-.717 1.132-1.044.13-.104.261-.208.392-.318 7.402-6.052 14.423-12.71 21.064-20.201 8.654-9.91 16.219-21.183 22.152-34.498 2.559-5.675 4.735-11.576 6.26-17.931 2.231-9.155 3.047-18.385 1.959-27.918-.099-.892-.209-1.801-.32-2.719a228.816 228.816 0 0 1-.388-3.333c-.272-2.724.381-4.917 1.96-6.657 1.361-1.514 2.775-2.951 4.3-4.086 2.449-1.816 5.116-2.345 7.838-1.589 7.946 2.194 15.893 4.388 23.785 6.658a2510.59 2510.59 0 0 1 22.425 6.734c2.231.68 4.299.378 6.259-1.362a177.318 177.318 0 0 1 6.967-5.675 33501.831 33501.831 0 0 1 38.049-29.645c2.203-1.716 4.409-3.431 6.613-5.147l.994-.773 6.214-4.835c.175-.142.382-.257.589-.372.566-.315 1.138-.634 1.1-1.52 0-.621-.546-.947-1.072-1.26-.179-.108-.356-.213-.508-.329-2.517-2.02-5.034-4.038-7.55-6.055l-.901-.722-4.51-3.614-.787-.631-.332-.266c-10.761-8.623-21.513-17.242-32.238-25.935-17.435-14.073-34.838-28.226-52.238-42.38-27.035-21.989-54.068-43.977-81.222-65.657-17.819-14.215-35.549-28.614-53.289-43.022a13872.874 13872.874 0 0 0-30.368-24.615 6694.134 6694.134 0 0 1-69.016-56.439c-2.449-2.043-4.953-4.01-7.566-5.675-1.415-.908-2.775-1.059-4.245-.075Zm15.167-16.957c-2.678-1.714-6.839-3.706-12.203-3.923-5.667-.229-10.542 1.604-14.241 4.08l-.08.054c-.594.401-1.174.771-2.006 1.303l-.607.387a92.76 92.76 0 0 0-3.791 2.532c-3.765 2.617-7.26 5.093-10.674 7.512-4.73 3.35-9.304 6.591-14.226 9.945l-.036.025c-10.993 7.528-22.078 15.302-33.12 23.573-.368.239-1.197.783-2.133 1.527a23.666 23.666 0 0 0-6.666 8.34l-.413 16.552c-.062-.147-.102-.256-.102-.256s.032.09.112.326l.034.102c.064.19.167.494.267.781.131.376.304.861.513 1.402l.163.405 7.02 17.023.036.084c.156.376.314.752.472 1.128a36.81 36.81 0 0 1-.339-.007l-.18-.002c-41.152-.409-82.121 6.139-120.617 25.64l-.007.004c-48.825 24.755-98.171 65.363-117.667 122.816m330.491-241.353c3.672 2.342 6.93 4.935 9.606 7.166a6690.12 6690.12 0 0 0 68.78 56.247l.01.007c10.236 8.265 20.394 16.515 30.523 24.741 17.684 14.362 35.279 28.651 53.041 42.821l.006.006c27.196 21.713 54.388 43.83 81.498 65.88 17.39 14.144 34.744 28.26 52.045 42.224l.032.025c11.052 8.957 22.111 17.819 33.229 26.728 4.036 3.234 8.08 6.475 12.131 9.728.331.212.763.502 1.249.86 2.228 1.646 8.608 7.062 8.777 16.808a21.527 21.527 0 0 1-2.606 10.781 21.635 21.635 0 0 1-6.212 7.096 25.03 25.03 0 0 1-1.566 1.055 40701.403 40701.403 0 0 0-50.953 39.686l-.047.036a157.6 157.6 0 0 0-6.093 4.956c-3.249 2.843-7.386 5.175-12.353 6.168-4.981.995-9.507.387-13.126-.717a2477.018 2477.018 0 0 0-22.169-6.657 1474.292 1474.292 0 0 0-10.855-3.072c.39 9.699-.735 19.034-2.927 28.044-1.88 7.827-4.521 14.921-7.463 21.45-6.83 15.317-15.535 28.26-25.371 39.525l-.101.115c-7.381 8.324-15.171 15.71-23.338 22.393a1.694 1.694 0 0 0-.048.04c-4.767 5.101-9.79 8.806-13.578 11.551l-.081.058c-8.616 6.176-17.945 12.801-27.802 18.613l-.051.03c-16.488 9.659-33.383 17.198-50.363 23.299l-.01.004c-10.63 3.813-21.496 7.215-32.615 9.915-7.45 1.836-14.849 3.228-22.137 4.354l-.017.003c-10.156 1.559-20.143 2.437-29.728 3.13-7.553.561-15.109.881-22.665.962-6.22.074-12.476-.321-17.811-.659l-2.075-.13c-4.832-.261-9.617-.771-13.768-1.215-5.382-.569-10.75-1.294-15.965-2.081l-.066-.01a420.786 420.786 0 0 1-13.761-2.36c-8.212-1.444-16.106-3.439-23.532-5.441l-.089-.024c-14.365-3.945-28.376-8.823-42.172-14.347l-.029-.012c-18.756-7.543-36.706-17.292-53.895-28.559l-.912-.598c-8.136-5.329-17.331-11.35-26.165-18.635-29.16-23.926-55.893-52.676-74.002-88.029l-.031-.06c-7.445-14.654-13.618-30.58-17.627-48.061-6.483-28.217-4.395-57.595 4.757-84.485m496.971 221.928.506-.585c-.174.211-.343.406-.506.585ZM855.79 491.627c-.087.071-.175.14-.256.207l.256-.207Zm-2.187 1.524c-.196.113-.27.147-.162.088l.067-.036.095-.052Zm.473-37.711Zm-20.391 2.487c.221-.13.269-.15.018-.011l-.018.011Zm-.463 32.191c.14.086.169.1.017.01l-.017-.01Zm-397.956-71.697-.114.032c-7.137 1.957-13.51 4.005-19.483 6.709-9.861 4.567-18.879 10.36-27.025 18.222l-.127.122c-4.201 3.985-7.833 8.33-10.815 13.421-3.385 5.801-5.746 11.476-6.901 17.856l-.01.055c-.825 4.483-1.098 6.998-.953 9.164l.002.032c.409 6.271 1.72 12.305 3.775 18.223.353 1.005.818 2.058 1.445 3.25.407.751.89 1.56 1.589 2.7l.323.526c.604.981 1.389 2.256 2.141 3.559 2.236 3.777 4.845 7.19 7.846 10.511 7.43 8.096 14.861 14.377 22.58 18.913.203.115.344.188.608.326.244.128.594.31 1.195.631.997.532 2.605 1.411 4.326 2.599l.157.11c1.262.888 2.731 1.7 4.797 2.634 9.894 4.445 19.765 7.578 29.796 9.424 6.847 1.225 13.95 1.771 20.991 2.057 6.479-.032 14.631-.898 22.517-2.191l.03-.005c6.802-1.105 13.613-2.969 20.507-5.542l.045-.017c2.037-.754 3.573-1.538 5.913-2.731 1.372-.699 3.018-1.539 5.204-2.596 8.648-4.249 16.571-9.8 23.786-17.378l.041-.043c1.831-1.913 3.344-3.648 4.697-5.465l.06-.08c.111-.147.253-.341.424-.574.714-.971 1.924-2.617 3.375-4.344a32.03 32.03 0 0 1 1.454-2.926 48.31 48.31 0 0 1 1.069-1.808l.004-.007c.282-.457.334-.542.381-.624l.069-.118c.178-.303.478-.885 1.045-2.092 1.438-3.102 2.574-6.872 3.757-11.977l.008-.035c1.488-6.368 1.604-12.887.389-19.678-1.775-9.67-5.338-17.446-10.162-23.849-6.848-9.022-14.612-16.02-23.116-21.587l-.054-.035c-8.004-5.276-16.294-9.248-24.796-12.033-6.494-2.092-11.68-3.662-16.634-4.507-11.097-1.835-21.885-2.254-34.374-2.254-6.479 0-14.343 1.334-21.782 3.42Zm59.514-21.11c6.585 1.118 13.063 3.131 19.541 5.218 10.256 3.355 20.188 8.125 29.689 14.387 10.364 6.784 19.864 15.356 28.177 26.315 6.801 9.02 11.606 19.754 13.927 32.427 1.674 9.318 1.566 18.636-.594 27.879-1.295 5.592-2.807 10.959-5.128 15.954-.593 1.267-1.242 2.609-1.943 3.801-.193.334-.392.656-.589.976-.685 1.112-1.355 2.199-1.732 3.646-.216.82-.756 1.565-1.296 2.162-1.327 1.344-2.474 2.889-3.646 4.47-.258.348-.518.697-.78 1.046-1.997 2.684-4.102 5.07-6.316 7.381-9.014 9.467-18.946 16.399-29.581 21.618-1.262.609-2.514 1.245-3.765 1.879-3.032 1.538-6.057 3.072-9.19 4.233-7.989 2.982-16.086 5.218-24.345 6.56-8.637 1.417-18.137 2.46-26.18 2.46-7.611-.298-15.925-.894-24.237-2.386-11.768-2.161-23.212-5.814-34.494-10.883-2.806-1.268-5.505-2.684-8.15-4.547-.984-.679-2.036-1.232-3.081-1.782-.562-.295-1.123-.589-1.669-.902-9.933-5.815-18.947-13.567-27.422-22.811-3.779-4.175-7.287-8.722-10.365-13.94a118.432 118.432 0 0 0-1.853-3.081c-.877-1.425-1.753-2.849-2.573-4.373-1.026-1.939-1.943-3.951-2.699-6.113-2.591-7.455-4.318-15.282-4.858-23.556-.324-4.846.378-9.468 1.242-14.164 1.673-9.243 5.073-17.146 9.338-24.451 4.103-7.007 9.015-12.821 14.359-17.891 10.04-9.691 21.052-16.698 32.658-22.065 7.395-3.354 14.952-5.74 22.563-7.827 8.589-2.41 18.371-4.175 27.26-4.175 12.911 0 24.999.425 37.732 2.535Z" clip-rule="evenodd"/></svg>