<?xml version="1.0" encoding="UTF-8"?>
<svg id="Layer_1" data-name="Layer 1" xmlns="http://www.w3.org/2000/svg" xmlns:xlink="http://www.w3.org/1999/xlink" version="1.1" viewBox="0 0 1085.9 1011.5">
  <defs>
    <style>
      .cls-1 {
        clip-path: url(#clippath);
      }

      .cls-2, .cls-3, .cls-4, .cls-5, .cls-6, .cls-7, .cls-8, .cls-9 {
        stroke-width: 0px;
      }

      .cls-2, .cls-10, .cls-11, .cls-12 {
        fill: none;
      }

      .cls-3 {
        fill: #a5a09d;
      }

      .cls-4 {
        fill: #222326;
      }

      .cls-10, .cls-11, .cls-12 {
        stroke-miterlimit: 10;
      }

      .cls-10, .cls-12 {
        stroke: #000;
        stroke-width: 11px;
      }

      .cls-5 {
        fill: #323232;
      }

      .cls-11 {
        stroke: #222326;
        stroke-width: 9.6px;
      }

      .cls-13 {
        font-family: Rubik-SemiBold, Rubik;
        font-size: 52px;
        font-weight: 600;
      }

      .cls-13, .cls-6 {
        fill: #000;
      }

      .cls-13, .cls-14 {
        isolation: isolate;
      }

      .cls-7 {
        fill: #171717;
      }

      .cls-12 {
        stroke-dasharray: 0 0 0 0 0 0 12 12;
      }

      .cls-8 {
        fill: #fff;
      }

      .cls-9 {
        fill: #e27695;
      }
    </style>
    <clipPath id="clippath">
      <rect class="cls-2" x="491.5" y="650.8" width="120.6" height="97.7"/>
    </clipPath>
  </defs>
  <g id="Layer_1-2" data-name="Layer 1">
    <g id="Layer_6" data-name="Layer 6">
      <path class="cls-4" d="M117,418.3"/>
      <polygon class="cls-8" points="122 426.2 1007.9 429.2 743.1 190.3 677.4 201.3 141.9 406.3 107.1 417.3 122 426.2"/>
    </g>
    <g id="Layer_1-2" data-name="Layer 1-2">
      <g id="Layer_1-3" data-name="Layer 1-3">
        <g id="Layer_1-4" data-name="Layer 1-4">
          <path class="cls-6" d="M1026.2,431.6c0-1.1-.3-2.2-.6-3.2,0-.4-.3-.8-.5-1.2-.5-1-1.1-1.8-1.8-2.7-.2-.3-.4-.5-.6-.8,0-.1,0-.2-.2-.3l-217.4-198.6c-68.4-52.1-100.2-87.9-225.7.5L65.3,421.2s0,.1-.2.1c-.4.2-.8.5-1.2.7-.9.5-1.8,1-2.5,1.7-.4.4-.7.8-1,1.2-.6.7-1.1,1.5-1.5,2.3-.3.5-.4,1.1-.6,1.6-.3.9-.5,1.8-.5,2.7s-.2.6-.2.9v514.6c0,6.6,5.4,12,12,12h944.8c6.6,0,12-5.4,12-12V432.4c0-.3-.2-.5-.2-.8h0ZM1002.3,557.3c-13.7,4.9-21.7,17.6-27.8,27.5-7.8,12.7-12,18.3-19.3,18.3s-11.5-5.6-19.3-18.3c-7.7-12.5-18.3-29.7-39.8-29.7s-32,17.2-39.8,29.7c-7.8,12.7-12,18.3-19.3,18.3s-11.5-5.6-19.3-18.3c-7.7-12.5-18.3-29.7-39.7-29.7s-32,17.2-39.8,29.7c-7.8,12.7-12,18.3-19.3,18.3s-11.5-5.6-19.3-18.3c-7.7-12.5-18.3-29.7-39.7-29.7s-32,17.2-39.7,29.7c-7.8,12.7-12,18.3-19.3,18.3s-11.5-5.6-19.3-18.3c-7.7-12.5-18.3-29.7-39.7-29.7s-32,17.2-39.7,29.7c-7.8,12.7-12,18.3-19.3,18.3s-11.5-5.6-19.3-18.3c-7.7-12.5-18.3-29.7-39.7-29.7s-32,17.2-39.7,29.7c-7.8,12.7-12,18.3-19.3,18.3s-11.5-5.6-19.3-18.3c-7.7-12.5-18.3-29.7-39.7-29.7s-32,17.2-39.7,29.7c-7.8,12.7-12,18.3-19.3,18.3s-11.5-5.6-19.3-18.3c-7.7-12.5-18.3-29.7-39.7-29.7s-32,17.2-39.7,29.7c-7.8,12.7-12,18.3-19.3,18.3s-11.5-5.6-19.3-18.3c-6.1-9.9-14.1-22.6-27.7-27.5v-113h920.8l-.4,113h0ZM81.6,586.7c2.2,2.8,4.5,6.1,7.3,10.7,7.7,12.5,18.3,29.7,39.7,29.7s32-17.2,39.7-29.7c7.8-12.7,12-18.3,19.3-18.3s11.5,5.6,19.3,18.3c7.7,12.5,18.3,29.7,39.7,29.7s32-17.2,39.7-29.7c7.8-12.7,12-18.3,19.3-18.3s11.4,5.6,19.3,18.3c7.7,12.5,18.3,29.7,39.7,29.7s32-17.2,39.7-29.7c7.8-12.7,12-18.3,19.3-18.3s11.5,5.6,19.3,18.3c7.7,12.5,18.3,29.7,39.7,29.7s32-17.2,39.7-29.7c7.8-12.7,12-18.3,19.3-18.3s11.5,5.6,19.3,18.3c7.7,12.5,18.3,29.7,39.7,29.7s32-17.2,39.7-29.7c7.8-12.7,12-18.3,19.3-18.3s11.5,5.6,19.3,18.3c7.7,12.5,18.3,29.7,39.7,29.7s32-17.2,39.7-29.7c7.8-12.7,12-18.3,19.3-18.3s11.5,5.6,19.3,18.3c7.7,12.5,18.3,29.7,39.7,29.7s32-17.2,39.8-29.7c7.8-12.7,12-18.3,19.3-18.3s11.5,5.6,19.3,18.3c7.7,12.5,18.3,29.7,39.8,29.7s32.1-17.2,39.8-29.7c2.8-4.6,5.1-8,7.3-10.8v65.9c-13.7,4.9-21.7,17.6-27.8,27.5-7.8,12.7-12,18.3-19.3,18.3s-11.5-5.6-19.3-18.3c-7.7-12.5-18.3-29.7-39.8-29.7s-32,17.2-39.8,29.7c-7.8,12.7-12,18.3-19.3,18.3s-11.5-5.6-19.3-18.3c-7.7-12.5-18.3-29.7-39.7-29.7s-32,17.2-39.8,29.7c-7.8,12.7-12,18.3-19.3,18.3s-11.5-5.6-19.3-18.3c-7.7-12.5-18.3-29.7-39.7-29.7s-32,17.2-39.7,29.7c-7.8,12.7-12,18.3-19.3,18.3s-11.5-5.6-19.3-18.3c-7.7-12.5-18.3-29.7-39.7-29.7s-32,17.2-39.7,29.7c-7.8,12.7-12,18.3-19.3,18.3s-11.5-5.6-19.3-18.3c-7.7-12.5-18.3-29.7-39.7-29.7s-32,17.2-39.7,29.7c-7.8,12.7-12,18.3-19.3,18.3s-11.5-5.6-19.3-18.3c-7.7-12.5-18.3-29.7-39.7-29.7s-32,17.2-39.7,29.7c-7.8,12.7-12,18.3-19.3,18.3s-11.5-5.6-19.3-18.3c-7.7-12.5-18.3-29.7-39.7-29.7s-32,17.2-39.7,29.7c-7.8,12.7-12,18.3-19.3,18.3s-11.5-5.6-19.3-18.3c-6.1-9.9-14.1-22.6-27.7-27.5v-65.8h.1ZM574.5,252.9c-.6,5.6,237.5,112.1,237.5,16.8s0-4.1-.2-6.1l171.6,156.9H134.8l439.7-167.6h0ZM81.6,865v-183c2.2,2.8,4.5,6.1,7.3,10.7,7.7,12.5,18.3,29.7,39.7,29.7s32-17.2,39.7-29.7c7.8-12.7,12-18.3,19.3-18.3s11.5,5.6,19.3,18.3c7.7,12.5,18.3,29.7,39.7,29.7s32-17.2,39.7-29.7c7.8-12.7,12-18.3,19.3-18.3s11.4,5.6,19.3,18.3c7.7,12.5,18.3,29.7,39.7,29.7s32-17.2,39.7-29.7c7.8-12.7,12-18.3,19.3-18.3s11.5,5.6,19.3,18.3c7.7,12.5,18.3,29.7,39.7,29.7s32-17.2,39.7-29.7c7.8-12.7,12-18.3,19.3-18.3s11.5,5.6,19.3,18.3c7.7,12.5,18.3,29.7,39.7,29.7s32-17.2,39.7-29.7c7.8-12.7,12-18.3,19.3-18.3s11.5,5.6,19.3,18.3c7.7,12.5,18.3,29.7,39.7,29.7s32-17.2,39.7-29.7c7.8-12.7,12-18.3,19.3-18.3s11.5,5.6,19.3,18.3c7.7,12.5,18.3,29.7,39.7,29.7s32-17.2,39.8-29.7c7.8-12.7,12-18.3,19.3-18.3s11.5,5.6,19.3,18.3c7.7,12.5,18.3,29.7,39.8,29.7s32.1-17.2,39.8-29.7c2.8-4.6,5.1-8,7.3-10.8v183H81.6Z"/>
        </g>
      </g>
      <g id="White_Circles" data-name="White Circles">
        <g id="Layer_3" data-name="Layer 3">
          <circle class="cls-8" cx="648.8" cy="225" r="65.8"/>
          <circle class="cls-8" cx="768.1" cy="281.3" r="72.8"/>
        </g>
      </g>
      <path class="cls-6" d="M855.1,45.8h0v-1.3l-.2-.6c-.2-.6-.4-1.1-.7-1.6,0-.3-.2-.5-.3-.7-.4-.9-1.1-1.4-1.4-1.7-.3-.3-.9-1-1.8-1.4-.6-.3-1.2-.5-1.5-.6-.4-.2-1-.4-1.7-.4s-.8-.2-1.1-.2h-2.4c-34.1,7.8-68.1,22.9-98.3,43.7-29.1,20.1-55,45.7-74.9,74.2-7.5-2.4-15-3.6-22.4-3.6-40.4,0-73.2,32.9-73.2,73.2s32.9,73.2,73.2,73.2,26-3.6,37.4-10.4c2.9,43.1,38.9,77.3,82.7,77.3s82.9-37.2,82.9-82.9-24.1-68.8-58.9-79.3c1.5-50.1,15.9-95.2,41.8-130.7,6.1-8.4,11.4-14.1,17.1-18.3.7-.5,1.2-1,1.4-1.5l.4-.4.5-.5.3-.6c.2-.5.4-1,.6-1.5v-.3l.2-.5v-.4c.3-1,.2-1.8.2-2.2h.1ZM652.6,184.4c-1.7-2.3-4.4-3.7-7.4-3.7s-2.7.3-3.9.9c-4.5,2.2-6.4,7.6-4.3,12.1,3.2,6.5,8.8,11.8,15.4,14.7,3.6,1.6,7.8,2.5,12,2.5s6.3-.5,9.2-1.4c4.8-1.5,7.4-6.6,5.9-11.3-1.2-3.7-4.8-6.4-8.7-6.4s-1,0-1.4.1c2.3-4.3,5-8.9,8.1-13.9,16.1,10,26,27.6,26,46.8s0,4.4-.3,6.3c-7.6,9.6-12.8,20.5-15.5,32.3-10.3,10.4-24.7,16.4-39.4,16.4-30.4,0-55.1-24.7-55.1-55.1s24.7-55.1,55.1-55.1,8,.4,12,1.3c-2.7,4.5-5.3,9-7.7,13.5h0ZM768.6,199.1c-17.1,0-33.8,5.3-47.7,15.2-1.4-10.1-5-19.8-10.4-28.4-6-9.4-13.8-17.2-23-23.1,16.9-23.5,37.5-44.4,61.4-61.9,21.5-15.8,44.6-28.3,68.9-37-26.4,37.3-41.3,84-43.3,135.5-1.9-.2-3.9-.3-5.9-.3h0ZM768.5,217.1c1.9,0,3.8.1,5.7.3,0,5.1.3,10.1.7,15-1.7-2.1-4.3-3.4-7-3.4s-3.7.6-5.3,1.7c-1.9,1.4-3.2,3.5-3.6,5.8-.4,2.4,0,4.8,1.6,6.8,4.9,6.8,12.4,12,20.6,14.2,3,.7,5.8,1.1,8.4,1.1,5.7,0,11.4-1.3,16.4-3.9,4.4-2.3,6.1-7.6,4-12.1h0v-.2c-1.6-3-4.7-4.9-8.1-4.9s-2.7.3-4,.9h-.2c-1.3.7-2.7,1.2-4.1,1.5-.5-5.6-.9-11.6-1.2-18.3,10.9,4.4,20.5,11.8,27.6,21.2,8.5,11.3,13,24.8,13,38.9.2,36-28.8,65-64.5,65s-64.8-29.1-64.8-64.8,29.1-64.8,64.8-64.8h0Z"/>
    </g>
    <g id="Cherry_rounder" data-name="Cherry rounder">
      <path class="cls-8" d="M702.4,234.6c-2.9,15.8-12.1,28.8-24.6,36.8-8.7,5.6,20.2-73.4,23.5-61.6,2.2,7.9,2.7,16.3,1.1,24.8h0Z"/>
    </g>
    <g id="White_rectangle" data-name="White rectangle">
      <g id="White_Rectangle" data-name="White Rectangle">
        <rect class="cls-8" x="82" y="444.8" width="920.2" height="491.1"/>
      </g>
    </g>
    <g id="Bottom_-_Chocolate" data-name="Bottom - Chocolate">
      <rect class="cls-3" x="81.8" y="797" width="920.5" height="140.7"/>
    </g>
    <g id="Arweave_logo" data-name="Arweave logo">
      <g>
        <path class="cls-4" d="M483.7,889.2c-.2-.5-.4-1-.6-1.6s-.3-1.2-.4-1.9c-.5.6-1.1,1.1-1.8,1.6-.7.5-1.4,1-2.2,1.3-.9.4-1.8.7-2.8.9-1.1.2-2.1.3-3.2.3-1.8,0-3.5-.3-5.2-.8-1.5-.5-2.9-1.3-4.1-2.3-1.1-1-2-2.1-2.6-3.5s-1-2.9-.9-4.4c0-3.9,1.4-6.8,4.3-9,2.9-2.1,7.2-3.2,12.9-3.2h5.2v-2.2c.1-1.6-.6-3.1-1.7-4.2-1.2-1-2.8-1.5-5-1.5s-3.3.4-4.2,1.2c-.9.9-1.4,2.1-1.3,3.3h-9.4c0-1.5.3-3.1,1-4.4.7-1.4,1.8-2.7,3-3.7,1.4-1.1,3.1-2,4.8-2.5,2.1-.7,4.3-1,6.6-1s4.2.3,6.2.8c1.8.5,3.5,1.3,5,2.4,1.4,1.1,2.5,2.4,3.3,4,.8,1.8,1.2,3.7,1.2,5.6v15.7c0,1.6.1,3.3.4,4.9.2,1.2.6,2.3,1.1,3.3v.6h-9.6v.3h0ZM474.7,882.6c.9,0,1.8,0,2.6-.3.8-.2,1.5-.5,2.2-.9.6-.3,1.2-.7,1.7-1.2.4-.4.8-.9,1.1-1.4v-6.3h-4.8c-1.3,0-2.5,0-3.8.4-.9.2-1.8.6-2.5,1.2-.6.5-1.1,1.1-1.5,1.8-.3.7-.5,1.5-.5,2.3,0,1.2.5,2.3,1.3,3.1,1.1.9,2.4,1.3,4.2,1.3h0Z"/>
        <path class="cls-4" d="M534,851.8c1.3,0,2.6,0,3.9.3,1,0,2,.4,3,.6l-1.4,9.4c-1.3-.3-2.5-.5-3.8-.7-1.2,0-2.5-.2-3.7-.2-2.2,0-4.4.4-6.4,1.5-1.6,1-2.9,2.6-3.6,4.4v22h-9.4v-36.6h8.8l.4,6c1.4-2,3.2-3.7,5.4-4.9,2-1.1,4.4-1.8,6.8-1.8Z"/>
        <path class="cls-4" d="M577.9,877.7l3.2-25.1h8.6l-6.6,36.7h-8.3l-4.8-23.3-4.6,23.3h-8.3l-6.6-36.6h8.6l3.2,25.3,4.6-25.3h6.3l4.7,25h0Z"/>
        <path class="cls-4" d="M619.1,889.9c-2.6,0-5.2-.4-7.7-1.4-2.2-.9-4.2-2.1-5.9-3.8s-2.9-3.5-3.8-5.6c-.9-2.2-1.4-4.6-1.3-6.9v-1.4c0-2.6.4-5.2,1.3-7.7.8-2.2,2.1-4.3,3.7-6,1.6-1.7,3.5-3,5.6-3.9,4.5-1.8,9.6-1.9,14.1,0,2,.8,3.8,2.1,5.2,3.7,1.5,1.7,2.6,3.6,3.3,5.7.8,2.4,1.2,4.9,1.1,7.4v4h-24.9c.2,1.2.5,2.3,1.1,3.4,1.1,2,2.9,3.6,5.1,4.4,1.2.4,2.4.6,3.6.6s1.8,0,2.8-.3c.9-.2,1.8-.4,2.6-.8.8-.4,1.6-.8,2.3-1.4.7-.5,1.4-1.1,1.9-1.8l4.7,5.1c-.7.9-1.4,1.7-2.3,2.5-1,.9-2.1,1.6-3.3,2.1-1.4.6-2.8,1.1-4.3,1.5-1.5.5-3.2.7-4.9.7h0ZM618,859.5c-1,0-2,.2-2.9.6-.9.4-1.7.9-2.3,1.6-.7.7-1.3,1.6-1.7,2.5-.5,1-.8,2.1-1,3.3h15.5v-.7c0-1-.2-1.9-.6-2.8-.3-.9-.8-1.6-1.5-2.3s-1.5-1.2-2.3-1.5c-1.1-.5-2.2-.7-3.2-.7h0Z"/>
        <path class="cls-4" d="M671,889.2c-.2-.5-.4-1-.6-1.6-.2-.6-.3-1.2-.4-1.9-.6.6-1.2,1.1-1.8,1.6-.7.5-1.4,1-2.2,1.3-.9.4-1.8.7-2.7.9-1.1.2-2.1.3-3.2.3-1.8,0-3.5-.3-5.2-.8-1.5-.5-2.9-1.3-4-2.3-2.3-2-3.6-4.8-3.6-7.9s1.4-6.8,4.3-9c2.9-2.1,7.2-3.2,12.9-3.2h5.2v-2.2c0-1.6-.6-3.1-1.7-4.2-1.2-1-2.8-1.5-5-1.5s-3.3.4-4.2,1.2c-.9.9-1.4,2.1-1.3,3.3h-9.4c0-1.5.4-3.1,1-4.4.7-1.4,1.7-2.7,3-3.7,1.5-1.1,3.1-2,4.8-2.5,2.1-.7,4.3-1,6.6-1s4.2.3,6.2.8c1.8.5,3.5,1.3,5,2.4,1.4,1.1,2.5,2.4,3.3,4,.8,1.8,1.2,3.7,1.2,5.6v15.7c0,1.6,0,3.3.4,4.9.2,1.2.6,2.3,1.1,3.3v.6h-9.7v.3h0ZM662.1,882.6c.9,0,1.8,0,2.6-.3s1.5-.5,2.2-.9c.6-.3,1.2-.7,1.7-1.2s.8-.9,1.1-1.4v-6.3h-4.8c-1.3,0-2.5,0-3.8.4-.9.2-1.8.6-2.5,1.2-.6.5-1.1,1.1-1.5,1.8-.3.7-.5,1.5-.5,2.3,0,1.2.5,2.3,1.3,3.1,1,.9,2.4,1.3,4.2,1.3h0Z"/>
        <path class="cls-4" d="M710.6,878.3l.5,2.6.5-2.5,8.1-25.9h9.8l-13.9,36.6h-8.9l-14-36.6h9.8l8.1,25.8h0Z"/>
        <path class="cls-4" d="M759.6,889.9c-2.6,0-5.2-.4-7.7-1.4-2.2-.9-4.2-2.1-5.9-3.8-1.7-1.6-3-3.5-3.8-5.6-.9-2.2-1.4-4.6-1.3-6.9v-1.4c0-2.6.4-5.2,1.3-7.7.8-2.2,2.1-4.3,3.7-6,1.6-1.7,3.5-3,5.6-3.9,4.5-1.8,9.6-1.9,14.1,0,2,.8,3.8,2.1,5.2,3.7,1.5,1.7,2.6,3.6,3.3,5.7.8,2.4,1.1,4.9,1.1,7.4v4h-24.9c.2,1.2.5,2.3,1.1,3.4,1.1,2,2.9,3.6,5.1,4.4,1.2.4,2.4.6,3.6.6s1.8,0,2.8-.3c.9-.2,1.8-.4,2.6-.8.8-.4,1.6-.8,2.3-1.4.7-.5,1.4-1.1,1.9-1.8l4.7,5.1c-.7.9-1.4,1.7-2.3,2.5-1,.9-2.1,1.6-3.3,2.1-1.4.6-2.8,1.1-4.3,1.5-1.5.5-3.2.7-4.9.7h0ZM758.5,859.5c-1,0-2,.2-2.9.6-.9.4-1.7.9-2.3,1.6-.7.7-1.3,1.6-1.7,2.5-.5,1-.8,2.1-1,3.3h15.4v-.7c0-1-.2-1.9-.6-2.8-.3-.9-.8-1.6-1.5-2.3s-1.5-1.2-2.3-1.5c-1-.5-2-.7-3.1-.7h0Z"/>
        <path class="cls-4" d="M380.4,889.2c-.2-.5-.4-1-.6-1.6s-.3-1.2-.4-1.9c-.5.6-1.1,1.1-1.8,1.6-.7.5-1.4,1-2.2,1.3-.9.4-1.8.7-2.8.9-1.1.2-2.1.3-3.2.3-1.8,0-3.5-.3-5.2-.8-1.5-.5-2.9-1.3-4-2.3-2.3-2-3.6-4.8-3.6-7.9s1.4-6.8,4.3-9c2.9-2.1,7.2-3.2,12.9-3.2h5.2v-2.2c.1-1.6-.6-3.1-1.7-4.2-1.1-1-2.8-1.5-5-1.5s-3.3.4-4.2,1.2c-.9.9-1.4,2.1-1.3,3.3h-9.4c0-1.5.4-3.1,1-4.4.7-1.4,1.7-2.7,3-3.7,1.4-1.1,3.1-2,4.8-2.5,2.1-.7,4.3-1,6.6-1s4.2.3,6.2.8c1.8.5,3.5,1.3,5,2.4,1.4,1.1,2.6,2.4,3.3,4,.8,1.8,1.2,3.7,1.2,5.6v15.7c0,1.6.1,3.3.4,4.9.2,1.2.6,2.3,1.1,3.3v.6h-9.6v.3h0ZM371.4,882.6c.9,0,1.8,0,2.6-.3.8-.2,1.5-.5,2.2-.9.6-.3,1.2-.7,1.7-1.2.4-.4.8-.9,1.1-1.4v-6.3h-4.8c-1.3,0-2.5,0-3.8.4-.9.2-1.8.6-2.5,1.2-.6.5-1.1,1.1-1.5,1.8-.3.7-.5,1.5-.5,2.3,0,1.2.5,2.4,1.4,3.2s2.3,1.2,4.1,1.2h0Z"/>
        <circle class="cls-11" cx="372.7" cy="871.8" r="45.6"/>
      </g>
    </g>
    <g id="Mid_R_-_Choc" data-name="Mid R - Choc">
      <rect class="cls-3" x="81.9" y="594.7" width="474.4" height="202.3"/>
    </g>
    <g id="Gateways_description" data-name="Gateways description">
      <g>
        <path class="cls-6" d="M144.7,705.1c-.3,0-.5,0-.7-.3s-.3-.4-.3-.7v-2.6c0-.3.1-.5.3-.7s.4-.3.7-.3h12.3c.3,0,.5,0,.7.3s.3.4.3.7v2.6c0,.3-.1.5-.3.7s-.4.3-.7.3h-12.3Z"/>
        <path class="cls-6" d="M174.4,690.7c-.3,0-.5,0-.7-.3s-.3-.4-.3-.7v-2.9c0-.3.1-.5.3-.7s.4-.3.7-.3h3.6c.3,0,.5,0,.7.3s.3.4.3.7v2.9c0,.3-.1.5-.3.7s-.4.3-.7.3h-3.6ZM174.5,714.8c-.3,0-.5,0-.7-.3s-.3-.4-.3-.7v-18.8c0-.3.1-.5.3-.7s.4-.3.7-.3h3.3c.3,0,.5,0,.7.3s.3.4.3.7v18.8c0,.3-.1.5-.3.7s-.4.3-.7.3h-3.3Z"/>
        <path class="cls-6" d="M185,714.8c-.3,0-.5,0-.7-.3s-.3-.4-.3-.7v-18.8c0-.3.1-.5.3-.7s.4-.3.7-.3h3.3c.3,0,.5,0,.7.3s.3.4.3.7v1.6c.7-.8,1.6-1.6,2.6-2.1,1.1-.6,2.4-.9,4-.9s3,.4,4.2,1.1c1.2.7,2.1,1.8,2.8,3.1.6,1.3,1,2.9,1,4.8v11.2c0,.3-.1.5-.3.7s-.4.3-.7.3h-3.5c-.3,0-.5,0-.7-.3s-.3-.4-.3-.7v-10.9c0-1.5-.4-2.7-1.1-3.6s-1.8-1.3-3.3-1.3-2.5.4-3.3,1.3c-.8.9-1.2,2.1-1.2,3.6v10.9c0,.3-.1.5-.3.7s-.4.3-.7.3h-3.5Z"/>
        <path class="cls-6" d="M216.6,715.2c-1.4,0-2.6-.2-3.6-.7s-1.9-1.1-2.6-2c-.7-.8-1.2-1.8-1.6-3-.4-1.2-.6-2.4-.6-3.8v-2.6c.1-1.3.3-2.6.6-3.7s.9-2.1,1.6-3c.7-.9,1.6-1.5,2.6-2s2.3-.7,3.6-.7,2.6.2,3.6.7,1.8,1.1,2.5,1.9v-8.8c0-.3.1-.5.3-.7s.4-.3.7-.3h3.4c.3,0,.5,0,.7.3s.3.4.3.7v26.3c0,.3-.1.5-.3.7s-.4.3-.7.3h-3.1c-.3,0-.5,0-.7-.3s-.3-.4-.3-.7v-1.5c-.7.8-1.5,1.5-2.5,2-1.1.6-2.4.9-3.9.9h0ZM218,710.9c1.1,0,2-.3,2.7-.8s1.2-1.1,1.5-1.9c.3-.8.5-1.6.5-2.4v-3c0-.8-.2-1.6-.6-2.3-.3-.7-.8-1.3-1.5-1.8s-1.5-.7-2.6-.7-2,.2-2.6.7-1.1,1.1-1.4,1.9c-.3.8-.5,1.7-.5,2.6v2.4c.1,1,.2,1.8.5,2.6s.8,1.4,1.4,1.9c.6.6,1.5.8,2.6.8h0Z"/>
        <path class="cls-6" d="M242.2,715.2c-2.9,0-5.3-.8-7-2.5s-2.7-4.1-2.8-7.2v-2c.1-2,.6-3.7,1.4-5.2.8-1.4,1.9-2.6,3.4-3.3,1.4-.8,3.1-1.2,5-1.2s3.9.4,5.4,1.3c1.5.9,2.6,2.1,3.3,3.7.7,1.6,1.1,3.4,1.1,5.5v.8c0,.3-.1.5-.3.7s-.4.3-.7.3h-13.2v.3c0,.9.2,1.8.5,2.6s.8,1.4,1.5,1.9c.6.5,1.4.7,2.3.7s1.4,0,1.9-.3.9-.5,1.2-.8.5-.5.7-.7c.2-.3.4-.5.6-.6h4.1c.3,0,.5,0,.7.2s.2.4.2.6c0,.4-.2.9-.7,1.6-.4.6-1,1.2-1.8,1.8s-1.7,1.1-2.9,1.5c-1.1.2-2.5.4-3.9.4h0ZM237.8,702.7h8.8c0-1.1-.2-2-.5-2.8s-.8-1.4-1.5-1.8c-.7-.4-1.5-.7-2.4-.7s-1.7.2-2.4.7c-.7.4-1.2,1-1.5,1.8s-.5,1.7-.5,2.7h0s0,0,0,0h0Z"/>
        <path class="cls-6" d="M255.3,714.8c-.2,0-.4,0-.6-.3-.2-.2-.3-.4-.3-.6s0-.2.1-.3c0,0,.1-.2.2-.4l6.8-9.1-6.3-8.5c-.1,0-.1-.3-.2-.4,0,0-.1-.2-.1-.3,0-.2.1-.4.3-.6.2-.2.4-.3.6-.3h3.5c.3,0,.6,0,.7.2.2.2.3.3.4.4l4.5,6,4.5-6c.1,0,.2-.3.4-.4.1-.2.4-.2.7-.2h3.3c.2,0,.4,0,.6.3s.3.4.3.6,0,.3-.1.4l-.2.4-6.4,8.6,6.8,9c.1.2.2.3.2.4s.1.2.1.3c0,.2-.1.4-.3.6-.2.2-.4.3-.6.3h-3.6c-.3,0-.5,0-.7-.2-.2,0-.3-.3-.4-.4l-4.8-6.3-4.9,6.3c-.1,0-.2.3-.4.4-.1,0-.4.2-.7.2h-3.4,0Z"/>
        <path class="cls-6" d="M144.7,752.9c-.3,0-.5,0-.7-.3s-.3-.4-.3-.7v-2.6c0-.3.1-.5.3-.7s.4-.3.7-.3h12.3c.3,0,.5,0,.7.3s.3.4.3.7v2.6c0,.3-.1.5-.3.7s-.4.3-.7.3h-12.3Z"/>
        <path class="cls-6" d="M188.3,770.1c-.3,0-.5,0-.7-.3s-.3-.4-.3-.7v-9c-.6.8-1.5,1.5-2.5,2s-2.2.8-3.7.8-2.6-.2-3.6-.7-1.9-1.1-2.6-2c-.7-.8-1.2-1.8-1.6-2.9-.4-1.1-.6-2.4-.6-3.7v-2.8c.1-1.4.3-2.6.7-3.8s.9-2.1,1.6-3c.7-.8,1.6-1.5,2.6-1.9,1-.5,2.2-.7,3.6-.7s2.8.3,3.9.8c1,.6,1.9,1.3,2.5,2.1v-1.6c0-.3.1-.5.3-.7s.4-.3.7-.3h3.2c.3,0,.5,0,.7.3s.3.4.3.7v26.3c0,.3-.1.5-.3.7s-.4.3-.7.3h-3.5,0ZM182.8,758.7c1.1,0,1.9-.2,2.6-.7.7-.5,1.2-1.1,1.5-1.8s.5-1.5.5-2.3c.1-.5.1-1,.1-1.6s0-1-.1-1.5c0-.8-.2-1.6-.5-2.4-.3-.8-.8-1.4-1.5-1.9s-1.5-.8-2.6-.8-2,.2-2.7.7-1.1,1.1-1.4,1.9-.4,1.7-.5,2.6c-.1.8-.1,1.6,0,2.4.1,1,.2,1.8.5,2.6s.7,1.4,1.4,1.9c.7.6,1.6.9,2.7.9h0Z"/>
        <path class="cls-6" d="M205.7,762.9c-1.6,0-3-.4-4.2-1.1-1.2-.7-2.1-1.8-2.7-3.1-.6-1.3-1-2.9-1-4.8v-11.2c0-.3.1-.5.3-.7s.4-.3.7-.3h3.5c.3,0,.5,0,.7.3s.3.4.3.7v10.9c0,3.3,1.4,4.9,4.3,4.9s2.5-.4,3.3-1.3c.8-.9,1.2-2.1,1.2-3.6v-10.9c0-.3.1-.5.3-.7s.4-.3.7-.3h3.5c.3,0,.5,0,.7.3s.3.4.3.7v18.8c0,.3-.1.5-.3.7s-.4.3-.7.3h-3.2c-.3,0-.5,0-.7-.3s-.3-.4-.3-.7v-1.6c-.7.9-1.6,1.7-2.7,2.2-1.1.5-2.4.8-4,.8h0Z"/>
        <path class="cls-6" d="M231.6,762.9c-2.9,0-5.3-.8-7-2.5s-2.7-4.1-2.8-7.2v-2c.1-2,.6-3.7,1.4-5.2.8-1.4,1.9-2.6,3.4-3.3,1.4-.8,3.1-1.2,5-1.2s3.9.4,5.4,1.3c1.5.9,2.6,2.1,3.3,3.7.7,1.6,1.1,3.4,1.1,5.5v.8c0,.3-.1.5-.3.7s-.4.3-.7.3h-13.2v.3c0,.9.2,1.8.5,2.6s.8,1.4,1.5,1.9c.6.5,1.4.7,2.3.7s1.4,0,1.9-.3.9-.5,1.2-.8.5-.5.7-.7c.2-.3.4-.5.6-.6h4.1c.3,0,.5,0,.7.2s.2.4.2.6c0,.4-.2.9-.7,1.6-.4.6-1,1.2-1.8,1.8s-1.7,1.1-2.9,1.5c-1.1.2-2.4.4-3.9.4h0ZM227.2,750.4h8.8c0-1.1-.2-2-.5-2.8s-.8-1.4-1.5-1.8c-.7-.4-1.5-.7-2.4-.7s-1.7.2-2.4.7c-.7.4-1.2,1-1.5,1.8s-.5,1.7-.5,2.7h0Z"/>
        <path class="cls-6" d="M246.6,762.5c-.3,0-.5,0-.7-.3s-.3-.4-.3-.7v-18.7c0-.3.1-.5.3-.7s.4-.3.7-.3h3.2c.3,0,.5,0,.7.3s.3.4.3.7v1.6c.6-.8,1.4-1.5,2.4-1.9,1-.5,2.1-.7,3.4-.7h1.6c.3,0,.5,0,.7.3s.3.4.3.7v2.9c0,.3-.1.5-.3.7s-.4.3-.7.3h-3.2c-1.3,0-2.3.4-3,1.1-.7.7-1.1,1.7-1.1,3v10.9c0,.3-.1.5-.3.7s-.4.3-.7.3h-3.3v-.2h0Z"/>
        <path class="cls-6" d="M265.9,770.1c-.2,0-.4,0-.6-.2s-.2-.3-.2-.6v-.3s.1-.2.1-.3l3.1-7.4-7.6-18c-.1-.3-.2-.5-.2-.6,0-.2.1-.4.3-.6.2-.2.4-.3.6-.3h3.2c.3,0,.6,0,.7.2.2.2.3.3.4.5l5.3,13,5.4-13c.1-.2.2-.4.4-.5.2,0,.4-.2.7-.2h3.2c.2,0,.4,0,.6.2s.3.3.3.6-.1.4-.2.6l-11.3,26c-.1.2-.2.4-.4.5-.2,0-.4.2-.7.2h-3.1v.2h0Z"/>
      </g>
      <g>
        <path class="cls-6" d="M309.9,705c-.3,0-.5,0-.7-.3s-.3-.4-.3-.7v-2.6c0-.3.1-.5.3-.7.2-.2.4-.3.7-.3h12.2c.3,0,.5,0,.7.3s.3.4.3.7v2.6c0,.3-.1.5-.3.7-.2.2-.4.3-.7.3h-12.2Z"/>
        <path class="cls-6" d="M347.7,715c-1.9,0-3.6-.4-5-1.1-1.4-.7-2.6-1.8-3.4-3.1s-1.3-3-1.3-5v-3.2c.1-1.9.5-3.6,1.3-5s1.9-2.4,3.4-3.1c1.4-.7,3.1-1.1,5-1.1s3.1.2,4.3.7c1.2.5,2.2,1.1,2.9,1.8.8.7,1.3,1.5,1.7,2.3.4.8.6,1.5.6,2.1s-.1.5-.3.7c-.2.2-.4.3-.7.3h-3.5c-.3,0-.5,0-.6-.2-.1,0-.3-.3-.4-.6-.4-1.1-.9-1.8-1.6-2.2-.6-.4-1.5-.7-2.5-.7s-2.4.4-3.2,1.3-1.2,2.2-1.3,4c-.1,1-.1,1.9,0,2.8.1,1.8.5,3.2,1.3,4s1.8,1.2,3.2,1.2,1.9-.2,2.5-.7,1.2-1.2,1.6-2.2c.1-.3.3-.5.4-.6s.4-.2.6-.2h3.5c.3,0,.5,0,.7.3s.3.4.3.7c0,.5-.2,1-.4,1.6-.2.6-.6,1.2-1.1,1.8s-1.1,1.2-1.8,1.7c-.7.5-1.6.9-2.7,1.3-.9.3-2.1.4-3.5.4Z"/>
        <path class="cls-6" d="M367.4,715c-1.4,0-2.6-.3-3.7-.8s-2-1.3-2.6-2.2-1-1.9-1-3.1c0-1.9.8-3.3,2.3-4.4s3.5-1.8,5.9-2.2l5.4-.8v-.8c0-1.1-.3-2-.8-2.6-.6-.6-1.5-.9-2.9-.9s-1.7.2-2.3.6c-.6.4-1,.9-1.3,1.5-.2.3-.5.5-.9.5h-3.1c-.3,0-.5,0-.7-.2-.1-.2-.2-.4-.2-.6,0-.4.2-.9.5-1.5s.8-1.2,1.5-1.8,1.6-1.1,2.6-1.5,2.4-.6,3.9-.6,3.1.2,4.2.6c1.2.4,2.1,1,2.8,1.7.7.7,1.2,1.5,1.5,2.4s.5,1.9.5,2.9v12.5c0,.3-.1.5-.3.7-.2.2-.4.3-.7.3h-3.2c-.3,0-.5,0-.7-.3s-.3-.4-.3-.7v-1.6c-.3.5-.8.9-1.4,1.4s-1.3.8-2.1,1.1-1.7.4-2.9.4h0ZM368.8,711.2c.9,0,1.8-.2,2.5-.6.8-.4,1.4-1,1.8-1.8s.7-1.9.7-3.2v-.8l-4,.6c-1.6.2-2.7.6-3.5,1.2-.8.5-1.2,1.2-1.2,1.9s.2,1.1.5,1.5.8.7,1.4.9,1.2.3,1.8.3h0Z"/>
        <path class="cls-6" d="M393.1,715c-1.9,0-3.6-.4-5-1.1-1.4-.7-2.6-1.8-3.4-3.1s-1.3-3-1.3-5v-3.2c.1-1.9.5-3.6,1.3-5s1.9-2.4,3.4-3.1c1.4-.7,3.1-1.1,5-1.1s3.1.2,4.3.7c1.2.5,2.2,1.1,2.9,1.8.8.7,1.3,1.5,1.7,2.3.4.8.6,1.5.6,2.1s-.1.5-.3.7c-.2.2-.4.3-.7.3h-3.5c-.3,0-.5,0-.6-.2-.1,0-.3-.3-.4-.6-.4-1.1-.9-1.8-1.6-2.2-.6-.4-1.5-.7-2.5-.7s-2.4.4-3.2,1.3-1.2,2.2-1.3,4c-.1,1-.1,1.9,0,2.8.1,1.8.5,3.2,1.3,4s1.8,1.2,3.2,1.2,1.9-.2,2.5-.7,1.2-1.2,1.6-2.2c.1-.3.3-.5.4-.6s.4-.2.6-.2h3.5c.3,0,.5,0,.7.3s.3.4.3.7c0,.5-.2,1-.4,1.6-.2.6-.6,1.2-1.1,1.8s-1.1,1.2-1.8,1.7c-.7.5-1.6.9-2.7,1.3-.9.3-2.1.4-3.5.4Z"/>
        <path class="cls-6" d="M407.8,714.6c-.3,0-.5,0-.7-.3s-.3-.4-.3-.7v-26.3c0-.3.1-.5.3-.7.2-.2.4-.3.7-.3h3.5c.3,0,.5,0,.7.3s.3.4.3.7v9.1c.7-.8,1.6-1.5,2.6-2.1,1-.5,2.3-.8,3.8-.8s3,.4,4.2,1.1c1.2.7,2.1,1.8,2.8,3.1s1,2.9,1,4.8v11.2c0,.3-.1.5-.3.7-.2.2-.4.3-.7.3h-3.6c-.3,0-.5,0-.7-.3s-.3-.4-.3-.7v-10.9c0-1.5-.4-2.7-1.1-3.6-.8-.9-1.8-1.3-3.3-1.3s-2.5.4-3.3,1.3-1.3,2.1-1.3,3.6v10.9c0,.3-.1.5-.3.7-.2.2-.4.3-.7.3h-3.3Z"/>
        <path class="cls-6" d="M440.8,715c-2.9,0-5.3-.8-7-2.5s-2.7-4.1-2.8-7.2v-2c.1-2,.6-3.7,1.4-5.2.8-1.4,1.9-2.6,3.4-3.3,1.4-.8,3.1-1.2,5-1.2s3.9.4,5.4,1.3c1.5.9,2.6,2.1,3.3,3.7.7,1.6,1.1,3.4,1.1,5.5v.8c0,.3-.1.5-.3.7-.2.2-.4.3-.7.3h-13.2v.3c0,.9.2,1.8.5,2.6s.8,1.4,1.5,1.9c.6.5,1.4.7,2.3.7s1.4,0,1.9-.3.9-.5,1.2-.8l.7-.7c.2-.3.4-.5.6-.6h4.1c.3,0,.5,0,.7.2s.2.4.2.6c0,.4-.2.9-.7,1.6-.4.6-1,1.2-1.8,1.8s-1.7,1.1-2.9,1.5c-1.1.2-2.5.4-3.9.4h0ZM436.4,702.5h8.8c0-1.1-.2-2-.5-2.8s-.8-1.4-1.5-1.8c-.7-.4-1.5-.7-2.4-.7s-1.7.2-2.4.7c-.7.4-1.2,1-1.5,1.8s-.5,1.7-.5,2.7h0Z"/>
        <path class="cls-6" d="M309.9,752.7c-.3,0-.5,0-.7-.3s-.3-.4-.3-.7v-2.6c0-.3.1-.5.3-.7.2-.2.4-.3.7-.3h12.2c.3,0,.5,0,.7.3s.3.4.3.7v2.6c0,.3-.1.5-.3.7-.2.2-.4.3-.7.3h-12.2Z"/>
        <path class="cls-6" d="M346.6,762.7c-1.6,0-2.9-.2-4.1-.6-1.1-.4-2-.8-2.8-1.4-.7-.6-1.2-1.1-1.6-1.7-.3-.6-.5-1-.6-1.4,0-.3.1-.5.3-.7.2-.2.4-.3.7-.3h3.4s.2,0,.3.2c.3.3.7.6,1.1.9.4.3.8.6,1.4.8.5.2,1.2.3,2,.3s1.9-.2,2.6-.6c.7-.4,1.1-1,1.1-1.8s-.2-1-.5-1.4c-.3-.3-.9-.7-1.7-.9-.8-.3-2-.6-3.5-.9-1.5-.3-2.7-.8-3.7-1.3s-1.7-1.2-2.2-2-.7-1.7-.7-2.8.3-2,.9-3c.6-.9,1.6-1.7,2.8-2.3,1.2-.6,2.8-.9,4.6-.9s2.7.2,3.7.5c1.1.4,1.9.8,2.6,1.3s1.2,1.1,1.6,1.6.6,1,.6,1.4-.1.5-.2.7c-.2.2-.4.3-.6.3h-3.3c-.1,0-.2,0-.3-.2-.3-.3-.6-.5-1-.9-.3-.3-.8-.6-1.3-.8s-1.1-.3-1.9-.3-1.8.2-2.3.7c-.5.4-.8,1-.8,1.6s.1.8.4,1.2c.3.3.8.6,1.5.9.8.3,1.9.6,3.5.9,1.8.3,3.2.8,4.2,1.4,1,.6,1.8,1.3,2.2,2.1.4.8.7,1.7.7,2.7s-.4,2.3-1.1,3.2c-.7,1-1.7,1.7-3.1,2.2-1.2,1.2-2.9,1.4-4.9,1.4h0Z"/>
        <path class="cls-6" d="M368.8,762.7c-2.9,0-5.3-.8-7-2.5s-2.7-4.1-2.8-7.2v-2c.1-2,.6-3.7,1.4-5.2.8-1.4,1.9-2.6,3.4-3.3,1.4-.8,3.1-1.2,5-1.2s3.9.4,5.4,1.3c1.5.9,2.6,2.1,3.3,3.7.7,1.6,1.1,3.4,1.1,5.5v.8c0,.3-.1.5-.3.7-.2.2-.4.3-.7.3h-13.2v.3c0,.9.2,1.8.5,2.6s.8,1.4,1.5,1.9c.6.5,1.4.7,2.3.7s1.4,0,1.9-.3.9-.5,1.2-.8l.7-.7c.2-.3.4-.5.6-.6h4.1c.3,0,.5,0,.7.2s.2.4.2.6c0,.4-.2.9-.7,1.6-.4.6-1,1.2-1.8,1.8s-1.7,1.1-2.9,1.5c-1.1.2-2.4.4-3.9.4h0ZM364.4,750.2h8.8c0-1.1-.2-2-.5-2.8s-.8-1.4-1.5-1.8c-.7-.4-1.5-.7-2.4-.7s-1.7.2-2.4.7c-.7.4-1.2,1-1.5,1.8s-.5,1.7-.5,2.7h0Z"/>
        <path class="cls-6" d="M383.8,762.3c-.3,0-.5,0-.7-.3s-.3-.4-.3-.7v-18.7c0-.3.1-.5.3-.7.2-.2.4-.3.7-.3h3.2c.3,0,.5,0,.7.3s.3.4.3.7v1.6c.6-.8,1.4-1.5,2.4-1.9,1-.5,2.1-.7,3.4-.7h1.6c.3,0,.5,0,.7.3s.3.4.3.7v2.9c0,.3-.1.5-.3.7s-.4.3-.7.3h-3.1c-1.3,0-2.3.4-3,1.1-.7.7-1.1,1.7-1.1,3v10.9c0,.3-.1.5-.3.7-.2.2-.4.3-.7.3h-3.4v-.2h0Z"/>
        <path class="cls-6" d="M406.7,762.3c-.4,0-.7,0-.9-.3-.2-.2-.4-.4-.5-.7l-7.4-18.4c-.1,0-.1-.3-.1-.4,0-.2.1-.4.3-.6.2-.2.4-.3.6-.3h3.2c.3,0,.6,0,.7.3.2.2.3.3.3.5l5.3,14,5.3-14c.1-.2.2-.3.3-.5.2-.2.4-.3.7-.3h3.3c.2,0,.4,0,.6.3s.3.4.3.6v.4l-7.5,18.4c-.1.3-.3.5-.5.7s-.5.3-1,.3h-3,0Z"/>
        <path class="cls-6" d="M431.1,762.7c-2.9,0-5.3-.8-7-2.5s-2.7-4.1-2.8-7.2v-2c.1-2,.6-3.7,1.4-5.2.8-1.4,1.9-2.6,3.4-3.3,1.4-.8,3.1-1.2,5-1.2s3.9.4,5.4,1.3c1.5.9,2.6,2.1,3.3,3.7.7,1.6,1.1,3.4,1.1,5.5v.8c0,.3-.1.5-.3.7-.2.2-.4.3-.7.3h-13.2v.3c0,.9.2,1.8.5,2.6s.8,1.4,1.5,1.9c.6.5,1.4.7,2.3.7s1.4,0,1.9-.3.9-.5,1.2-.8l.7-.7c.2-.3.4-.5.6-.6h4.1c.3,0,.5,0,.7.2s.2.4.2.6c0,.4-.2.9-.7,1.6-.4.6-1,1.2-1.8,1.8s-1.7,1.1-2.9,1.5c-1.1.2-2.4.4-3.9.4h0ZM426.8,750.2h8.8c0-1.1-.2-2-.5-2.8s-.8-1.4-1.5-1.8c-.7-.4-1.5-.7-2.4-.7s-1.7.2-2.4.7c-.7.4-1.2,1-1.5,1.8s-.5,1.7-.5,2.7h0Z"/>
      </g>
    </g>
    <g id="Gateways">
      <g class="cls-14">
        <text class="cls-13" transform="translate(139.3 666.6)"><tspan x="0" y="0">GATEWAYS</tspan></text>
      </g>
    </g>
    <g id="Mid_R_-_Cherry_copy" data-name="Mid R - Cherry copy">
      <rect class="cls-9" x="556.4" y="594.7" width="446" height="202.3"/>
    </g>
    <g id="Dotted_Lines" data-name="Dotted Lines">
      <g>
        <line class="cls-10" x1="75.1" y1="593.8" x2="81.1" y2="593.8"/>
        <line class="cls-12" x1="93.2" y1="593.8" x2="1001.4" y2="593.8"/>
        <line class="cls-10" x1="1007.5" y1="593.8" x2="1013.5" y2="593.8"/>
      </g>
      <g>
        <line class="cls-10" x1="75" y1="796.5" x2="81" y2="796.5"/>
        <line class="cls-12" x1="93" y1="796.5" x2="1001.3" y2="796.5"/>
        <line class="cls-10" x1="1007.3" y1="796.5" x2="1013.3" y2="796.5"/>
      </g>
    </g>
    <g id="Layer_17" data-name="Layer 17">
      <g class="cls-1">
        <g>
          <path class="cls-7" d="M606.8,708.1c0-31.7-25.5-57.4-57-57.4s-58.3,25.7-58.3,57.4v35.8c0,1.2.5,2.4,1.3,3.2.9.9,2,1.3,3.2,1.3h6.5c1.2,0,2.4-.5,3.2-1.3s1.3-2,1.3-3.2v-29.7c0-2.5,2-4.6,4.5-4.6h9.2c2.5,0,4.5,2,4.5,4.6v29.7c0,1.2.5,2.4,1.3,3.2s2,1.3,3.2,1.3h6.5c1.2,0,2.4-.5,3.2-1.3s1.3-2,1.3-3.2v-9c0-9,4.8-17.4,12.6-21.9s17.4-4.5,25.1,0c7.8,4.5,12.6,12.9,12.6,21.9v9c0,2.5,2,4.6,4.5,4.6h6.4c2.5,0,4.5-2,4.5-4.6l.4-35.8ZM524.4,695.9c-.9,1.4-2,2.5-3.4,3.4-2.4,1.4-5.3,1.7-7.9.7-.4,0-.7-.3-1.1-.5-3-1.7-4.9-4.8-4.9-8.3s1.9-6.6,4.9-8.3c.3-.2.7-.4,1.1-.5,3.4-1.2,7.2-.4,9.8,2.2,1.8,1.7,2.8,4.1,2.8,6.5s-.5,3.4-1.3,4.8h0Z"/>
          <path class="cls-5" d="M611.9,708.1c0-31.7-25.5-57.4-57-57.4s-58.3,25.7-58.3,57.4v35.8c0,1.2.5,2.4,1.3,3.2.9.9,2,1.3,3.2,1.3h6.5c1.2,0,2.4-.5,3.2-1.3s1.3-2,1.3-3.2v-29.7c0-2.5,2-4.6,4.5-4.6h9.2c2.5,0,4.5,2,4.5,4.6v29.7c0,1.2.5,2.4,1.3,3.2s2,1.3,3.2,1.3h6.5c1.2,0,2.4-.5,3.2-1.3s1.3-2,1.3-3.2v-9c0-9,4.8-17.4,12.6-21.9s17.4-4.5,25.1,0c7.8,4.5,12.6,12.9,12.6,21.9v9c0,2.5,2,4.6,4.5,4.6h6.4c2.5,0,4.5-2,4.5-4.6l.4-35.8ZM529.4,695.9c-.9,1.4-2,2.5-3.4,3.4-2.4,1.4-5.3,1.7-7.9.7-.4,0-.7-.3-1.1-.5-3-1.7-4.9-4.8-4.9-8.3s1.9-6.6,4.9-8.3c.3-.2.7-.4,1.1-.5,3.4-1.2,7.2-.4,9.8,2.2,1.8,1.7,2.8,4.1,2.8,6.5,0,1.7-.4,3.4-1.3,4.8h0Z"/>
        </g>
      </g>
    </g>
  </g>
  <g id="Layer_2" data-name="Layer 2">
    <g>
      <path class="cls-6" d="M860.4,675.5c15.7,20.4,5.6,47.9-19.5,53.2-16.9,3.6-35-8.7-38-25.8-3.3-18.9,8.2-35.8,27-38.8,12-1.9,22.2,2.1,30.4,11.5M816.2,691.7c-1.4,5.8-.3,11.1,3.1,16,6.4,9.1,19.1,10.9,28,4,8.6-6.8,9.9-19.8,2.7-28-4.9-5.6-11.1-7.7-18.2-6.4-8,1.5-13,6.4-15.5,14.4h0Z"/>
      <path class="cls-6" d="M773.8,668.1c9.9,20,20,39.8,29.4,59.8,0,.2,0,.5,0,.7-.5.8-1.4.6-2.1.6h-12.1c-1.6,0-2.5-.6-3.2-2.1-6.9-14.7-13.9-29.4-20.9-44-.8-1.6-.9-3-.2-4.7,1.9-4.1,3.7-8.3,5.5-12.4.3-.6.4-1.3,1.3-1.5,1.1.9,1.4,2.2,2.1,3.4l.2.2Z"/>
      <path class="cls-6" d="M756,729.3h-18.3c5.6-11.4,10.9-22,16.1-32.6,1.2.2,1.4.9,1.6,1.5,2.8,5.7,5.6,11.4,8.3,17.1.6,1.2.6,2.3.2,3.5-.9,2.3-2,4.5-2.6,6.9-.7,2.8-2.2,4-5.3,3.6Z"/>
    </g>
  </g>
</svg>