<?xml version="1.0" encoding="UTF-8"?>
<svg id="Layer_1" data-name="Layer 1" xmlns="http://www.w3.org/2000/svg" xmlns:xlink="http://www.w3.org/1999/xlink" version="1.1" viewBox="0 0 1085.9 1011.5">
  <defs>
    <style>
      .cls-1 {
        clip-path: url(#clippath);
      }

      .cls-2, .cls-3, .cls-4, .cls-5, .cls-6, .cls-7, .cls-8, .cls-9 {
        stroke-width: 0px;
      }

      .cls-2, .cls-10, .cls-11, .cls-12 {
        fill: none;
      }

      .cls-3 {
        fill: #a5a09d;
      }

      .cls-4 {
        fill: #222326;
      }

      .cls-10, .cls-11, .cls-12 {
        stroke-miterlimit: 10;
      }

      .cls-10, .cls-12 {
        stroke: #000;
        stroke-width: 11px;
      }

      .cls-5 {
        fill: #323232;
      }

      .cls-11 {
        stroke: #222326;
        stroke-width: 9.6px;
      }

      .cls-6 {
        fill: #000;
      }

      .cls-7 {
        fill: #171717;
      }

      .cls-12 {
        stroke-dasharray: 0 0 0 0 0 0 12 12;
      }

      .cls-8 {
        fill: #fff;
      }

      .cls-13 {
        display: none;
      }

      .cls-9 {
        fill: #e27695;
      }
    </style>
    <clipPath id="clippath">
      <rect class="cls-2" x="138.2" y="642.8" width="120.6" height="97.7"/>
    </clipPath>
  </defs>
  <g id="Layer_6" data-name="Layer 6">
    <path class="cls-4" d="M117,418.3"/>
    <polygon class="cls-8" points="122 426.2 1007.9 429.2 743.1 190.3 677.4 201.3 141.9 406.3 107.1 417.3 122 426.2"/>
  </g>
  <g id="Layer_1-2" data-name="Layer 1-2">
    <g id="Layer_1-3" data-name="Layer 1-3">
      <g id="Layer_1-4" data-name="Layer 1-4">
        <path class="cls-6" d="M1026.2,431.6c0-1.1-.3-2.2-.6-3.2,0-.4-.3-.8-.5-1.2-.5-1-1.1-1.8-1.8-2.7-.2-.3-.4-.5-.6-.8,0-.1,0-.2-.2-.3l-217.4-198.6c-68.4-52.1-100.2-87.9-225.7.5L65.3,421.2s0,.1-.2.1c-.4.2-.8.5-1.2.7-.9.5-1.8,1-2.5,1.7-.4.4-.7.8-1,1.2-.6.7-1.1,1.5-1.5,2.3-.3.5-.4,1.1-.6,1.6-.3.9-.5,1.8-.5,2.7s-.2.6-.2.9v514.6c0,6.6,5.4,12,12,12h944.8c6.6,0,12-5.4,12-12V432.4c0-.3-.2-.5-.2-.8h0ZM1002.3,557.3c-13.7,4.9-21.7,17.6-27.8,27.5-7.8,12.7-12,18.3-19.3,18.3s-11.5-5.6-19.3-18.3c-7.7-12.5-18.3-29.7-39.8-29.7s-32,17.2-39.8,29.7c-7.8,12.7-12,18.3-19.3,18.3s-11.5-5.6-19.3-18.3c-7.7-12.5-18.3-29.7-39.7-29.7s-32,17.2-39.8,29.7c-7.8,12.7-12,18.3-19.3,18.3s-11.5-5.6-19.3-18.3c-7.7-12.5-18.3-29.7-39.7-29.7s-32,17.2-39.7,29.7c-7.8,12.7-12,18.3-19.3,18.3s-11.5-5.6-19.3-18.3c-7.7-12.5-18.3-29.7-39.7-29.7s-32,17.2-39.7,29.7c-7.8,12.7-12,18.3-19.3,18.3s-11.5-5.6-19.3-18.3c-7.7-12.5-18.3-29.7-39.7-29.7s-32,17.2-39.7,29.7c-7.8,12.7-12,18.3-19.3,18.3s-11.5-5.6-19.3-18.3c-7.7-12.5-18.3-29.7-39.7-29.7s-32,17.2-39.7,29.7c-7.8,12.7-12,18.3-19.3,18.3s-11.5-5.6-19.3-18.3c-7.7-12.5-18.3-29.7-39.7-29.7s-32,17.2-39.7,29.7c-7.8,12.7-12,18.3-19.3,18.3s-11.5-5.6-19.3-18.3c-6.1-9.9-14.1-22.6-27.7-27.5v-113h920.8l-.4,113h0ZM81.6,586.7c2.2,2.8,4.5,6.1,7.3,10.7,7.7,12.5,18.3,29.7,39.7,29.7s32-17.2,39.7-29.7c7.8-12.7,12-18.3,19.3-18.3s11.5,5.6,19.3,18.3c7.7,12.5,18.3,29.7,39.7,29.7s32-17.2,39.7-29.7c7.8-12.7,12-18.3,19.3-18.3s11.4,5.6,19.3,18.3c7.7,12.5,18.3,29.7,39.7,29.7s32-17.2,39.7-29.7c7.8-12.7,12-18.3,19.3-18.3s11.5,5.6,19.3,18.3c7.7,12.5,18.3,29.7,39.7,29.7s32-17.2,39.7-29.7c7.8-12.7,12-18.3,19.3-18.3s11.5,5.6,19.3,18.3c7.7,12.5,18.3,29.7,39.7,29.7s32-17.2,39.7-29.7c7.8-12.7,12-18.3,19.3-18.3s11.5,5.6,19.3,18.3c7.7,12.5,18.3,29.7,39.7,29.7s32-17.2,39.7-29.7c7.8-12.7,12-18.3,19.3-18.3s11.5,5.6,19.3,18.3c7.7,12.5,18.3,29.7,39.7,29.7s32-17.2,39.8-29.7c7.8-12.7,12-18.3,19.3-18.3s11.5,5.6,19.3,18.3c7.7,12.5,18.3,29.7,39.8,29.7s32.1-17.2,39.8-29.7c2.8-4.6,5.1-8,7.3-10.8v65.9c-13.7,4.9-21.7,17.6-27.8,27.5-7.8,12.7-12,18.3-19.3,18.3s-11.5-5.6-19.3-18.3c-7.7-12.5-18.3-29.7-39.8-29.7s-32,17.2-39.8,29.7c-7.8,12.7-12,18.3-19.3,18.3s-11.5-5.6-19.3-18.3c-7.7-12.5-18.3-29.7-39.7-29.7s-32,17.2-39.8,29.7c-7.8,12.7-12,18.3-19.3,18.3s-11.5-5.6-19.3-18.3c-7.7-12.5-18.3-29.7-39.7-29.7s-32,17.2-39.7,29.7c-7.8,12.7-12,18.3-19.3,18.3s-11.5-5.6-19.3-18.3c-7.7-12.5-18.3-29.7-39.7-29.7s-32,17.2-39.7,29.7c-7.8,12.7-12,18.3-19.3,18.3s-11.5-5.6-19.3-18.3c-7.7-12.5-18.3-29.7-39.7-29.7s-32,17.2-39.7,29.7c-7.8,12.7-12,18.3-19.3,18.3s-11.5-5.6-19.3-18.3c-7.7-12.5-18.3-29.7-39.7-29.7s-32,17.2-39.7,29.7c-7.8,12.7-12,18.3-19.3,18.3s-11.5-5.6-19.3-18.3c-7.7-12.5-18.3-29.7-39.7-29.7s-32,17.2-39.7,29.7c-7.8,12.7-12,18.3-19.3,18.3s-11.5-5.6-19.3-18.3c-6.1-9.9-14.1-22.6-27.7-27.5v-65.8h.1ZM574.5,252.9c-.6,5.6,237.5,112.1,237.5,16.8s0-4.1-.2-6.1l171.6,156.9H134.8l439.7-167.6h0ZM81.6,865v-183c2.2,2.8,4.5,6.1,7.3,10.7,7.7,12.5,18.3,29.7,39.7,29.7s32-17.2,39.7-29.7c7.8-12.7,12-18.3,19.3-18.3s11.5,5.6,19.3,18.3c7.7,12.5,18.3,29.7,39.7,29.7s32-17.2,39.7-29.7c7.8-12.7,12-18.3,19.3-18.3s11.4,5.6,19.3,18.3c7.7,12.5,18.3,29.7,39.7,29.7s32-17.2,39.7-29.7c7.8-12.7,12-18.3,19.3-18.3s11.5,5.6,19.3,18.3c7.7,12.5,18.3,29.7,39.7,29.7s32-17.2,39.7-29.7c7.8-12.7,12-18.3,19.3-18.3s11.5,5.6,19.3,18.3c7.7,12.5,18.3,29.7,39.7,29.7s32-17.2,39.7-29.7c7.8-12.7,12-18.3,19.3-18.3s11.5,5.6,19.3,18.3c7.7,12.5,18.3,29.7,39.7,29.7s32-17.2,39.7-29.7c7.8-12.7,12-18.3,19.3-18.3s11.5,5.6,19.3,18.3c7.7,12.5,18.3,29.7,39.7,29.7s32-17.2,39.8-29.7c7.8-12.7,12-18.3,19.3-18.3s11.5,5.6,19.3,18.3c7.7,12.5,18.3,29.7,39.8,29.7s32.1-17.2,39.8-29.7c2.8-4.6,5.1-8,7.3-10.8v183H81.6Z"/>
      </g>
    </g>
    <g id="White_Circles" data-name="White Circles">
      <g id="Layer_3" data-name="Layer 3">
        <circle class="cls-8" cx="648.8" cy="225" r="65.8"/>
        <circle class="cls-8" cx="768.1" cy="281.3" r="72.8"/>
      </g>
    </g>
    <path class="cls-6" d="M855.1,45.8h0v-1.3l-.2-.6c-.2-.6-.4-1.1-.7-1.6,0-.3-.2-.5-.3-.7-.4-.9-1.1-1.4-1.4-1.7-.3-.3-.9-1-1.8-1.4-.6-.3-1.2-.5-1.5-.6-.4-.2-1-.4-1.7-.4s-.8-.2-1.1-.2h-2.4c-34.1,7.8-68.1,22.9-98.3,43.7-29.1,20.1-55,45.7-74.9,74.2-7.5-2.4-15-3.6-22.4-3.6-40.4,0-73.2,32.9-73.2,73.2s32.9,73.2,73.2,73.2,26-3.6,37.4-10.4c2.9,43.1,38.9,77.3,82.7,77.3s82.9-37.2,82.9-82.9-24.1-68.8-58.9-79.3c1.5-50.1,15.9-95.2,41.8-130.7,6.1-8.4,11.4-14.1,17.1-18.3.7-.5,1.2-1,1.4-1.5l.4-.4.5-.5.3-.6c.2-.5.4-1,.6-1.5v-.3l.2-.5v-.4c.3-1,.2-1.8.2-2.2h.1ZM652.6,184.4c-1.7-2.3-4.4-3.7-7.4-3.7s-2.7.3-3.9.9c-4.5,2.2-6.4,7.6-4.3,12.1,3.2,6.5,8.8,11.8,15.4,14.7,3.6,1.6,7.8,2.5,12,2.5s6.3-.5,9.2-1.4c4.8-1.5,7.4-6.6,5.9-11.3-1.2-3.7-4.8-6.4-8.7-6.4s-1,0-1.4.1c2.3-4.3,5-8.9,8.1-13.9,16.1,10,26,27.6,26,46.8s0,4.4-.3,6.3c-7.6,9.6-12.8,20.5-15.5,32.3-10.3,10.4-24.7,16.4-39.4,16.4-30.4,0-55.1-24.7-55.1-55.1s24.7-55.1,55.1-55.1,8,.4,12,1.3c-2.7,4.5-5.3,9-7.7,13.5h0ZM768.6,199.1c-17.1,0-33.8,5.3-47.7,15.2-1.4-10.1-5-19.8-10.4-28.4-6-9.4-13.8-17.2-23-23.1,16.9-23.5,37.5-44.4,61.4-61.9,21.5-15.8,44.6-28.3,68.9-37-26.4,37.3-41.3,84-43.3,135.5-1.9-.2-3.9-.3-5.9-.3h0ZM768.5,217.1c1.9,0,3.8.1,5.7.3,0,5.1.3,10.1.7,15-1.7-2.1-4.3-3.4-7-3.4s-3.7.6-5.3,1.7c-1.9,1.4-3.2,3.5-3.6,5.8-.4,2.4,0,4.8,1.6,6.8,4.9,6.8,12.4,12,20.6,14.2,3,.7,5.8,1.1,8.4,1.1,5.7,0,11.4-1.3,16.4-3.9,4.4-2.3,6.1-7.6,4-12.1h0v-.2c-1.6-3-4.7-4.9-8.1-4.9s-2.7.3-4,.9h-.2c-1.3.7-2.7,1.2-4.1,1.5-.5-5.6-.9-11.6-1.2-18.3,10.9,4.4,20.5,11.8,27.6,21.2,8.5,11.3,13,24.8,13,38.9.2,36-28.8,65-64.5,65s-64.8-29.1-64.8-64.8,29.1-64.8,64.8-64.8h0Z"/>
  </g>
  <g id="Cherry_rounder" data-name="Cherry rounder">
    <path class="cls-8" d="M702.4,234.6c-2.9,15.8-12.1,28.8-24.6,36.8-8.7,5.6,20.2-73.4,23.5-61.6,2.2,7.9,2.7,16.3,1.1,24.8h0Z"/>
  </g>
  <g id="White_rectangle" data-name="White rectangle">
    <g id="White_Rectangle" data-name="White Rectangle">
      <rect class="cls-8" x="82" y="444.8" width="920.2" height="491.1"/>
    </g>
  </g>
  <g id="Bottom_-_Grey" data-name="Bottom - Grey">
    <rect class="cls-3" x="81.8" y="797" width="920.5" height="140.7"/>
  </g>
  <g id="Arweave_logo" data-name="Arweave logo">
    <g>
      <path class="cls-4" d="M483.7,889.2c-.2-.5-.4-1-.6-1.6s-.3-1.2-.4-1.9c-.5.6-1.1,1.1-1.8,1.6-.7.5-1.4,1-2.2,1.3-.9.4-1.8.7-2.8.9-1.1.2-2.1.3-3.2.3-1.8,0-3.5-.3-5.2-.8-1.5-.5-2.9-1.3-4.1-2.3-1.1-1-2-2.1-2.6-3.5s-1-2.9-.9-4.4c0-3.9,1.4-6.8,4.3-9,2.9-2.1,7.2-3.2,12.9-3.2h5.2v-2.2c.1-1.6-.6-3.1-1.7-4.2-1.2-1-2.8-1.5-5-1.5s-3.3.4-4.2,1.2c-.9.9-1.4,2.1-1.3,3.3h-9.4c0-1.5.3-3.1,1-4.4.7-1.4,1.8-2.7,3-3.7,1.4-1.1,3.1-2,4.8-2.5,2.1-.7,4.3-1,6.6-1s4.2.3,6.2.8c1.8.5,3.5,1.3,5,2.4,1.4,1.1,2.5,2.4,3.3,4,.8,1.8,1.2,3.7,1.2,5.6v15.7c0,1.6.1,3.3.4,4.9.2,1.2.6,2.3,1.1,3.3v.6h-9.6v.3h0ZM474.7,882.6c.9,0,1.8,0,2.6-.3.8-.2,1.5-.5,2.2-.9.6-.3,1.2-.7,1.7-1.2.4-.4.8-.9,1.1-1.4v-6.3h-4.8c-1.3,0-2.5,0-3.8.4-.9.2-1.8.6-2.5,1.2-.6.5-1.1,1.1-1.5,1.8-.3.7-.5,1.5-.5,2.3,0,1.2.5,2.3,1.3,3.1,1.1.9,2.4,1.3,4.2,1.3h0Z"/>
      <path class="cls-4" d="M534,851.8c1.3,0,2.6,0,3.9.3,1,0,2,.4,3,.6l-1.4,9.4c-1.3-.3-2.5-.5-3.8-.7-1.2,0-2.5-.2-3.7-.2-2.2,0-4.4.4-6.4,1.5-1.6,1-2.9,2.6-3.6,4.4v22h-9.4v-36.6h8.8l.4,6c1.4-2,3.2-3.7,5.4-4.9,2-1.1,4.4-1.8,6.8-1.8Z"/>
      <path class="cls-4" d="M577.9,877.7l3.2-25.1h8.6l-6.6,36.7h-8.3l-4.8-23.3-4.6,23.3h-8.3l-6.6-36.6h8.6l3.2,25.3,4.6-25.3h6.3l4.7,25h0Z"/>
      <path class="cls-4" d="M619.1,889.9c-2.6,0-5.2-.4-7.7-1.4-2.2-.9-4.2-2.1-5.9-3.8s-2.9-3.5-3.8-5.6c-.9-2.2-1.4-4.6-1.3-6.9v-1.4c0-2.6.4-5.2,1.3-7.7.8-2.2,2.1-4.3,3.7-6,1.6-1.7,3.5-3,5.6-3.9,4.5-1.8,9.6-1.9,14.1,0,2,.8,3.8,2.1,5.2,3.7,1.5,1.7,2.6,3.6,3.3,5.7.8,2.4,1.2,4.9,1.1,7.4v4h-24.9c.2,1.2.5,2.3,1.1,3.4,1.1,2,2.9,3.6,5.1,4.4,1.2.4,2.4.6,3.6.6s1.8,0,2.8-.3c.9-.2,1.8-.4,2.6-.8.8-.4,1.6-.8,2.3-1.4.7-.5,1.4-1.1,1.9-1.8l4.7,5.1c-.7.9-1.4,1.7-2.3,2.5-1,.9-2.1,1.6-3.3,2.1-1.4.6-2.8,1.1-4.3,1.5-1.5.5-3.2.7-4.9.7h0ZM618,859.5c-1,0-2,.2-2.9.6-.9.4-1.7.9-2.3,1.6-.7.7-1.3,1.6-1.7,2.5-.5,1-.8,2.1-1,3.3h15.5v-.7c0-1-.2-1.9-.6-2.8-.3-.9-.8-1.6-1.5-2.3s-1.5-1.2-2.3-1.5c-1.1-.5-2.2-.7-3.2-.7h0Z"/>
      <path class="cls-4" d="M671,889.2c-.2-.5-.4-1-.6-1.6-.2-.6-.3-1.2-.4-1.9-.6.6-1.2,1.1-1.8,1.6-.7.5-1.4,1-2.2,1.3-.9.4-1.8.7-2.7.9-1.1.2-2.1.3-3.2.3-1.8,0-3.5-.3-5.2-.8-1.5-.5-2.9-1.3-4-2.3-2.3-2-3.6-4.8-3.6-7.9s1.4-6.8,4.3-9c2.9-2.1,7.2-3.2,12.9-3.2h5.2v-2.2c0-1.6-.6-3.1-1.7-4.2-1.2-1-2.8-1.5-5-1.5s-3.3.4-4.2,1.2c-.9.9-1.4,2.1-1.3,3.3h-9.4c0-1.5.4-3.1,1-4.4.7-1.4,1.7-2.7,3-3.7,1.5-1.1,3.1-2,4.8-2.5,2.1-.7,4.3-1,6.6-1s4.2.3,6.2.8c1.8.5,3.5,1.3,5,2.4,1.4,1.1,2.5,2.4,3.3,4,.8,1.8,1.2,3.7,1.2,5.6v15.7c0,1.6,0,3.3.4,4.9.2,1.2.6,2.3,1.1,3.3v.6h-9.7v.3h0ZM662.1,882.6c.9,0,1.8,0,2.6-.3s1.5-.5,2.2-.9c.6-.3,1.2-.7,1.7-1.2s.8-.9,1.1-1.4v-6.3h-4.8c-1.3,0-2.5,0-3.8.4-.9.2-1.8.6-2.5,1.2-.6.5-1.1,1.1-1.5,1.8-.3.7-.5,1.5-.5,2.3,0,1.2.5,2.3,1.3,3.1,1,.9,2.4,1.3,4.2,1.3h0Z"/>
      <path class="cls-4" d="M710.6,878.3l.5,2.6.5-2.5,8.1-25.9h9.8l-13.9,36.6h-8.9l-14-36.6h9.8l8.1,25.8h0Z"/>
      <path class="cls-4" d="M759.6,889.9c-2.6,0-5.2-.4-7.7-1.4-2.2-.9-4.2-2.1-5.9-3.8-1.7-1.6-3-3.5-3.8-5.6-.9-2.2-1.4-4.6-1.3-6.9v-1.4c0-2.6.4-5.2,1.3-7.7.8-2.2,2.1-4.3,3.7-6,1.6-1.7,3.5-3,5.6-3.9,4.5-1.8,9.6-1.9,14.1,0,2,.8,3.8,2.1,5.2,3.7,1.5,1.7,2.6,3.6,3.3,5.7.8,2.4,1.1,4.9,1.1,7.4v4h-24.9c.2,1.2.5,2.3,1.1,3.4,1.1,2,2.9,3.6,5.1,4.4,1.2.4,2.4.6,3.6.6s1.8,0,2.8-.3c.9-.2,1.8-.4,2.6-.8.8-.4,1.6-.8,2.3-1.4.7-.5,1.4-1.1,1.9-1.8l4.7,5.1c-.7.9-1.4,1.7-2.3,2.5-1,.9-2.1,1.6-3.3,2.1-1.4.6-2.8,1.1-4.3,1.5-1.5.5-3.2.7-4.9.7h0ZM758.5,859.5c-1,0-2,.2-2.9.6-.9.4-1.7.9-2.3,1.6-.7.7-1.3,1.6-1.7,2.5-.5,1-.8,2.1-1,3.3h15.4v-.7c0-1-.2-1.9-.6-2.8-.3-.9-.8-1.6-1.5-2.3s-1.5-1.2-2.3-1.5c-1-.5-2-.7-3.1-.7h0Z"/>
      <path class="cls-4" d="M380.4,889.2c-.2-.5-.4-1-.6-1.6s-.3-1.2-.4-1.9c-.5.6-1.1,1.1-1.8,1.6-.7.5-1.4,1-2.2,1.3-.9.4-1.8.7-2.8.9-1.1.2-2.1.3-3.2.3-1.8,0-3.5-.3-5.2-.8-1.5-.5-2.9-1.3-4-2.3-2.3-2-3.6-4.8-3.6-7.9s1.4-6.8,4.3-9c2.9-2.1,7.2-3.2,12.9-3.2h5.2v-2.2c.1-1.6-.6-3.1-1.7-4.2-1.1-1-2.8-1.5-5-1.5s-3.3.4-4.2,1.2c-.9.9-1.4,2.1-1.3,3.3h-9.4c0-1.5.4-3.1,1-4.4.7-1.4,1.7-2.7,3-3.7,1.4-1.1,3.1-2,4.8-2.5,2.1-.7,4.3-1,6.6-1s4.2.3,6.2.8c1.8.5,3.5,1.3,5,2.4,1.4,1.1,2.6,2.4,3.3,4,.8,1.8,1.2,3.7,1.2,5.6v15.7c0,1.6.1,3.3.4,4.9.2,1.2.6,2.3,1.1,3.3v.6h-9.6v.3h0ZM371.4,882.6c.9,0,1.8,0,2.6-.3.8-.2,1.5-.5,2.2-.9.6-.3,1.2-.7,1.7-1.2.4-.4.8-.9,1.1-1.4v-6.3h-4.8c-1.3,0-2.5,0-3.8.4-.9.2-1.8.6-2.5,1.2-.6.5-1.1,1.1-1.5,1.8-.3.7-.5,1.5-.5,2.3,0,1.2.5,2.4,1.4,3.2s2.3,1.2,4.1,1.2h0Z"/>
      <circle class="cls-11" cx="372.7" cy="871.8" r="45.6"/>
    </g>
  </g>
  <g id="Mid_R_-_Grey" data-name="Mid R - Grey">
    <rect class="cls-3" x="81.9" y="594.7" width="474.4" height="202.3"/>
  </g>
  <g id="Mid_R_-_Grey-2" data-name="Mid R - Grey-2">
    <rect class="cls-3" x="550.8" y="594.7" width="451.6" height="202.3"/>
  </g>
  <g id="Mid_R_-_Cherry_copy" data-name="Mid R - Cherry copy" class="cls-13">
    <rect class="cls-9" x="555.4" y="594.7" width="446" height="202.3"/>
  </g>
  <g id="Gateways_description" data-name="Gateways description" class="cls-13">
    <g>
      <path class="cls-6" d="M143.7,705.1c-.3,0-.5,0-.7-.3s-.3-.4-.3-.7v-2.6c0-.3.1-.5.3-.7s.4-.3.7-.3h12.3c.3,0,.5,0,.7.3s.3.4.3.7v2.6c0,.3-.1.5-.3.7s-.4.3-.7.3h-12.3Z"/>
      <path class="cls-6" d="M173.4,690.7c-.3,0-.5,0-.7-.3s-.3-.4-.3-.7v-2.9c0-.3.1-.5.3-.7s.4-.3.7-.3h3.6c.3,0,.5,0,.7.3s.3.4.3.7v2.9c0,.3-.1.5-.3.7s-.4.3-.7.3h-3.6ZM173.5,714.8c-.3,0-.5,0-.7-.3s-.3-.4-.3-.7v-18.8c0-.3.1-.5.3-.7s.4-.3.7-.3h3.3c.3,0,.5,0,.7.3s.3.4.3.7v18.8c0,.3-.1.5-.3.7s-.4.3-.7.3h-3.3Z"/>
      <path class="cls-6" d="M184,714.8c-.3,0-.5,0-.7-.3s-.3-.4-.3-.7v-18.8c0-.3.1-.5.3-.7s.4-.3.7-.3h3.3c.3,0,.5,0,.7.3s.3.4.3.7v1.6c.7-.8,1.6-1.6,2.6-2.1,1.1-.6,2.4-.9,4-.9s3,.4,4.2,1.1c1.2.7,2.1,1.8,2.8,3.1.6,1.3,1,2.9,1,4.8v11.2c0,.3-.1.5-.3.7s-.4.3-.7.3h-3.5c-.3,0-.5,0-.7-.3s-.3-.4-.3-.7v-10.9c0-1.5-.4-2.7-1.1-3.6s-1.8-1.3-3.3-1.3-2.5.4-3.3,1.3c-.8.9-1.2,2.1-1.2,3.6v10.9c0,.3-.1.5-.3.7s-.4.3-.7.3h-3.5Z"/>
      <path class="cls-6" d="M215.6,715.2c-1.4,0-2.6-.2-3.6-.7s-1.9-1.1-2.6-2c-.7-.8-1.2-1.8-1.6-3-.4-1.2-.6-2.4-.6-3.8v-2.6c.1-1.3.3-2.6.6-3.7s.9-2.1,1.6-3c.7-.9,1.6-1.5,2.6-2s2.3-.7,3.6-.7,2.6.2,3.6.7,1.8,1.1,2.5,1.9v-8.8c0-.3.1-.5.3-.7s.4-.3.7-.3h3.4c.3,0,.5,0,.7.3s.3.4.3.7v26.3c0,.3-.1.5-.3.7s-.4.3-.7.3h-3.1c-.3,0-.5,0-.7-.3s-.3-.4-.3-.7v-1.5c-.7.8-1.5,1.5-2.5,2-1.1.6-2.4.9-3.9.9h0ZM217,710.9c1.1,0,2-.3,2.7-.8s1.2-1.1,1.5-1.9c.3-.8.5-1.6.5-2.4v-3c0-.8-.2-1.6-.6-2.3-.3-.7-.8-1.3-1.5-1.8s-1.5-.7-2.6-.7-2,.2-2.6.7-1.1,1.1-1.4,1.9c-.3.8-.5,1.7-.5,2.6v2.4c.1,1,.2,1.8.5,2.6s.8,1.4,1.4,1.9c.6.6,1.5.8,2.6.8h0Z"/>
      <path class="cls-6" d="M241.2,715.2c-2.9,0-5.3-.8-7-2.5s-2.7-4.1-2.8-7.2v-2c.1-2,.6-3.7,1.4-5.2.8-1.4,1.9-2.6,3.4-3.3,1.4-.8,3.1-1.2,5-1.2s3.9.4,5.4,1.3c1.5.9,2.6,2.1,3.3,3.7.7,1.6,1.1,3.4,1.1,5.5v.8c0,.3-.1.5-.3.7s-.4.3-.7.3h-13.2v.3c0,.9.2,1.8.5,2.6s.8,1.4,1.5,1.9c.6.5,1.4.7,2.3.7s1.4,0,1.9-.3.9-.5,1.2-.8.5-.5.7-.7c.2-.3.4-.5.6-.6h4.1c.3,0,.5,0,.7.2s.2.4.2.6c0,.4-.2.9-.7,1.6-.4.6-1,1.2-1.8,1.8s-1.7,1.1-2.9,1.5c-1.1.2-2.5.4-3.9.4h0ZM236.8,702.7h8.8c0-1.1-.2-2-.5-2.8s-.8-1.4-1.5-1.8c-.7-.4-1.5-.7-2.4-.7s-1.7.2-2.4.7c-.7.4-1.2,1-1.5,1.8s-.5,1.7-.5,2.7h0s0,0,0,0h0Z"/>
      <path class="cls-6" d="M254.3,714.8c-.2,0-.4,0-.6-.3-.2-.2-.3-.4-.3-.6s0-.2.1-.3c0,0,.1-.2.2-.4l6.8-9.1-6.3-8.5c-.1,0-.1-.3-.2-.4,0,0-.1-.2-.1-.3,0-.2.1-.4.3-.6.2-.2.4-.3.6-.3h3.5c.3,0,.6,0,.7.2.2.2.3.3.4.4l4.5,6,4.5-6c.1,0,.2-.3.4-.4.1-.2.4-.2.7-.2h3.3c.2,0,.4,0,.6.3s.3.4.3.6,0,.3-.1.4l-.2.4-6.4,8.6,6.8,9c.1.2.2.3.2.4s.1.2.1.3c0,.2-.1.4-.3.6-.2.2-.4.3-.6.3h-3.6c-.3,0-.5,0-.7-.2-.2,0-.3-.3-.4-.4l-4.8-6.3-4.9,6.3c-.1,0-.2.3-.4.4-.1,0-.4.2-.7.2h-3.4,0Z"/>
      <path class="cls-6" d="M143.7,752.9c-.3,0-.5,0-.7-.3s-.3-.4-.3-.7v-2.6c0-.3.1-.5.3-.7s.4-.3.7-.3h12.3c.3,0,.5,0,.7.3s.3.4.3.7v2.6c0,.3-.1.5-.3.7s-.4.3-.7.3h-12.3Z"/>
      <path class="cls-6" d="M187.3,770.1c-.3,0-.5,0-.7-.3s-.3-.4-.3-.7v-9c-.6.8-1.5,1.5-2.5,2s-2.2.8-3.7.8-2.6-.2-3.6-.7-1.9-1.1-2.6-2c-.7-.8-1.2-1.8-1.6-2.9-.4-1.1-.6-2.4-.6-3.7v-2.8c.1-1.4.3-2.6.7-3.8s.9-2.1,1.6-3c.7-.8,1.6-1.5,2.6-1.9,1-.5,2.2-.7,3.6-.7s2.8.3,3.9.8c1,.6,1.9,1.3,2.5,2.1v-1.6c0-.3.1-.5.3-.7s.4-.3.7-.3h3.2c.3,0,.5,0,.7.3s.3.4.3.7v26.3c0,.3-.1.5-.3.7s-.4.3-.7.3h-3.5,0ZM181.8,758.7c1.1,0,1.9-.2,2.6-.7.7-.5,1.2-1.1,1.5-1.8s.5-1.5.5-2.3c.1-.5.1-1,.1-1.6s0-1-.1-1.5c0-.8-.2-1.6-.5-2.4-.3-.8-.8-1.4-1.5-1.9s-1.5-.8-2.6-.8-2,.2-2.7.7-1.1,1.1-1.4,1.9-.4,1.7-.5,2.6c-.1.8-.1,1.6,0,2.4.1,1,.2,1.8.5,2.6s.7,1.4,1.4,1.9c.7.6,1.6.9,2.7.9h0Z"/>
      <path class="cls-6" d="M204.7,762.9c-1.6,0-3-.4-4.2-1.1-1.2-.7-2.1-1.8-2.7-3.1-.6-1.3-1-2.9-1-4.8v-11.2c0-.3.1-.5.3-.7s.4-.3.7-.3h3.5c.3,0,.5,0,.7.3s.3.4.3.7v10.9c0,3.3,1.4,4.9,4.3,4.9s2.5-.4,3.3-1.3c.8-.9,1.2-2.1,1.2-3.6v-10.9c0-.3.1-.5.3-.7s.4-.3.7-.3h3.5c.3,0,.5,0,.7.3s.3.4.3.7v18.8c0,.3-.1.5-.3.7s-.4.3-.7.3h-3.2c-.3,0-.5,0-.7-.3s-.3-.4-.3-.7v-1.6c-.7.9-1.6,1.7-2.7,2.2-1.1.5-2.4.8-4,.8h0Z"/>
      <path class="cls-6" d="M230.6,762.9c-2.9,0-5.3-.8-7-2.5s-2.7-4.1-2.8-7.2v-2c.1-2,.6-3.7,1.4-5.2.8-1.4,1.9-2.6,3.4-3.3,1.4-.8,3.1-1.2,5-1.2s3.9.4,5.4,1.3c1.5.9,2.6,2.1,3.3,3.7.7,1.6,1.1,3.4,1.1,5.5v.8c0,.3-.1.5-.3.7s-.4.3-.7.3h-13.2v.3c0,.9.2,1.8.5,2.6s.8,1.4,1.5,1.9c.6.5,1.4.7,2.3.7s1.4,0,1.9-.3.9-.5,1.2-.8.5-.5.7-.7c.2-.3.4-.5.6-.6h4.1c.3,0,.5,0,.7.2s.2.4.2.6c0,.4-.2.9-.7,1.6-.4.6-1,1.2-1.8,1.8s-1.7,1.1-2.9,1.5c-1.1.2-2.4.4-3.9.4h0ZM226.2,750.4h8.8c0-1.1-.2-2-.5-2.8s-.8-1.4-1.5-1.8c-.7-.4-1.5-.7-2.4-.7s-1.7.2-2.4.7c-.7.4-1.2,1-1.5,1.8s-.5,1.7-.5,2.7h0Z"/>
      <path class="cls-6" d="M245.6,762.5c-.3,0-.5,0-.7-.3s-.3-.4-.3-.7v-18.7c0-.3.1-.5.3-.7s.4-.3.7-.3h3.2c.3,0,.5,0,.7.3s.3.4.3.7v1.6c.6-.8,1.4-1.5,2.4-1.9,1-.5,2.1-.7,3.4-.7h1.6c.3,0,.5,0,.7.3s.3.4.3.7v2.9c0,.3-.1.5-.3.7s-.4.3-.7.3h-3.2c-1.3,0-2.3.4-3,1.1-.7.7-1.1,1.7-1.1,3v10.9c0,.3-.1.5-.3.7s-.4.3-.7.3h-3.3v-.2h0Z"/>
      <path class="cls-6" d="M264.9,770.1c-.2,0-.4,0-.6-.2s-.2-.3-.2-.6v-.3s.1-.2.1-.3l3.1-7.4-7.6-18c-.1-.3-.2-.5-.2-.6,0-.2.1-.4.3-.6.2-.2.4-.3.6-.3h3.2c.3,0,.6,0,.7.2.2.2.3.3.4.5l5.3,13,5.4-13c.1-.2.2-.4.4-.5.2,0,.4-.2.7-.2h3.2c.2,0,.4,0,.6.2s.3.3.3.6-.1.4-.2.6l-11.3,26c-.1.2-.2.4-.4.5-.2,0-.4.2-.7.2h-3.1v.2h0Z"/>
    </g>
    <g>
      <path class="cls-6" d="M308.9,705c-.3,0-.5,0-.7-.3s-.3-.4-.3-.7v-2.6c0-.3.1-.5.3-.7.2-.2.4-.3.7-.3h12.2c.3,0,.5,0,.7.3s.3.4.3.7v2.6c0,.3-.1.5-.3.7-.2.2-.4.3-.7.3h-12.2Z"/>
      <path class="cls-6" d="M346.7,715c-1.9,0-3.6-.4-5-1.1-1.4-.7-2.6-1.8-3.4-3.1s-1.3-3-1.3-5v-3.2c.1-1.9.5-3.6,1.3-5s1.9-2.4,3.4-3.1c1.4-.7,3.1-1.1,5-1.1s3.1.2,4.3.7c1.2.5,2.2,1.1,2.9,1.8.8.7,1.3,1.5,1.7,2.3.4.8.6,1.5.6,2.1s-.1.5-.3.7c-.2.2-.4.3-.7.3h-3.5c-.3,0-.5,0-.6-.2-.1,0-.3-.3-.4-.6-.4-1.1-.9-1.8-1.6-2.2-.6-.4-1.5-.7-2.5-.7s-2.4.4-3.2,1.3-1.2,2.2-1.3,4c-.1,1-.1,1.9,0,2.8.1,1.8.5,3.2,1.3,4s1.8,1.2,3.2,1.2,1.9-.2,2.5-.7,1.2-1.2,1.6-2.2c.1-.3.3-.5.4-.6s.4-.2.6-.2h3.5c.3,0,.5,0,.7.3s.3.4.3.7c0,.5-.2,1-.4,1.6-.2.6-.6,1.2-1.1,1.8s-1.1,1.2-1.8,1.7c-.7.5-1.6.9-2.7,1.3-.9.3-2.1.4-3.5.4Z"/>
      <path class="cls-6" d="M366.4,715c-1.4,0-2.6-.3-3.7-.8s-2-1.3-2.6-2.2-1-1.9-1-3.1c0-1.9.8-3.3,2.3-4.4s3.5-1.8,5.9-2.2l5.4-.8v-.8c0-1.1-.3-2-.8-2.6-.6-.6-1.5-.9-2.9-.9s-1.7.2-2.3.6c-.6.4-1,.9-1.3,1.5-.2.3-.5.5-.9.5h-3.1c-.3,0-.5,0-.7-.2-.1-.2-.2-.4-.2-.6,0-.4.2-.9.5-1.5s.8-1.2,1.5-1.8,1.6-1.1,2.6-1.5,2.4-.6,3.9-.6,3.1.2,4.2.6c1.2.4,2.1,1,2.8,1.7.7.7,1.2,1.5,1.5,2.4s.5,1.9.5,2.9v12.5c0,.3-.1.5-.3.7-.2.2-.4.3-.7.3h-3.2c-.3,0-.5,0-.7-.3s-.3-.4-.3-.7v-1.6c-.3.5-.8.9-1.4,1.4s-1.3.8-2.1,1.1-1.7.4-2.9.4h0ZM367.8,711.2c.9,0,1.8-.2,2.5-.6.8-.4,1.4-1,1.8-1.8s.7-1.9.7-3.2v-.8l-4,.6c-1.6.2-2.7.6-3.5,1.2-.8.5-1.2,1.2-1.2,1.9s.2,1.1.5,1.5.8.7,1.4.9,1.2.3,1.8.3h0Z"/>
      <path class="cls-6" d="M392.1,715c-1.9,0-3.6-.4-5-1.1-1.4-.7-2.6-1.8-3.4-3.1s-1.3-3-1.3-5v-3.2c.1-1.9.5-3.6,1.3-5s1.9-2.4,3.4-3.1c1.4-.7,3.1-1.1,5-1.1s3.1.2,4.3.7c1.2.5,2.2,1.1,2.9,1.8.8.7,1.3,1.5,1.7,2.3.4.8.6,1.5.6,2.1s-.1.5-.3.7c-.2.2-.4.3-.7.3h-3.5c-.3,0-.5,0-.6-.2-.1,0-.3-.3-.4-.6-.4-1.1-.9-1.8-1.6-2.2-.6-.4-1.5-.7-2.5-.7s-2.4.4-3.2,1.3-1.2,2.2-1.3,4c-.1,1-.1,1.9,0,2.8.1,1.8.5,3.2,1.3,4s1.8,1.2,3.2,1.2,1.9-.2,2.5-.7,1.2-1.2,1.6-2.2c.1-.3.3-.5.4-.6s.4-.2.6-.2h3.5c.3,0,.5,0,.7.3s.3.4.3.7c0,.5-.2,1-.4,1.6-.2.6-.6,1.2-1.1,1.8s-1.1,1.2-1.8,1.7c-.7.5-1.6.9-2.7,1.3-.9.3-2.1.4-3.5.4Z"/>
      <path class="cls-6" d="M406.8,714.6c-.3,0-.5,0-.7-.3s-.3-.4-.3-.7v-26.3c0-.3.1-.5.3-.7.2-.2.4-.3.7-.3h3.5c.3,0,.5,0,.7.3s.3.4.3.7v9.1c.7-.8,1.6-1.5,2.6-2.1,1-.5,2.3-.8,3.8-.8s3,.4,4.2,1.1c1.2.7,2.1,1.8,2.8,3.1s1,2.9,1,4.8v11.2c0,.3-.1.5-.3.7-.2.2-.4.3-.7.3h-3.6c-.3,0-.5,0-.7-.3s-.3-.4-.3-.7v-10.9c0-1.5-.4-2.7-1.1-3.6-.8-.9-1.8-1.3-3.3-1.3s-2.5.4-3.3,1.3-1.3,2.1-1.3,3.6v10.9c0,.3-.1.5-.3.7-.2.2-.4.3-.7.3h-3.3Z"/>
      <path class="cls-6" d="M439.8,715c-2.9,0-5.3-.8-7-2.5s-2.7-4.1-2.8-7.2v-2c.1-2,.6-3.7,1.4-5.2.8-1.4,1.9-2.6,3.4-3.3,1.4-.8,3.1-1.2,5-1.2s3.9.4,5.4,1.3c1.5.9,2.6,2.1,3.3,3.7.7,1.6,1.1,3.4,1.1,5.5v.8c0,.3-.1.5-.3.7-.2.2-.4.3-.7.3h-13.2v.3c0,.9.2,1.8.5,2.6s.8,1.4,1.5,1.9c.6.5,1.4.7,2.3.7s1.4,0,1.9-.3.9-.5,1.2-.8l.7-.7c.2-.3.4-.5.6-.6h4.1c.3,0,.5,0,.7.2s.2.4.2.6c0,.4-.2.9-.7,1.6-.4.6-1,1.2-1.8,1.8s-1.7,1.1-2.9,1.5c-1.1.2-2.5.4-3.9.4h0ZM435.4,702.5h8.8c0-1.1-.2-2-.5-2.8s-.8-1.4-1.5-1.8c-.7-.4-1.5-.7-2.4-.7s-1.7.2-2.4.7c-.7.4-1.2,1-1.5,1.8s-.5,1.7-.5,2.7h0Z"/>
      <path class="cls-6" d="M308.9,752.7c-.3,0-.5,0-.7-.3s-.3-.4-.3-.7v-2.6c0-.3.1-.5.3-.7.2-.2.4-.3.7-.3h12.2c.3,0,.5,0,.7.3s.3.4.3.7v2.6c0,.3-.1.5-.3.7-.2.2-.4.3-.7.3h-12.2Z"/>
      <path class="cls-6" d="M345.6,762.7c-1.6,0-2.9-.2-4.1-.6-1.1-.4-2-.8-2.8-1.4-.7-.6-1.2-1.1-1.6-1.7-.3-.6-.5-1-.6-1.4,0-.3.1-.5.3-.7.2-.2.4-.3.7-.3h3.4s.2,0,.3.2c.3.3.7.6,1.1.9.4.3.8.6,1.4.8.5.2,1.2.3,2,.3s1.9-.2,2.6-.6c.7-.4,1.1-1,1.1-1.8s-.2-1-.5-1.4c-.3-.3-.9-.7-1.7-.9-.8-.3-2-.6-3.5-.9-1.5-.3-2.7-.8-3.7-1.3s-1.7-1.2-2.2-2-.7-1.7-.7-2.8.3-2,.9-3c.6-.9,1.6-1.7,2.8-2.3,1.2-.6,2.8-.9,4.6-.9s2.7.2,3.7.5c1.1.4,1.9.8,2.6,1.3s1.2,1.1,1.6,1.6.6,1,.6,1.4-.1.5-.2.7c-.2.2-.4.3-.6.3h-3.3c-.1,0-.2,0-.3-.2-.3-.3-.6-.5-1-.9-.3-.3-.8-.6-1.3-.8s-1.1-.3-1.9-.3-1.8.2-2.3.7c-.5.4-.8,1-.8,1.6s.1.8.4,1.2c.3.3.8.6,1.5.9.8.3,1.9.6,3.5.9,1.8.3,3.2.8,4.2,1.4,1,.6,1.8,1.3,2.2,2.1.4.8.7,1.7.7,2.7s-.4,2.3-1.1,3.2c-.7,1-1.7,1.7-3.1,2.2-1.2,1.2-2.9,1.4-4.9,1.4h0Z"/>
      <path class="cls-6" d="M367.8,762.7c-2.9,0-5.3-.8-7-2.5s-2.7-4.1-2.8-7.2v-2c.1-2,.6-3.7,1.4-5.2.8-1.4,1.9-2.6,3.4-3.3,1.4-.8,3.1-1.2,5-1.2s3.9.4,5.4,1.3c1.5.9,2.6,2.1,3.3,3.7.7,1.6,1.1,3.4,1.1,5.5v.8c0,.3-.1.5-.3.7-.2.2-.4.3-.7.3h-13.2v.3c0,.9.2,1.8.5,2.6s.8,1.4,1.5,1.9c.6.5,1.4.7,2.3.7s1.4,0,1.9-.3.9-.5,1.2-.8l.7-.7c.2-.3.4-.5.6-.6h4.1c.3,0,.5,0,.7.2s.2.4.2.6c0,.4-.2.9-.7,1.6-.4.6-1,1.2-1.8,1.8s-1.7,1.1-2.9,1.5c-1.1.2-2.4.4-3.9.4h0ZM363.4,750.2h8.8c0-1.1-.2-2-.5-2.8s-.8-1.4-1.5-1.8c-.7-.4-1.5-.7-2.4-.7s-1.7.2-2.4.7c-.7.4-1.2,1-1.5,1.8s-.5,1.7-.5,2.7h0Z"/>
      <path class="cls-6" d="M382.8,762.3c-.3,0-.5,0-.7-.3s-.3-.4-.3-.7v-18.7c0-.3.1-.5.3-.7.2-.2.4-.3.7-.3h3.2c.3,0,.5,0,.7.3s.3.4.3.7v1.6c.6-.8,1.4-1.5,2.4-1.9,1-.5,2.1-.7,3.4-.7h1.6c.3,0,.5,0,.7.3s.3.4.3.7v2.9c0,.3-.1.5-.3.7s-.4.3-.7.3h-3.1c-1.3,0-2.3.4-3,1.1-.7.7-1.1,1.7-1.1,3v10.9c0,.3-.1.5-.3.7-.2.2-.4.3-.7.3h-3.4v-.2h0Z"/>
      <path class="cls-6" d="M405.7,762.3c-.4,0-.7,0-.9-.3-.2-.2-.4-.4-.5-.7l-7.4-18.4c-.1,0-.1-.3-.1-.4,0-.2.1-.4.3-.6.2-.2.4-.3.6-.3h3.2c.3,0,.6,0,.7.3.2.2.3.3.3.5l5.3,14,5.3-14c.1-.2.2-.3.3-.5.2-.2.4-.3.7-.3h3.3c.2,0,.4,0,.6.3s.3.4.3.6v.4l-7.5,18.4c-.1.3-.3.5-.5.7s-.5.3-1,.3h-3,0Z"/>
      <path class="cls-6" d="M430.1,762.7c-2.9,0-5.3-.8-7-2.5s-2.7-4.1-2.8-7.2v-2c.1-2,.6-3.7,1.4-5.2.8-1.4,1.9-2.6,3.4-3.3,1.4-.8,3.1-1.2,5-1.2s3.9.4,5.4,1.3c1.5.9,2.6,2.1,3.3,3.7.7,1.6,1.1,3.4,1.1,5.5v.8c0,.3-.1.5-.3.7-.2.2-.4.3-.7.3h-13.2v.3c0,.9.2,1.8.5,2.6s.8,1.4,1.5,1.9c.6.5,1.4.7,2.3.7s1.4,0,1.9-.3.9-.5,1.2-.8l.7-.7c.2-.3.4-.5.6-.6h4.1c.3,0,.5,0,.7.2s.2.4.2.6c0,.4-.2.9-.7,1.6-.4.6-1,1.2-1.8,1.8s-1.7,1.1-2.9,1.5c-1.1.2-2.4.4-3.9.4h0ZM425.8,750.2h8.8c0-1.1-.2-2-.5-2.8s-.8-1.4-1.5-1.8c-.7-.4-1.5-.7-2.4-.7s-1.7.2-2.4.7c-.7.4-1.2,1-1.5,1.8s-.5,1.7-.5,2.7h0Z"/>
    </g>
  </g>
  <g id="Gateways">
    <g>
      <path class="cls-6" d="M559,722.1c-3,0-5.7-.5-7.8-1.6-2.2-1-3.9-2.6-5.1-4.5-1.2-2-1.9-4.4-2-7.2,0-1.4,0-2.9,0-4.5s0-3,0-4.6c0-2.8.7-5.1,2-7.1,1.2-1.9,2.9-3.4,5.1-4.5,2.2-1,4.8-1.6,7.8-1.6s4.6.3,6.3.9c1.7.6,3.4,1.4,4.6,2.4,1.3,1,2.2,2.1,2.9,3.3s1,2.3,1,3.4,0,.6-.3.8-.5.3-.8.3h-6.1c-.3,0-.6,0-.8-.2-.2,0-.3-.3-.5-.6-.2-.6-.6-1.2-1.1-1.7s-1.2-1.1-2-1.6c-.9-.4-2-.6-3.4-.6-2.1,0-3.7.5-4.9,1.6s-1.9,2.9-2,5.2c0,2.8,0,5.7,0,8.6,0,2.6.8,4.4,2,5.4s2.9,1.7,5,1.7,2.6-.2,3.6-.7c1.1-.5,1.9-1.2,2.5-2.2s.9-2.3.9-3.9v-1.2h-5.3c-.3,0-.6,0-.8-.4s-.3-.5-.3-.9v-3.2c0-.4,0-.7.3-.9s.5-.3.8-.3h12.1c.4,0,.7,0,.9.3s.3.5.3.9v5.3c0,2.8-.6,5.2-1.9,7.3-1.2,2-2.9,3.5-5.2,4.6-1.9,1.3-4.6,1.7-7.6,1.7h0Z"/>
      <path class="cls-6" d="M587.1,722.1c-1.7,0-3.3-.3-4.7-1s-2.5-1.6-3.3-2.7c-.8-1.2-1.2-2.4-1.2-3.9,0-2.3.9-4.1,2.8-5.4,1.9-1.4,4.4-2.3,7.5-2.8l6.4-.9v-.9c0-1.3-.3-2.3-.9-2.9-.6-.7-1.6-1-3-1s-2,.2-2.6.6c-.7.4-1.2,1-1.5,1.7-.3.4-.6.6-1.1.6h-4.7c-.4,0-.6,0-.8-.3s-.3-.5-.2-.8c0-.6.2-1.2.6-2,.4-.8,1.1-1.5,2-2.2s2-1.4,3.4-1.9,3-.7,5.1-.7,3.9.2,5.2.7c1.5.5,2.7,1.2,3.6,2.1s1.5,1.9,2,3,.6,2.4.6,3.8v15.2c0,.4,0,.7-.3.9s-.5.3-.9.3h-4.8c-.3,0-.6,0-.8-.3s-.3-.5-.3-.9v-1.7c-.4.6-1,1.2-1.7,1.7-.7.5-1.6,1-2.6,1.3-1.3.3-2.5.4-3.9.4v.3ZM589,717c1.1,0,2.1-.2,2.9-.7.9-.5,1.5-1.2,2-2.1.5-1,.7-2.2.7-3.6v-.8l-4.6.7c-1.7.3-3,.7-3.9,1.3-.8.6-1.2,1.3-1.2,2.2s.2,1.2.6,1.6c.4.5.9.8,1.5,1,.7.3,1.3.4,2,.4h0Z"/>
      <path class="cls-6" d="M620.2,721.6c-2,0-3.8-.3-5.2-1s-2.5-1.7-3.3-3c-.7-1.4-1.1-3.2-1.1-5.2v-10.3h-3.9c-.4,0-.7,0-.9-.3s-.3-.5-.3-.9v-3.4c0-.4,0-.7.3-.9s.5-.3.9-.3h3.9v-8.2c0-.4,0-.7.4-.9.2-.2.5-.3.9-.3h4.8c.4,0,.7,0,.9.3s.3.5.3.9v8.2h6.2c.3,0,.6,0,.8.3s.3.5.3.9v3.4c0,.4,0,.7-.3.9s-.5.3-.8.3h-6.2v9.8c0,1.3.2,2.2.7,2.9.4.7,1.2,1.1,2.3,1.1h3.6c.3,0,.6,0,.8.3s.3.5.3.8v3.7c0,.4,0,.7-.3.9s-.5.3-.8.3h-4.3Z"/>
      <path class="cls-6" d="M641.2,722.1c-3.8,0-6.7-1.1-8.9-3.2s-3.4-5.2-3.5-9.1v-2.2c0-2.5.7-4.7,1.7-6.4s2.5-3.2,4.2-4.1,4-1.5,6.4-1.5,5.1.6,6.9,1.7c1.9,1.1,3.3,2.7,4.1,4.6.9,2,1.4,4.1,1.4,6.6v1.1c0,.3,0,.6-.4.8s-.5.3-.9.3h-16.1v.4c0,1.1.2,2,.6,2.9.4.9.9,1.6,1.6,2.1.7.5,1.6.8,2.5.8s1.5,0,2-.3,1-.5,1.3-.8l.8-.8c.3-.3.5-.5.7-.6s.5,0,.9,0h5.1c.3,0,.6,0,.8.3s.3.4.3.8-.3,1.2-.8,2-1.3,1.5-2.2,2.3c-1,.7-2.2,1.4-3.7,1.9-1.3.5-2.9.7-4.9.7v-.2ZM636.4,706.5h9.7c0-1.3-.2-2.3-.6-3.2-.4-.9-.9-1.6-1.7-2.1-.7-.5-1.6-.7-2.6-.7s-1.9.2-2.6.7c-.7.5-1.3,1.2-1.7,2.1-.3.9-.5,1.9-.5,3.2h-.2Z"/>
      <path class="cls-6" d="M664.7,721.6c-.5,0-.8,0-1.1-.3-.2-.2-.4-.5-.6-.9l-7.1-22.7c0-.2,0-.3,0-.5,0-.3,0-.6.3-.8s.5-.3.8-.3h4.2c.4,0,.8,0,1,.3s.4.4.4.6l4.5,15.2,4.8-15.1c0-.2.2-.5.5-.7s.6-.4,1.1-.4h2.8c.5,0,.8,0,1.1.4.2.2.4.5.5.7l4.8,15.1,4.5-15.2c0-.2.2-.4.4-.6.2-.2.6-.3,1-.3h4.2c.3,0,.6,0,.8.3s.3.5.3.8v.5l-7.1,22.7c0,.4-.3.7-.5.9s-.6.3-1.1.3h-3.8c-.5,0-.8,0-1.1-.3s-.5-.5-.6-.9l-4.8-14.5-4.9,14.5c0,.4-.3.7-.5.9-.3.2-.6.3-1.1.3h-3.8Z"/>
      <path class="cls-6" d="M705.1,722.1c-1.7,0-3.3-.3-4.7-1s-2.5-1.6-3.3-2.7c-.8-1.2-1.2-2.4-1.2-3.9,0-2.3.9-4.1,2.8-5.4,1.9-1.4,4.4-2.3,7.5-2.8l6.4-.9v-.9c0-1.3-.3-2.3-.9-2.9-.6-.7-1.6-1-3-1s-2,.2-2.6.6c-.7.4-1.2,1-1.5,1.7-.3.4-.6.6-1.1.6h-4.7c-.4,0-.6,0-.8-.3s-.3-.5-.2-.8c0-.6.2-1.2.6-2,.4-.8,1.1-1.5,2-2.2s2-1.4,3.4-1.9,3-.7,5.1-.7,3.9.2,5.2.7c1.5.5,2.7,1.2,3.6,2.1s1.5,1.9,2,3c.4,1.2.6,2.4.6,3.8v15.2c0,.4,0,.7-.3.9s-.5.3-.9.3h-4.8c-.3,0-.6,0-.8-.3s-.3-.5-.3-.9v-1.7c-.4.6-1,1.2-1.7,1.7-.7.5-1.6,1-2.6,1.3-1.3.3-2.5.4-3.9.4v.3ZM707.2,717c1.1,0,2.1-.2,2.9-.7.9-.5,1.5-1.2,2-2.1.5-1,.7-2.2.7-3.6v-.8l-4.6.7c-1.7.3-3,.7-3.9,1.3-.8.6-1.2,1.3-1.2,2.2s.2,1.2.6,1.6c.4.5.9.8,1.5,1,.7.3,1.3.4,2,.4h0Z"/>
      <path class="cls-6" d="M730,730.9c-.3,0-.5,0-.7-.3s-.3-.4-.3-.7v-.3c0,0,0-.3,0-.4l3.9-9.1-9.5-22.3c0-.3,0-.5,0-.6,0-.3,0-.6.3-.8s.4-.3.7-.3h4.8c.4,0,.7,0,.9.3s.3.4.4.7l6.1,15.2,6.3-15.2c0-.3.3-.5.5-.7s.5-.3.9-.3h4.7c.3,0,.6,0,.8.3s.3.5.3.7,0,.4-.2.7l-13.9,32.2c0,.3-.3.5-.5.7s-.5.3-1,.3h-4.4v-.3Z"/>
      <path class="cls-6" d="M763.3,722.1c-2,0-3.8-.2-5.2-.7s-2.7-1.1-3.6-1.7c-.9-.7-1.6-1.4-2-2.1-.4-.7-.7-1.3-.7-1.7s0-.7.3-.9c.3-.2.5-.3.8-.3h4.8c0,0,.2,0,.3,0,0,0,.2,0,.3.2.4.3.9.6,1.3,1,.5.4,1,.7,1.6,1s1.4.4,2.3.4,2-.2,2.8-.7c.8-.4,1.1-1.1,1.1-1.9s-.2-1.1-.5-1.5-1-.8-2-1.1-2.4-.7-4.1-1.1-3.3-.9-4.5-1.6c-1.3-.7-2.2-1.5-2.8-2.5s-.9-2.2-.9-3.6.4-2.5,1.2-3.7,2-2.2,3.6-2.9,3.6-1.2,5.9-1.2,3.4.2,4.8.7c1.4.4,2.5,1,3.4,1.7s1.6,1.4,2.1,2.1c.5.7.7,1.3.8,1.9,0,.3,0,.6-.3.8s-.5.3-.8.3h-4.4c-.2,0-.3,0-.4,0,0,0-.2,0-.3-.2-.4-.3-.8-.6-1.2-.9-.4-.3-.9-.6-1.5-.9-.6-.3-1.3-.4-2.2-.4s-1.9.2-2.5.7-.9,1.1-.9,1.7,0,.9.4,1.3c.3.4.9.8,1.7,1.1.9.3,2.3.7,4.1,1,2.2.4,4,1,5.2,1.7s2.3,1.7,2.8,2.7c.6,1,.9,2.1.9,3.3s-.5,2.9-1.4,4c-.9,1.2-2.3,2.1-4,2.8-1.6.8-3.8,1.1-6.3,1.1h0Z"/>
    </g>
  </g>
  <g id="Bottom_-_Grey_copy" data-name="Bottom - Grey copy">
    <rect class="cls-9" x="81.8" y="443.6" width="920.5" height="151"/>
  </g>
  <g id="Dotted_Lines" data-name="Dotted Lines">
    <g>
      <line class="cls-10" x1="75.1" y1="593.8" x2="81.1" y2="593.8"/>
      <line class="cls-12" x1="93.2" y1="593.8" x2="1001.4" y2="593.8"/>
      <line class="cls-10" x1="1007.5" y1="593.8" x2="1013.5" y2="593.8"/>
    </g>
    <g>
      <line class="cls-10" x1="75" y1="796.5" x2="81" y2="796.5"/>
      <line class="cls-12" x1="93" y1="796.5" x2="1001.3" y2="796.5"/>
      <line class="cls-10" x1="1007.3" y1="796.5" x2="1013.3" y2="796.5"/>
    </g>
  </g>
  <g>
    <path class="cls-6" d="M330.9,486.4c0,1.2-.6,1.8-1.8,1.8h-46.2c-1.2,0-1.8-.6-1.8-1.8s.6-1.8,1.8-1.8h46.2c1.2,0,1.8.5,1.8,1.8ZM337.3,491.3c0,1.2-.6,1.8-1.8,1.8h-52.6c-1.2,0-1.8-.6-1.8-1.8s.6-1.8,1.8-1.8h52.6c1.2,0,1.8.6,1.8,1.8ZM340,496.3c0,1.2-.6,1.8-1.8,1.8h-55.4c-1.2,0-1.8-.6-1.8-1.8s.6-1.8,1.8-1.8h55.4c1.2,0,1.8.6,1.8,1.8ZM297.3,501.3c0,1.2-.6,1.8-1.8,1.8h-12.6c-1.2,0-1.8-.6-1.8-1.8s.6-1.8,1.8-1.8h12.6c1.2,0,1.8.6,1.8,1.8ZM297.3,506.3c0,1.2-.6,1.8-1.8,1.8h-12.6c-1.2,0-1.8-.6-1.8-1.8s.6-1.8,1.8-1.8h12.6c1.2,0,1.8.6,1.8,1.8ZM297.3,511.4c0,1.2-.6,1.8-1.8,1.8h-12.6c-1.2,0-1.8-.6-1.8-1.8s.6-1.8,1.8-1.8h12.6c1.2,0,1.8.6,1.8,1.8h0ZM297.3,516.3c0,1.2-.6,1.8-1.8,1.8h-12.6c-1.2,0-1.8-.6-1.8-1.8s.6-1.8,1.8-1.8h12.6c1.2,0,1.8.6,1.8,1.8ZM340,521.4c0,1.2-.6,1.8-1.8,1.8h-55.4c-1.2,0-1.8-.6-1.8-1.8s.6-1.8,1.8-1.8h55.4c1.2,0,1.8.6,1.8,1.8ZM337.3,526.4c0,1.2-.6,1.8-1.8,1.8h-52.6c-1.2,0-1.8-.6-1.8-1.8s.6-1.8,1.8-1.8h52.6c1.2,0,1.8.5,1.8,1.8ZM330.9,531.4c0,1.2-.6,1.8-1.8,1.8h-46.2c-1.2,0-1.8-.6-1.8-1.8s.6-1.8,1.8-1.8h46.2c1.2,0,1.8.6,1.8,1.8ZM297.3,536.4c0,1.2-.6,1.8-1.8,1.8h-12.6c-1.2,0-1.8-.6-1.8-1.8s.6-1.8,1.8-1.8h12.6c1.2,0,1.8.6,1.8,1.8ZM297.3,541.4c0,1.2-.6,1.8-1.8,1.8h-12.6c-1.2,0-1.8-.6-1.8-1.8s.6-1.8,1.8-1.8h12.6c1.2,0,1.8.5,1.8,1.8ZM297.3,546.4c0,1.2-.6,1.8-1.8,1.8h-12.6c-1.2,0-1.8-.6-1.8-1.8s.6-1.8,1.8-1.8h12.6c1.2,0,1.8.6,1.8,1.8ZM341.5,501.3c0,1.2-.6,1.8-1.8,1.8h-14.8c-1.2,0-1.8-.6-1.8-1.8s.6-1.8,1.8-1.8h14.8c1.2,0,1.8.6,1.8,1.8ZM341.5,516.3c0,1.2-.6,1.8-1.8,1.8h-14.8c-1.2,0-1.8-.6-1.8-1.8s.6-1.8,1.8-1.8h14.8c1.2,0,1.8.6,1.8,1.8ZM342,506.3c0,1.2-.6,1.8-1.8,1.8h-12.7c-1.2,0-1.8-.6-1.8-1.8s.6-1.8,1.8-1.8h12.7c1.1,0,1.8.6,1.8,1.8ZM342,511.4c0,1.2-.6,1.8-1.8,1.8h-12.7c-1.2,0-1.8-.6-1.8-1.8s.6-1.8,1.8-1.8h12.7c1.1,0,1.8.6,1.8,1.8h0Z"/>
    <path class="cls-6" d="M402.1,521.4c0,1.2-.6,1.8-1.8,1.8h-46.9c-1.2,0-1.8-.6-1.8-1.8s.6-1.8,1.8-1.8h46.9c1.2,0,1.8.6,1.8,1.8ZM402.1,526.4c0,1.2-.6,1.8-1.8,1.8h-46.9c-1.2,0-1.8-.6-1.8-1.8s.6-1.8,1.8-1.8h46.9c1.2,0,1.8.5,1.8,1.8ZM366.9,531.4c0,1.2-.6,1.8-1.8,1.8h-11.6c-1.2,0-1.8-.6-1.8-1.8s.6-1.8,1.8-1.8h11.5c1.3,0,1.9.6,1.9,1.8ZM366.9,516.3c0,1.2-.6,1.8-1.8,1.8h-11.5c-1.2,0-1.8-.6-1.8-1.8s.6-1.8,1.8-1.8h11.4c1.3,0,1.9.6,1.9,1.8ZM401.4,511.4c0,1.2-.6,1.8-1.8,1.8h-45.6c-1.2,0-1.8-.6-1.8-1.8s.6-1.8,1.8-1.8h45.6c1.2,0,1.8.6,1.8,1.8h0ZM398,536.4c0,1.2-.6,1.8-1.8,1.8h-42.1c-1.2,0-1.8-.6-1.8-1.8s.6-1.8,1.8-1.8h42.1c1.2,0,1.8.6,1.8,1.8ZM399.6,506.3c0,1.2-.6,1.8-1.8,1.8h-42c-1.2,0-1.8-.6-1.8-1.8s.6-1.8,1.8-1.8h42c1.2,0,1.8.6,1.8,1.8ZM398,541.4c0,1.2-.6,1.8-1.8,1.8h-40.4c-1.2,0-1.8-.6-1.8-1.8s.6-1.8,1.8-1.8h40.4c1.2,0,1.8.5,1.8,1.8ZM395,501.3c0,1.2-.6,1.8-1.8,1.8h-33c-1.2,0-1.8-.6-1.8-1.8s.6-1.8,1.8-1.8h33c1.2,0,1.8.6,1.8,1.8ZM398,546.4c0,1.2-.6,1.8-1.8,1.8h-36c-1.2,0-1.8-.6-1.8-1.8s.6-1.8,1.8-1.8h36c1.2,0,1.8.6,1.8,1.8ZM402,516.3c0,1.2-.6,1.8-1.8,1.8h-11.5c-1.2,0-1.8-.6-1.8-1.8s.6-1.8,1.8-1.8h11.5c1.2,0,1.8.6,1.8,1.8Z"/>
    <path class="cls-6" d="M427.5,501.3c0,1.2-.6,1.8-1.8,1.8h-11.6c-1.2,0-1.8-.6-1.8-1.8s.6-1.8,1.8-1.8h11.6c1.2,0,1.8.6,1.8,1.8ZM448,506.3c0,1.2-.6,1.8-1.8,1.8h-32c-1.2,0-1.8-.6-1.8-1.8s.6-1.8,1.8-1.8h32c1.2,0,1.8.6,1.8,1.8ZM448,511.4c0,1.2-.6,1.8-1.8,1.8h-32c-1.2,0-1.8-.6-1.8-1.8s.6-1.8,1.8-1.8h32c1.2,0,1.8.6,1.8,1.8h0ZM412.2,516.3c0-1.2.6-1.8,1.8-1.8h11.6c1.2,0,1.8.6,1.8,1.8s-.6,1.8-1.8,1.8h-11.6c-1.2,0-1.8-.5-1.8-1.8ZM412.2,521.4c0-1.2.6-1.8,1.8-1.8h11.6c1.2,0,1.8.6,1.8,1.8s-.6,1.8-1.8,1.8h-11.6c-1.2,0-1.8-.6-1.8-1.8ZM412.2,526.4c0-1.2.6-1.8,1.8-1.8h11.6c1.2,0,1.8.6,1.8,1.8s-.6,1.8-1.8,1.8h-11.6c-1.2,0-1.8-.6-1.8-1.8ZM412.2,531.4c0-1.2.6-1.8,1.8-1.8h11.6c1.2,0,1.8.6,1.8,1.8s-.6,1.8-1.8,1.8h-11.6c-1.2,0-1.8-.6-1.8-1.8ZM412.2,536.4c0-1.2.6-1.8,1.8-1.8h11.6c1.2,0,1.8.6,1.8,1.8s-.6,1.8-1.8,1.8h-11.6c-1.2,0-1.8-.6-1.8-1.8ZM412.2,541.4c0-1.2.6-1.8,1.8-1.8h11.6c1.2,0,1.8.6,1.8,1.8s-.6,1.8-1.8,1.8h-11.6c-1.2,0-1.8-.6-1.8-1.8ZM412.2,546.4c0-1.2.6-1.8,1.8-1.8h11.6c1.2,0,1.8.6,1.8,1.8s-.6,1.8-1.8,1.8h-11.6c-1.2,0-1.8-.6-1.8-1.8ZM436.1,499.5h10c1.2,0,1.8.6,1.8,1.8s-.6,1.8-1.8,1.8h-10c-1.2,0-1.8-.6-1.8-1.8s.6-1.8,1.8-1.8Z"/>
    <path class="cls-6" d="M471.2,501.3c0,1.2-.6,1.8-1.8,1.8h-11.7c-1.2,0-1.8-.6-1.8-1.8s.6-1.8,1.8-1.8h11.7c1.2,0,1.8.6,1.8,1.8ZM455.9,506.3c0-1.2.6-1.8,1.8-1.8h73.3c1.2,0,1.8.6,1.8,1.8s-.6,1.8-1.8,1.8h-73.3c-1.2,0-1.8-.6-1.8-1.8h0ZM534.5,511.4c0,1.2-.6,1.8-1.8,1.8h-75.1c-1.2,0-1.8-.6-1.8-1.8s.6-1.8,1.8-1.8h75c1.3,0,1.9.6,1.9,1.8h0ZM455.9,516.3c0-1.2.6-1.8,1.8-1.8h11.7c1.2,0,1.8.6,1.8,1.8s-.6,1.8-1.8,1.8h-11.7c-1.2,0-1.8-.5-1.8-1.8ZM455.9,521.4c0-1.2.6-1.8,1.8-1.8h11.7c1.2,0,1.8.6,1.8,1.8s-.6,1.8-1.8,1.8h-11.7c-1.2,0-1.8-.6-1.8-1.8ZM455.9,526.4c0-1.2.6-1.8,1.8-1.8h11.7c1.2,0,1.8.6,1.8,1.8s-.6,1.8-1.8,1.8h-11.7c-1.2,0-1.8-.6-1.8-1.8ZM455.9,531.4c0-1.2.6-1.8,1.8-1.8h11.7c1.2,0,1.8.6,1.8,1.8s-.6,1.8-1.8,1.8h-11.7c-1.2,0-1.8-.6-1.8-1.8ZM455.9,536.4c0-1.2.6-1.8,1.8-1.8h11.7c1.2,0,1.8.6,1.8,1.8s-.6,1.8-1.8,1.8h-11.7c-1.2,0-1.8-.6-1.8-1.8ZM455.9,541.4c0-1.2.6-1.8,1.8-1.8h11.7c1.2,0,1.8.6,1.8,1.8s-.6,1.8-1.8,1.8h-11.7c-1.2,0-1.8-.6-1.8-1.8ZM455.9,546.4c0-1.2.6-1.8,1.8-1.8h11.7c1.2,0,1.8.6,1.8,1.8s-.6,1.8-1.8,1.8h-11.7c-1.2,0-1.8-.6-1.8-1.8ZM497.4,501.3c0,1.2-.6,1.8-1.8,1.8h-16.7c-1.2,0-1.8-.6-1.8-1.8s.6-1.8,1.8-1.8h16.7c1.2,0,1.8.6,1.8,1.8ZM487.9,516.3c0-1.2.6-1.8,1.8-1.8h11.6c1.2,0,1.8.6,1.8,1.8s-.6,1.8-1.8,1.8h-11.6c-1.2,0-1.8-.5-1.8-1.8ZM487.9,521.4c0-1.2.6-1.8,1.8-1.8h11.6c1.2,0,1.8.6,1.8,1.8s-.6,1.8-1.8,1.8h-11.6c-1.2,0-1.8-.6-1.8-1.8ZM487.9,526.4c0-1.2.6-1.8,1.8-1.8h11.6c1.2,0,1.8.6,1.8,1.8s-.6,1.8-1.8,1.8h-11.6c-1.2,0-1.8-.6-1.8-1.8ZM487.9,531.4c0-1.2.6-1.8,1.8-1.8h11.6c1.2,0,1.8.6,1.8,1.8s-.6,1.8-1.8,1.8h-11.6c-1.2,0-1.8-.6-1.8-1.8ZM487.9,536.4c0-1.2.6-1.8,1.8-1.8h11.6c1.2,0,1.8.6,1.8,1.8s-.6,1.8-1.8,1.8h-11.6c-1.2,0-1.8-.6-1.8-1.8ZM487.9,541.4c0-1.2.6-1.8,1.8-1.8h11.6c1.2,0,1.8.6,1.8,1.8s-.6,1.8-1.8,1.8h-11.6c-1.2,0-1.8-.6-1.8-1.8ZM487.9,546.4c0-1.2.6-1.8,1.8-1.8h11.6c1.2,0,1.8.6,1.8,1.8s-.6,1.8-1.8,1.8h-11.6c-1.2,0-1.8-.6-1.8-1.8ZM528.3,501.3c0,1.2-.6,1.8-1.8,1.8h-21.6c-1.2,0-1.8-.6-1.8-1.8s.6-1.8,1.8-1.8h21.6c1.2,0,1.8.6,1.8,1.8ZM520,516.3c0-1.2.6-1.8,1.8-1.8h11.5c1.2,0,1.8.6,1.8,1.8s-.6,1.8-1.8,1.8h-11.5c-1.2,0-1.8-.5-1.8-1.8ZM521.8,519.6h11.6c1.2,0,1.8.6,1.8,1.8s-.6,1.8-1.8,1.8h-11.6c-1.2,0-1.8-.6-1.8-1.8s.6-1.8,1.8-1.8ZM520,526.4c0-1.2.6-1.8,1.8-1.8h11.6c1.2,0,1.8.6,1.8,1.8s-.6,1.8-1.8,1.8h-11.6c-1.2,0-1.8-.6-1.8-1.8ZM520,531.4c0-1.2.6-1.8,1.8-1.8h11.6c1.2,0,1.8.6,1.8,1.8s-.6,1.8-1.8,1.8h-11.6c-1.2,0-1.8-.6-1.8-1.8ZM520,536.4c0-1.2.6-1.8,1.8-1.8h11.6c1.2,0,1.8.6,1.8,1.8s-.6,1.8-1.8,1.8h-11.6c-1.2,0-1.8-.6-1.8-1.8ZM520,541.4c0-1.2.6-1.8,1.8-1.8h11.6c1.2,0,1.8.6,1.8,1.8s-.6,1.8-1.8,1.8h-11.6c-1.2,0-1.8-.6-1.8-1.8ZM520,546.4c0-1.2.6-1.8,1.8-1.8h11.6c1.2,0,1.8.6,1.8,1.8s-.6,1.8-1.8,1.8h-11.6c-1.2,0-1.8-.6-1.8-1.8Z"/>
    <path class="cls-6" d="M594.7,536.4c0,1.2-.6,1.8-1.8,1.8h-46.6c-1.2,0-1.8-.6-1.8-1.8s.6-1.8,1.8-1.8h46.6c1.2,0,1.8.6,1.8,1.8ZM560.2,531.4c0,1.2-.6,1.8-1.8,1.8h-12.1c-1.2,0-1.8-.6-1.8-1.8s.6-1.8,1.8-1.8h12.1c1.2,0,1.8.6,1.8,1.8ZM594.7,526.4c0,1.2-.6,1.8-1.8,1.8h-45.4c-1.2,0-1.8-.6-1.8-1.8s.6-1.8,1.8-1.8h45.4c1.2,0,1.8.5,1.8,1.8ZM594.7,541.4c0,1.2-.6,1.8-1.8,1.8h-45.4c-1.2,0-1.8-.6-1.8-1.8s.6-1.8,1.8-1.8h45.4c1.2,0,1.8.5,1.8,1.8ZM589.5,501.3c0,1.2-.6,1.8-1.8,1.8h-37.4c-1.2,0-1.8-.6-1.8-1.8s.6-1.8,1.8-1.8h37.4c1.2,0,1.8.6,1.8,1.8ZM593.5,506.3c0,1.2-.6,1.8-1.8,1.8h-41.4c-1.2,0-1.8-.6-1.8-1.8s.6-1.8,1.8-1.8h41.4c1.2,0,1.8.6,1.8,1.8ZM594.6,511.4c0,1.2-.6,1.8-1.8,1.8h-42.5c-1.2,0-1.8-.6-1.8-1.8s.6-1.8,1.8-1.8h42.5c1.2,0,1.8.6,1.8,1.8h0ZM594.7,521.4c0,1.2-.6,1.8-1.8,1.8h-40.6c-1.2,0-1.8-.6-1.8-1.8s.6-1.8,1.8-1.8h40.6c1.2,0,1.8.6,1.8,1.8ZM573.1,546.4c0,1.2-.6,1.8-1.8,1.8h-18.9c-1.2,0-1.8-.6-1.8-1.8s.6-1.8,1.8-1.8h18.9c1.2,0,1.8.6,1.8,1.8ZM594.7,516.3c0,1.2-.6,1.8-1.8,1.8h-11.8c-1.2,0-1.8-.6-1.8-1.8s.6-1.8,1.8-1.8h11.8c1.2,0,1.8.6,1.8,1.8ZM594.7,531.4c0,1.2-.6,1.8-1.8,1.8h-11.6c-1.2,0-1.8-.6-1.8-1.8s.6-1.8,1.8-1.8h11.6c1.2,0,1.8.6,1.8,1.8ZM594.7,546.4c0,1.2-.6,1.8-1.8,1.8h-11.6c-1.2,0-1.8-.6-1.8-1.8s.6-1.8,1.8-1.8h11.6c1.2,0,1.8.6,1.8,1.8Z"/>
    <path class="cls-6" d="M617.8,501.3c0,1.2-.6,1.8-1.8,1.8h-13c-1.2,0-1.8-.6-1.8-1.8s.6-1.8,1.8-1.8h13c1.2,0,1.8.6,1.8,1.8ZM619.3,506.3c0,1.2-.6,1.8-1.8,1.8h-12.7c-1.2,0-1.8-.6-1.8-1.8s.6-1.8,1.8-1.8h12.7c1.1,0,1.8.6,1.8,1.8ZM620.8,511.4c0,1.2-.6,1.8-1.8,1.8h-12.3c-1.2,0-1.8-.6-1.8-1.8s.6-1.8,1.8-1.8h12.3c1.2,0,1.8.6,1.8,1.8h0ZM622.2,516.3c0,1.2-.6,1.8-1.8,1.8h-12.1c-1.2,0-1.8-.6-1.8-1.8s.6-1.8,1.8-1.8h12.1c1.2,0,1.8.6,1.8,1.8ZM623.6,521.4c0,1.2-.6,1.8-1.8,1.8h-11.7c-1.2,0-1.8-.6-1.8-1.8s.6-1.8,1.8-1.8h11.7c1.2,0,1.8.6,1.8,1.8ZM625.1,526.4c0,1.2-.6,1.8-1.8,1.8h-11.3c-1.2,0-1.8-.6-1.8-1.8s.6-1.8,1.8-1.8h11.3c1.2,0,1.8.5,1.8,1.8ZM626.5,531.4c0,1.2-.6,1.8-1.8,1.8h-11.1c-1.2,0-1.8-.6-1.8-1.8s.6-1.8,1.8-1.8h11.1c1.2,0,1.8.6,1.8,1.8ZM613.6,536.4c0-1.2.6-1.8,1.8-1.8h22.9c1.2,0,1.8.6,1.8,1.8s-.6,1.8-1.8,1.8h-22.9c-1.2,0-1.8-.6-1.8-1.8ZM615.3,541.4c0-1.2.6-1.8,1.8-1.8h19.7c1.2,0,1.8.6,1.8,1.8s-.6,1.8-1.8,1.8h-19.6c-1.3,0-1.9-.6-1.9-1.8ZM617.1,546.4c0-1.2.6-1.8,1.8-1.8h16.4c1.2,0,1.8.6,1.8,1.8s-.6,1.8-1.8,1.8h-16.4c-1.2,0-1.8-.6-1.8-1.8ZM628.8,531.4c0-1.2.6-1.8,1.8-1.8h9.1c1.2,0,1.8.6,1.8,1.8s-.6,1.8-1.8,1.8h-9.1c-1.2,0-1.8-.6-1.8-1.8ZM630.1,526.4c0-1.2.6-1.8,1.8-1.8h9.2c1.2,0,1.8.6,1.8,1.8s-.6,1.8-1.8,1.8h-9.2c-1.2,0-1.8-.6-1.8-1.8ZM631.6,521.4c0-1.2.6-1.8,1.8-1.8h9.2c1.2,0,1.8.6,1.8,1.8s-.6,1.8-1.8,1.8h-9.2c-1.2,0-1.8-.6-1.8-1.8ZM656.1,518.2h-21.3c-1.2,0-1.8-.6-1.8-1.8s.6-1.8,1.8-1.8h21.3c1.2,0,1.8.6,1.8,1.8s-.6,1.8-1.8,1.8ZM656.6,511.4c0,1.2-.6,1.8-1.8,1.8h-18.5c-1.2,0-1.8-.6-1.8-1.8s.6-1.8,1.8-1.8h18.5c1.2,0,1.8.6,1.8,1.8h0ZM655.1,506.3c0,1.2-.6,1.8-1.8,1.8h-15.6c-1.2,0-1.8-.6-1.8-1.8s.6-1.8,1.8-1.8h15.6c1.2,0,1.8.6,1.8,1.8ZM653.7,501.3c0,1.2-.6,1.8-1.8,1.8h-12.7c-1.2,0-1.8-.6-1.8-1.8s.6-1.8,1.8-1.8h12.7c1.2,0,1.8.6,1.8,1.8ZM659.5,521.4c0,1.2-.6,1.8-1.8,1.8h-9.2c-1.2,0-1.8-.6-1.8-1.8s.6-1.8,1.8-1.8h9.2c1.2,0,1.8.6,1.8,1.8ZM660.9,526.4c0,1.2-.6,1.8-1.8,1.8h-9.2c-1.2,0-1.8-.6-1.8-1.8s.6-1.8,1.8-1.8h9.2c1.2,0,1.8.5,1.8,1.8ZM662.2,531.4c0,1.2-.6,1.8-1.8,1.8h-9.2c-1.2,0-1.8-.6-1.8-1.8s.6-1.8,1.8-1.8h9.2c1.2,0,1.8.6,1.8,1.8ZM650.9,536.4c0-1.2.6-1.8,1.8-1.8h22.9c1.2,0,1.8.6,1.8,1.8s-.6,1.8-1.8,1.8h-22.9c-1.2,0-1.8-.6-1.8-1.8ZM652.3,541.4c0-1.2.6-1.8,1.8-1.8h19.6c1.2,0,1.8.6,1.8,1.8s-.6,1.8-1.8,1.8h-19.6c-1.2,0-1.8-.6-1.8-1.8ZM653.8,546.4c0-1.2.6-1.8,1.8-1.8h16.4c1.2,0,1.8.6,1.8,1.8s-.6,1.8-1.8,1.8h-16.4c-1.2,0-1.8-.6-1.8-1.8ZM664.4,531.4c0-1.2.6-1.8,1.8-1.8h11.1c1.2,0,1.8.6,1.8,1.8s-.6,1.8-1.8,1.8h-11.1c-1.2,0-1.8-.6-1.8-1.8ZM665.8,526.4c0-1.2.6-1.8,1.8-1.8h11.5c1.2,0,1.8.6,1.8,1.8s-.6,1.8-1.8,1.8h-11.5c-1.1,0-1.8-.6-1.8-1.8ZM667.3,521.4c0-1.2.6-1.8,1.8-1.8h11.8c1.2,0,1.8.6,1.8,1.8s-.6,1.8-1.8,1.8h-11.8c-1.2,0-1.8-.6-1.8-1.8ZM668.7,516.3c0-1.2.6-1.8,1.8-1.8h12.2c1.2,0,1.8.6,1.8,1.8s-.6,1.8-1.8,1.8h-12.2c-1.2,0-1.8-.5-1.8-1.8ZM670.2,511.4c0-1.2.6-1.8,1.8-1.8h12.5c1.2,0,1.8.6,1.8,1.8s-.6,1.8-1.8,1.8h-12.5c-1.2,0-1.8-.6-1.8-1.8h0ZM671.6,506.3c0-1.2.6-1.8,1.8-1.8h12.9c1.2,0,1.8.6,1.8,1.8s-.6,1.8-1.8,1.8h-12.9c-1.2,0-1.8-.6-1.8-1.8ZM674.9,499.5h13.1c1.2,0,1.8.6,1.8,1.8s-.6,1.8-1.8,1.8h-13.2c-1.2,0-1.8-.6-1.8-1.8s.6-1.8,1.9-1.8Z"/>
    <path class="cls-6" d="M745.6,521.4c0,1.2-.6,1.8-1.8,1.8h-46.9c-1.2,0-1.8-.6-1.8-1.8s.6-1.8,1.8-1.8h46.9c1.1,0,1.8.6,1.8,1.8ZM745.6,526.4c0,1.2-.6,1.8-1.8,1.8h-46.9c-1.2,0-1.8-.6-1.8-1.8s.6-1.8,1.8-1.8h46.9c1.1,0,1.8.5,1.8,1.8ZM710.3,531.4c0,1.2-.6,1.8-1.8,1.8h-11.6c-1.2,0-1.8-.6-1.8-1.8s.6-1.8,1.8-1.8h11.6c1.2,0,1.8.6,1.8,1.8ZM710.3,516.3c0,1.2-.6,1.8-1.8,1.8h-11.5c-1.2,0-1.8-.6-1.8-1.8s.6-1.8,1.8-1.8h11.5c1.2,0,1.8.6,1.8,1.8ZM744.9,511.4c0,1.2-.6,1.8-1.8,1.8h-45.6c-1.2,0-1.8-.6-1.8-1.8s.6-1.8,1.8-1.8h45.6c1.2,0,1.8.6,1.8,1.8h0ZM741.4,536.4c0,1.2-.6,1.8-1.8,1.8h-42.1c-1.2,0-1.8-.6-1.8-1.8s.6-1.8,1.8-1.8h42.1c1.2,0,1.8.6,1.8,1.8ZM743.1,506.3c0,1.2-.6,1.8-1.8,1.8h-42c-1.2,0-1.8-.6-1.8-1.8s.6-1.8,1.8-1.8h42c1.2,0,1.8.6,1.8,1.8ZM741.4,541.4c0,1.2-.6,1.8-1.8,1.8h-40.4c-1.2,0-1.8-.6-1.8-1.8s.6-1.8,1.8-1.8h40.4c1.2,0,1.8.5,1.8,1.8ZM738.6,501.3c0,1.2-.6,1.8-1.8,1.8h-33c-1.2,0-1.8-.6-1.8-1.8s.6-1.8,1.8-1.8h32.9c1.3,0,1.9.6,1.9,1.8h0ZM741.4,546.4c0,1.2-.6,1.8-1.8,1.8h-36c-1.2,0-1.8-.6-1.8-1.8s.6-1.8,1.8-1.8h36c1.2,0,1.8.6,1.8,1.8ZM745.5,516.3c0,1.2-.6,1.8-1.8,1.8h-11.5c-1.2,0-1.8-.6-1.8-1.8s.6-1.8,1.8-1.8h11.5c1.1,0,1.8.6,1.8,1.8Z"/>
    <path class="cls-6" d="M771.1,481.3c0,1.2-.6,1.8-1.8,1.8h-11.6c-1.2,0-1.8-.6-1.8-1.8s.6-1.8,1.8-1.8h11.6c1.2,0,1.8.6,1.8,1.8ZM771.1,486.4c0,1.2-.6,1.8-1.8,1.8h-11.6c-1.2,0-1.8-.6-1.8-1.8s.6-1.8,1.8-1.8h11.6c1.2,0,1.8.5,1.8,1.8ZM771.1,491.3c0,1.2-.6,1.8-1.8,1.8h-11.6c-1.2,0-1.8-.6-1.8-1.8s.6-1.8,1.8-1.8h11.6c1.2,0,1.8.6,1.8,1.8ZM771.1,496.3c0,1.2-.6,1.8-1.8,1.8h-11.6c-1.2,0-1.8-.6-1.8-1.8s.6-1.8,1.8-1.8h11.6c1.2,0,1.8.6,1.8,1.8ZM771.1,501.3c0,1.2-.6,1.8-1.8,1.8h-11.6c-1.2,0-1.8-.6-1.8-1.8s.6-1.8,1.8-1.8h11.6c1.2,0,1.8.6,1.8,1.8ZM804.3,508.1h-46.7c-1.2,0-1.8-.6-1.8-1.8s.6-1.8,1.8-1.8h46.7c1.2,0,1.8.6,1.8,1.8s-.6,1.8-1.8,1.8ZM806,513.2h-48.4c-1.2,0-1.8-.6-1.8-1.8s.6-1.8,1.8-1.8h48.4c1.2,0,1.8.6,1.8,1.8s-.6,1.8-1.8,1.8ZM771.1,516.3c0,1.2-.6,1.8-1.8,1.8h-11.6c-1.2,0-1.8-.6-1.8-1.8s.6-1.8,1.8-1.8h11.6c1.2,0,1.8.6,1.8,1.8ZM771.1,521.4c0,1.2-.6,1.8-1.8,1.8h-11.6c-1.2,0-1.8-.6-1.8-1.8s.6-1.8,1.8-1.8h11.6c1.2,0,1.8.6,1.8,1.8ZM771.1,526.4c0,1.2-.6,1.8-1.8,1.8h-11.6c-1.2,0-1.8-.6-1.8-1.8s.6-1.8,1.8-1.8h11.6c1.2,0,1.8.5,1.8,1.8ZM771.1,531.4c0,1.2-.6,1.8-1.8,1.8h-11.6c-1.2,0-1.8-.6-1.8-1.8s.6-1.8,1.8-1.8h11.6c1.2,0,1.8.6,1.8,1.8ZM757.6,534.6h48.5c1.2,0,1.8.6,1.8,1.8s-.6,1.8-1.8,1.8h-48.5c-1.2,0-1.8-.6-1.8-1.8s.6-1.8,1.8-1.8ZM757.6,539.5h46.9c1.2,0,1.8.6,1.8,1.8s-.6,1.8-1.8,1.8h-46.9c-1.2,0-1.8-.6-1.8-1.8s.6-1.8,1.8-1.8ZM755.8,546.4c0-1.2.6-1.8,1.8-1.8h11.6c1.2,0,1.8.6,1.8,1.8s-.6,1.8-1.8,1.8h-11.6c-1.2,0-1.8-.6-1.8-1.8ZM776.5,546.4c0-1.2.6-1.8,1.8-1.8h21.9c1.2,0,1.8.6,1.8,1.8s-.6,1.8-1.8,1.8h-21.9c-1.1,0-1.8-.6-1.8-1.8ZM801.6,501.3c0,1.2-.6,1.8-1.8,1.8h-21.2c-1.2,0-1.8-.6-1.8-1.8s.6-1.8,1.8-1.8h21.1c1.3,0,1.9.6,1.9,1.8ZM793.3,516.3c0-1.2.6-1.8,1.8-1.8h11.5c1.2,0,1.8.6,1.8,1.8s-.6,1.8-1.8,1.8h-11.5c-1.2,0-1.8-.5-1.8-1.8ZM795.1,519.6h11.6c1.2,0,1.8.6,1.8,1.8s-.6,1.8-1.8,1.8h-11.6c-1.2,0-1.8-.6-1.8-1.8s.6-1.8,1.8-1.8ZM793.3,526.4c0-1.2.6-1.8,1.8-1.8h11.6c1.2,0,1.8.6,1.8,1.8s-.6,1.8-1.8,1.8h-11.6c-1.2,0-1.8-.6-1.8-1.8ZM793.3,531.4c0-1.2.6-1.8,1.8-1.8h11.6c1.2,0,1.8.6,1.8,1.8s-.6,1.8-1.8,1.8h-11.6c-1.2,0-1.8-.6-1.8-1.8Z"/>
  </g>
  <path class="cls-6" d="M798.6,709.3v-6.2h10.8v-9.9h6.3v9.9h10.8v6.2h-10.8v9.9h-6.3v-9.9h-10.8Z"/>
  <polygon class="cls-2" points="1337.4 430.2 1341.4 430.2 1341.4 430.2 1337.4 430.2"/>
  <g id="Layer_18" data-name="Layer 18">
    <path class="cls-5" d="M376.4,682.8c.7,0,1.4.3,1.9.8s.8,1.2.8,1.9v10.1c0,.7-.3,1.4-.8,1.9s-1.2.8-1.9.8h-9.1c-6.1,0-9.2,3.1-9.2,9.2v24.7c0,.7-.3,1.4-.8,1.9s-1.2.8-1.9.8h-12.6c-.7,0-1.4-.3-1.9-.8s-.8-1.2-.8-1.9v-46.7c0-.7.3-1.4.8-1.9s1.2-.8,1.9-.8h11.6c.7,0,1.4.3,1.9.8s.8,1.2.8,1.9v2.3c1.5-1.5,3.4-2.7,5.5-3.6,2.2-.9,4.8-1.4,7.8-1.4h6Z"/>
    <path class="cls-5" d="M283.2,719c0-4.4,1.7-8.1,5-10.9,3.4-2.9,8.9-5,16.5-6.3l11.7-2c0-1.6-.4-2.9-1.3-3.9-.9-1.1-2.4-1.6-4.5-1.6s-2.7.2-3.6.7c-.8.4-1.4.8-1.8,1.1-.6.5-1.2.9-1.7,1s-1.2.2-1.9.2h-12.7c-.7,0-1.2-.2-1.7-.6-.4-.4-.6-.9-.5-1.6.1-1.5.8-3.1,2-4.8s2.8-3.2,4.9-4.6c2.1-1.4,4.6-2.6,7.5-3.5s6.1-1.4,9.5-1.4,7.6.5,10.6,1.5,5.5,2.4,7.4,4.2c2,1.7,3.5,3.8,4.4,6.3.9,2.4,1.4,5.1,1.4,8v31.1c0,.7-.3,1.4-.8,1.9s-1.2.8-1.9.8h-12.6c-.7,0-1.4-.3-1.9-.8s-.8-1.2-.8-1.9v-3.5c-1.6,2-3.6,3.6-6,4.8-2.3,1.1-5.4,1.7-9.3,1.7s-5.4-.4-7.7-1.2c-2.2-.8-4.1-1.9-5.6-3.3-1.5-1.4-2.6-3.1-3.4-5s-1.2-4.1-1.2-6.4ZM306,721.3c1.5,0,2.8-.2,4.1-.7,1.3-.5,2.4-1.2,3.3-2.1.9-.9,1.7-1.9,2.2-3,.5-1.2.8-2.5.8-3.8l-9.2,1.4c-1.8.3-3.3.9-4.4,1.7s-1.6,1.8-1.6,3.1.4,2.2,1.2,2.7c.9.5,2.1.7,3.6.7h0Z"/>
    <path class="cls-5" d="M403,732.2c0,.7-.3,1.4-.8,1.9s-1.2.8-1.9.8h-13.1c-.7,0-1.4-.3-1.9-.8s-.8-1.2-.8-1.9v-13.1c0-.7.3-1.4.8-1.9s1.2-.8,1.9-.8h13.1c.7,0,1.4.3,1.9.8s.8,1.2.8,1.9v13.1Z"/>
    <path class="cls-5" d="M403,732.2c0,.7-.3,1.4-.8,1.9s-1.2.8-1.9.8h-13.1c-.7,0-1.4-.3-1.9-.8s-.8-1.2-.8-1.9v-13.1c0-.7.3-1.4.8-1.9s1.2-.8,1.9-.8h13.1c.7,0,1.4.3,1.9.8s.8,1.2.8,1.9v13.1Z"/>
    <path class="cls-5" d="M426.3,732.2c0,.7-.3,1.4-.8,1.9s-1.2.8-1.9.8h-12.6c-.7,0-1.4-.3-1.9-.8s-.8-1.2-.8-1.9v-46.7c0-.7.3-1.4.8-1.9s1.2-.8,1.9-.8h12.6c.7,0,1.4.3,1.9.8s.8,1.2.8,1.9v46.7ZM426.3,673.2c0,.7-.3,1.4-.8,1.9s-1.2.8-1.9.8h-12.6c-.7,0-1.4-.3-1.9-.8s-.8-1.2-.8-1.9v-10.2c0-.7.3-1.4.8-1.9s1.2-.8,1.9-.8h12.6c.7,0,1.4.3,1.9.8s.8,1.2.8,1.9v10.2Z"/>
    <path class="cls-5" d="M486.4,704.2v7.7c0,3.2-.9,6.2-2.2,9s-3.2,5.3-5.5,7.4c-2.3,2.1-5.2,3.7-8.5,4.9s-6.9,1.8-11,1.8-7.8-.6-11.1-1.8c-3.3-1.2-6.1-2.8-8.4-4.9-2.3-2.1-4.2-4.6-5.5-7.4-1.3-2.8-2.1-5.8-2.2-9-.1-1-.1-2.3-.1-3.8s0-2.9.1-3.9c.1-3.2.8-6.2,2.1-9,1.3-2.8,3.2-5.2,5.5-7.3,2.4-2.1,5.2-3.8,8.5-5,3.3-1.3,7-1.9,11.1-1.9s7.8.6,11,1.9c3.3,1.2,6.2,2.9,8.5,5,2.4,2.1,4.2,4.5,5.5,7.3,1.3,2.7,2.1,5.7,2.2,9ZM449.9,711.4c.2,2.5,1.1,4.5,2.7,6,1.7,1.4,3.8,2.1,6.5,2.1s4.8-.7,6.4-2.1c1.7-1.5,2.6-3.5,2.8-6,.1-1,.2-2.1.2-3.4s-.1-2.4-.2-3.4c-.2-2.5-1.1-4.5-2.8-5.9-1.6-1.5-3.7-2.2-6.4-2.2s-4.8.7-6.5,2.2c-1.6,1.4-2.5,3.4-2.7,5.9-.1,1-.2,2.1-.2,3.4s.1,2.4.2,3.4Z"/>
    <path class="cls-7" d="M257.5,704.1c0-24.2-19.5-43.8-43.5-43.8s-44.4,19.6-44.4,43.8v27.3c0,.9.4,1.8,1,2.5.7.7,1.5,1,2.5,1h5c.9,0,1.8-.4,2.5-1,.7-.7,1-1.5,1-2.5v-22.7c0-1.9,1.6-3.5,3.5-3.5h7.1c1.9,0,3.5,1.6,3.5,3.5v22.7c0,.9.4,1.8,1,2.5.7.7,1.5,1,2.5,1h5c.9,0,1.8-.4,2.5-1,.7-.7,1-1.5,1-2.5v-6.9c0-6.9,3.7-13.3,9.6-16.7,5.9-3.4,13.2-3.4,19.2,0,5.9,3.4,9.6,9.8,9.6,16.7v6.9c0,1.9,1.6,3.5,3.5,3.5h4.9c1.9,0,3.5-1.6,3.5-3.5l-.5-27.3ZM194.6,694.8c-.6,1.1-1.5,1.9-2.6,2.6-1.8,1.1-4.1,1.3-6.1.5-.3,0-.6-.2-.8-.4-2.3-1.3-3.7-3.7-3.7-6.3s1.4-5,3.7-6.3c.3-.2.6-.3.9-.4,2.6-.9,5.5-.3,7.5,1.7,1.4,1.3,2.2,3.1,2.2,5s-.4,2.5-1.1,3.6h0Z"/>
    <path class="cls-5" d="M261.4,704.1c0-24.2-19.5-43.8-43.5-43.8s-44.4,19.6-44.4,43.8v27.3c0,.9.4,1.8,1,2.5.7.7,1.5,1,2.5,1h5c.9,0,1.8-.4,2.5-1,.7-.7,1-1.5,1-2.5v-22.7c0-1.9,1.6-3.5,3.5-3.5h7.1c1.9,0,3.5,1.6,3.5,3.5v22.7c0,.9.4,1.8,1,2.5.7.7,1.5,1,2.5,1h5c.9,0,1.8-.4,2.5-1,.7-.7,1-1.5,1-2.5v-6.9c0-6.9,3.7-13.3,9.6-16.7,5.9-3.4,13.2-3.4,19.2,0,5.9,3.4,9.6,9.8,9.6,16.7v6.9c0,1.9,1.6,3.5,3.5,3.5h4.9c1.9,0,3.5-1.6,3.5-3.5l-.5-27.3h0ZM198.5,694.8c-.6,1.1-1.5,1.9-2.6,2.6-1.8,1.1-4.1,1.3-6.1.5-.3,0-.6-.2-.8-.4-2.3-1.3-3.7-3.7-3.7-6.3s1.4-5,3.7-6.3c.3-.2.6-.3.9-.4,2.6-.9,5.5-.3,7.5,1.7,1.4,1.3,2.2,3.1,2.2,5s-.4,2.5-1.1,3.6h0Z"/>
  </g>
  <g id="Layer_17" data-name="Layer 17" class="cls-13">
    <g class="cls-1">
      <g>
        <path class="cls-7" d="M253.5,700.1c0-31.7-25.5-57.4-57-57.4s-58.3,25.7-58.3,57.4v35.8c0,1.2.5,2.4,1.3,3.2s2,1.3,3.2,1.3h6.5c1.2,0,2.4-.5,3.2-1.3.9-.9,1.3-2,1.3-3.2v-29.7c0-2.5,2-4.6,4.5-4.6h9.2c2.5,0,4.5,2,4.5,4.6v29.7c0,1.2.5,2.4,1.3,3.2.9.9,2,1.3,3.2,1.3h6.5c1.2,0,2.4-.5,3.2-1.3.9-.9,1.3-2,1.3-3.2v-9c0-9,4.8-17.4,12.6-21.9s17.4-4.5,25.1,0c7.8,4.5,12.6,12.9,12.6,21.9v9c0,2.5,2,4.6,4.5,4.6h6.4c2.5,0,4.5-2,4.5-4.6l.4-35.8ZM171,687.9c-.9,1.4-2,2.5-3.4,3.4-2.4,1.4-5.3,1.7-7.9.7-.4,0-.7-.3-1.1-.5-3-1.7-4.9-4.8-4.9-8.3s1.9-6.6,4.9-8.3c.3-.2.7-.4,1.1-.5,3.4-1.2,7.2-.4,9.8,2.2,1.8,1.7,2.8,4.1,2.8,6.5s-.4,3.4-1.3,4.8h0Z"/>
        <path class="cls-5" d="M258.5,700.1c0-31.7-25.5-57.4-57-57.4s-58.3,25.7-58.3,57.4v35.8c0,1.2.5,2.4,1.3,3.2s2,1.3,3.2,1.3h6.5c1.2,0,2.4-.5,3.2-1.3.9-.9,1.3-2,1.3-3.2v-29.7c0-2.5,2-4.6,4.5-4.6h9.2c2.5,0,4.5,2,4.5,4.6v29.7c0,1.2.5,2.4,1.3,3.2.9.9,2,1.3,3.2,1.3h6.5c1.2,0,2.4-.5,3.2-1.3.9-.9,1.3-2,1.3-3.2v-9c0-9,4.8-17.4,12.6-21.9s17.4-4.5,25.1,0c7.8,4.5,12.6,12.9,12.6,21.9v9c0,2.5,2,4.6,4.5,4.6h6.4c2.5,0,4.5-2,4.5-4.6l.4-35.8ZM176.1,687.9c-.9,1.4-2,2.5-3.4,3.4-2.4,1.4-5.3,1.7-7.9.7-.4,0-.7-.3-1.1-.5-3-1.7-4.9-4.8-4.9-8.3s1.9-6.6,4.9-8.3c.3-.2.7-.4,1.1-.5,3.4-1.2,7.2-.4,9.8,2.2,1.8,1.7,2.8,4.1,2.8,6.5s-.5,3.4-1.3,4.8h0Z"/>
      </g>
    </g>
  </g>
  <g id="Layer_2" data-name="Layer 2">
    <g>
      <path class="cls-6" d="M933.8,689.2c11.3,14.7,4,34.5-14,38.3-12.2,2.6-25.2-6.3-27.3-18.6-2.4-13.6,5.9-25.7,19.4-27.9,8.6-1.4,16,1.5,21.9,8.2M902,700.9c-1,4.2-.2,8,2.2,11.5,4.6,6.5,13.7,7.9,20.1,2.9,6.2-4.9,7.1-14.2,1.9-20.1-3.5-4-8-5.6-13.1-4.6-5.7,1-9.3,4.6-11.1,10.4h0Z"/>
      <path class="cls-6" d="M871.5,683.9c7.2,14.4,14.4,28.6,21.2,43.1v.5c-.4.6-1,.4-1.5.4h-8.7c-1.2,0-1.8-.4-2.3-1.5-5-10.6-10-21.1-15-31.7-.6-1.2-.6-2.2,0-3.4,1.4-3,2.6-6,4-8.9.2-.4.3-.9.9-1,.8.6,1,1.6,1.5,2.5h0Z"/>
      <path class="cls-6" d="M858.7,727.9h-13.2c4-8.2,7.8-15.8,11.6-23.4.8,0,1,.6,1.2,1,2,4.1,4,8.2,6,12.3.4.9.5,1.7,0,2.5-.7,1.6-1.4,3.3-1.8,5-.5,2-1.6,2.9-3.8,2.6h0Z"/>
    </g>
  </g>
</svg>